<svg viewBox="0 0 215 293" x="0" y="0" fill="none" xmlns="http://www.w3.org/2000/svg"><defs><mask id="mask4_1432_14477" style="mask-type:luminance" maskUnits="userSpaceOnUse" x="44" y="73.39839999999998" width="114" height="99" xmlns="http://www.w3.org/2000/svg">
<g id="SVGID_00000165928890544357328630000010163460873986055059__5" data-node-id="I1432:14586;185:1352">
<path id="vector_47" data-node-id="I1432:14586;185:1353" d="M155.389,130.5504c-2.761,-2.934 -6.694,-2.793 -10.202,-1.42c-1.788,0.699 -3.462,1.665 -5.068,2.708c-0.964,0.625 -2.883,2.902 -4.06,2.655c-0.811,-0.169 -0.938,-1.509 -1.186,-2.148c-2.182,-5.604 -6.881,-10.805 -10.646,-15.413c-4.225,-5.166 -8.736,-10.089 -13.229,-15.019c-7.666,-8.412 -14.717,-17.657 -19.422,-28.077c-1.469,1.318 -4.417,3.972 -5.025,4.604c-5.866,6.101 -12.258,11.788 -19.148,16.713c-3.196,2.284 -6.523,4.411 -10.067,6.113c-3.155,1.515 -6.587,2.772 -10.128,2.806c-0.023,0 -0.038,-0.01 -0.061,-0.012c-0.805,2.562 -1.435,5.205 -1.867,7.92c-5.139,32.283 11.437,54.523 41.29,59.208c17.621,2.765 34.589,-4.438 45.601,-17.541c4.293,4.35 12.726,2.979 19.081,-3.197c6.488,-6.303 8.847,-14.889 4.137,-19.9z" fill="white"/>
</g>
</mask><mask id="mask5_1432_14477" style="mask-type:luminance" maskUnits="userSpaceOnUse" x="44" y="73.39839999999998" width="114" height="99" xmlns="http://www.w3.org/2000/svg">
<g id="SVGID_00000165928890544357328630000010163460873986055059__6" data-node-id="I1432:14586;185:1356">
<path id="vector_49" data-node-id="I1432:14586;185:1357" d="M155.389,130.5504c-2.761,-2.934 -6.694,-2.793 -10.202,-1.42c-1.788,0.699 -3.462,1.665 -5.068,2.708c-0.964,0.625 -2.883,2.902 -4.06,2.655c-0.811,-0.169 -0.938,-1.509 -1.186,-2.148c-2.182,-5.604 -6.881,-10.805 -10.646,-15.413c-4.225,-5.166 -8.736,-10.089 -13.229,-15.019c-7.666,-8.412 -14.717,-17.657 -19.422,-28.077c-1.469,1.318 -4.417,3.972 -5.025,4.604c-5.866,6.101 -12.258,11.788 -19.148,16.713c-3.196,2.284 -6.523,4.411 -10.067,6.113c-3.155,1.515 -6.587,2.772 -10.128,2.806c-0.023,0 -0.038,-0.01 -0.061,-0.012c-0.805,2.562 -1.435,5.205 -1.867,7.92c-5.139,32.283 11.437,54.523 41.29,59.208c17.621,2.765 34.589,-4.438 45.601,-17.541c4.293,4.35 12.726,2.979 19.081,-3.197c6.488,-6.303 8.847,-14.889 4.137,-19.9z" fill="white"/>
</g>
</mask><mask id="mask6_1432_14477" style="mask-type:luminance" maskUnits="userSpaceOnUse" x="44" y="73.39839999999998" width="114" height="99" xmlns="http://www.w3.org/2000/svg">
<g id="SVGID_00000165928890544357328630000010163460873986055059__7" data-node-id="I1432:14586;185:1360">
<path id="vector_51" data-node-id="I1432:14586;185:1361" d="M155.389,130.5504c-2.761,-2.934 -6.694,-2.793 -10.202,-1.42c-1.788,0.699 -3.462,1.665 -5.068,2.708c-0.964,0.625 -2.883,2.902 -4.06,2.655c-0.811,-0.169 -0.938,-1.509 -1.186,-2.148c-2.182,-5.604 -6.881,-10.805 -10.646,-15.413c-4.225,-5.166 -8.736,-10.089 -13.229,-15.019c-7.666,-8.412 -14.717,-17.657 -19.422,-28.077c-1.469,1.318 -4.417,3.972 -5.025,4.604c-5.866,6.101 -12.258,11.788 -19.148,16.713c-3.196,2.284 -6.523,4.411 -10.067,6.113c-3.155,1.515 -6.587,2.772 -10.128,2.806c-0.023,0 -0.038,-0.01 -0.061,-0.012c-0.805,2.562 -1.435,5.205 -1.867,7.92c-5.139,32.283 11.437,54.523 41.29,59.208c17.621,2.765 34.589,-4.438 45.601,-17.541c4.293,4.35 12.726,2.979 19.081,-3.197c6.488,-6.303 8.847,-14.889 4.137,-19.9z" fill="white"/>
</g>
</mask><mask id="mask7_1432_14477" style="mask-type:luminance" maskUnits="userSpaceOnUse" x="44" y="73.39839999999998" width="114" height="99" xmlns="http://www.w3.org/2000/svg">
<g id="SVGID_00000165928890544357328630000010163460873986055059__8" data-node-id="I1432:14586;185:1364">
<path id="vector_53" data-node-id="I1432:14586;185:1365" d="M155.389,130.5504c-2.761,-2.934 -6.694,-2.793 -10.202,-1.42c-1.788,0.699 -3.462,1.665 -5.068,2.708c-0.964,0.625 -2.883,2.902 -4.06,2.655c-0.811,-0.169 -0.938,-1.509 -1.186,-2.148c-2.182,-5.604 -6.881,-10.805 -10.646,-15.413c-4.225,-5.166 -8.736,-10.089 -13.229,-15.019c-7.666,-8.412 -14.717,-17.657 -19.422,-28.077c-1.469,1.318 -4.417,3.972 -5.025,4.604c-5.866,6.101 -12.258,11.788 -19.148,16.713c-3.196,2.284 -6.523,4.411 -10.067,6.113c-3.155,1.515 -6.587,2.772 -10.128,2.806c-0.023,0 -0.038,-0.01 -0.061,-0.012c-0.805,2.562 -1.435,5.205 -1.867,7.92c-5.139,32.283 11.437,54.523 41.29,59.208c17.621,2.765 34.589,-4.438 45.601,-17.541c4.293,4.35 12.726,2.979 19.081,-3.197c6.488,-6.303 8.847,-14.889 4.137,-19.9z" fill="white"/>
</g>
</mask><mask id="mask8_1432_14477" style="mask-type:luminance" maskUnits="userSpaceOnUse" x="78" y="173.39839999999998" width="68" height="101" xmlns="http://www.w3.org/2000/svg">
<g id="SVGID_00000021811605315644006680000000064717756826091703_" data-node-id="I1432:14586;185:1430">
<path id="vector_84" data-node-id="I1432:14586;185:1431" d="M84.689,177.7664c0,0 2.23,9.104 11.548,8.656c9.318,-0.449 10.364,-11.654 10.364,-11.654c0,0 7.679,-2.831 14.255,5.873c6.576,8.701 10.228,35.167 10.228,35.167c0,0 35.8,45.083 -6.577,56.947c0,0 -23.014,4.198 -36.164,-5.111l-9.864,-88.305c0,0 1.631,-1.573 6.21,-1.573z" fill="white"/>
</g>
</mask><mask id="mask9_1432_14477" style="mask-type:luminance" maskUnits="userSpaceOnUse" x="78" y="173.39839999999998" width="68" height="101" xmlns="http://www.w3.org/2000/svg">
<g id="SVGID_00000021811605315644006680000000064717756826091703__2" data-node-id="I1432:14586;185:1434">
<path id="vector_86" data-node-id="I1432:14586;185:1435" d="M84.689,177.7664c0,0 2.23,9.104 11.548,8.656c9.318,-0.449 10.364,-11.654 10.364,-11.654c0,0 7.679,-2.831 14.255,5.873c6.576,8.701 10.228,35.167 10.228,35.167c0,0 35.8,45.083 -6.577,56.947c0,0 -23.014,4.198 -36.164,-5.111l-9.864,-88.305c0,0 1.631,-1.573 6.21,-1.573z" fill="white"/>
</g>
</mask><mask id="mask10_1432_14477" style="mask-type:luminance" maskUnits="userSpaceOnUse" x="78" y="173.39839999999998" width="68" height="101" xmlns="http://www.w3.org/2000/svg">
<g id="SVGID_00000021811605315644006680000000064717756826091703__3" data-node-id="I1432:14586;185:1438">
<path id="vector_88" data-node-id="I1432:14586;185:1439" d="M84.689,177.7664c0,0 2.23,9.104 11.548,8.656c9.318,-0.449 10.364,-11.654 10.364,-11.654c0,0 7.679,-2.831 14.255,5.873c6.576,8.701 10.228,35.167 10.228,35.167c0,0 35.8,45.083 -6.577,56.947c0,0 -23.014,4.198 -36.164,-5.111l-9.864,-88.305c0,0 1.631,-1.573 6.21,-1.573z" fill="white"/>
</g>
</mask><mask id="mask11_1432_14477" style="mask-type:luminance" maskUnits="userSpaceOnUse" x="78" y="173.39839999999998" width="68" height="101" xmlns="http://www.w3.org/2000/svg">
<g id="SVGID_00000021811605315644006680000000064717756826091703__4" data-node-id="I1432:14586;185:1442">
<path id="vector_90" data-node-id="I1432:14586;185:1443" d="M84.689,177.7664c0,0 2.23,9.104 11.548,8.656c9.318,-0.449 10.364,-11.654 10.364,-11.654c0,0 7.679,-2.831 14.255,5.873c6.576,8.701 10.228,35.167 10.228,35.167c0,0 35.8,45.083 -6.577,56.947c0,0 -23.014,4.198 -36.164,-5.111l-9.864,-88.305c0,0 1.631,-1.573 6.21,-1.573z" fill="white"/>
</g>
</mask><mask id="mask12_1432_14477" style="mask-type:luminance" maskUnits="userSpaceOnUse" x="78" y="173.39839999999998" width="68" height="101" xmlns="http://www.w3.org/2000/svg">
<g id="SVGID_00000021811605315644006680000000064717756826091703__5" data-node-id="I1432:14586;185:1446">
<path id="vector_92" data-node-id="I1432:14586;185:1447" d="M84.689,177.7664c0,0 2.23,9.104 11.548,8.656c9.318,-0.449 10.364,-11.654 10.364,-11.654c0,0 7.679,-2.831 14.255,5.873c6.576,8.701 10.228,35.167 10.228,35.167c0,0 35.8,45.083 -6.577,56.947c0,0 -23.014,4.198 -36.164,-5.111l-9.864,-88.305c0,0 1.631,-1.573 6.21,-1.573z" fill="white"/>
</g>
</mask><mask id="mask13_1432_14477" style="mask-type:luminance" maskUnits="userSpaceOnUse" x="78" y="173.39839999999998" width="68" height="101" xmlns="http://www.w3.org/2000/svg">
<g id="SVGID_00000021811605315644006680000000064717756826091703__6" data-node-id="I1432:14586;185:1450">
<path id="vector_94" data-node-id="I1432:14586;185:1451" d="M84.689,177.7664c0,0 2.23,9.104 11.548,8.656c9.318,-0.449 10.364,-11.654 10.364,-11.654c0,0 7.679,-2.831 14.255,5.873c6.576,8.701 10.228,35.167 10.228,35.167c0,0 35.8,45.083 -6.577,56.947c0,0 -23.014,4.198 -36.164,-5.111l-9.864,-88.305c0,0 1.631,-1.573 6.21,-1.573z" fill="white"/>
</g>
</mask><mask id="mask14_1432_14477" style="mask-type:luminance" maskUnits="userSpaceOnUse" x="78" y="173.39839999999998" width="68" height="101" xmlns="http://www.w3.org/2000/svg">
<g id="SVGID_00000021811605315644006680000000064717756826091703__7" data-node-id="I1432:14586;185:1454">
<path id="vector_96" data-node-id="I1432:14586;185:1455" d="M84.689,177.7664c0,0 2.23,9.104 11.548,8.656c9.318,-0.449 10.364,-11.654 10.364,-11.654c0,0 7.679,-2.831 14.255,5.873c6.576,8.701 10.228,35.167 10.228,35.167c0,0 35.8,45.083 -6.577,56.947c0,0 -23.014,4.198 -36.164,-5.111l-9.864,-88.305c0,0 1.631,-1.573 6.21,-1.573z" fill="white"/>
</g>
</mask></defs><g id="nodding 3-[2=default 2,nodding 2=Default]" xmlns="http://www.w3.org/2000/svg">
<path id="vector_40" opacity="0.39" d="M85.217,293.0004c47.064,0 85.217,-7.869 85.217,-17.575c0,-9.706 -38.153,-17.574 -85.217,-17.574c-47.064,0 -85.217,7.868 -85.217,17.574c0,9.706 38.153,17.575 85.217,17.575z" fill="#7A5FFF"/>
<g id="group_39">
<g id="group_40">
<g id="group_41">
<g id="group_42">
<path id="vector_41" d="M200.384,136.5244c0,0 12.069,-4.218 14.079,-18.335c2.011,-14.117 -13.815,-16.347 -13.815,-16.347c8.789,-5.774 7.922,-17.421 7.922,-17.421c2.451,-20.88 -13.491,-23.507 -13.491,-23.507c0,0 6.961,-6.715 5.201,-16.716c-3.42,-19.444 -22.396,-16.591 -22.396,-16.591c-0.874,-9.961 -7.415,-18.468 -16.66,-21.05c-0.14,-0.04 -0.28,-0.078 -0.42,-0.114c-9.449,-2.529 -19.471,1.705 -24.992,10.212l-0.775,1.196c-0.22,-1.239 -0.691,-2.537 -1.292,-3.81c-3.105,-6.578 -8.993,-11.227 -15.813,-13.075c-16.205,-4.392 -25.406,7.614 -25.406,7.614c-5.822,-9.151 -21.674,-7.737 -21.674,-7.737c-35,4.479 -30.385,40.752 -30.385,40.752c0,0 -14.696,-12.061 -27.795,10.595c-13.1,22.654 5.535,41.328 5.535,41.328c-3.258,0.932 -6.849,6.893 -6.849,6.893c-10.106,23.129 18.686,33.134 18.686,33.134c-13.024,22.699 16.129,25.13 16.129,25.13c1.62,13.205 12.815,3.958 12.815,3.958c-2.269,16.012 10.273,9.85 10.273,9.85c1.835,9.81 10.9,0.55 10.9,0.55l1.677,-0.14c-0.176,4.038 2.667,7.656 6.758,8.298c3.61,0.566 7.004,-1.379 8.495,-4.519c1.709,3.768 5.452,6.708 10.157,7.447c7.006,1.099 13.491,-3.085 14.648,-9.373c1.083,1.981 3.016,3.473 5.421,3.849c3.263,0.513 6.339,-1.17 7.803,-3.934c4.263,12.577 15.033,4.012 15.033,4.012c8.324,7.376 13.099,-2.496 13.099,-2.496c0,0 7.465,7.465 17.56,-3.53c5.659,-6.165 1.966,-17.789 1.966,-17.789c0,0 9.209,8.825 17.44,0.653c9.101,-9.04 0.166,-18.987 0.166,-18.987z" fill="#1A0000" stroke="#1A0000" stroke-width="0.9416" stroke-miterlimit="10" stroke-linecap="round"/>
<g id="group_43">
<g id="group_44">
<path id="vector_42" d="M25.931,18.1934c2.237,-0.154 5.056,0 5.118,2.884c0.024,1.143 -0.394,2.453 -0.974,3.428c-0.318,0.534 -0.686,1.083 -1.32,1.286c-1.176,0.378 -1.762,-0.883 -1.202,-1.784c1.187,-1.908 4.479,-1.618 5.771,-0.045c1.278,1.553 0.515,4.172 -1.447,4.693c0.193,0.333 0.388,0.666 0.582,1c1.541,-1.193 3.543,0.119 3.949,1.766c0.219,0.887 0.088,1.836 -0.228,2.684c-0.222,0.594 -0.589,1.13 -0.51,1.795c0.149,1.245 1.613,2.192 2.27,3.174c0.922,1.381 1.499,2.914 1.796,4.542c0.138,0.756 1.291,0.435 1.154,-0.318c-0.351,-1.926 -1.1,-3.747 -2.266,-5.325c-0.814,-1.101 -1.833,-1.591 -1.437,-3.198c0.221,-0.895 0.547,-1.628 0.516,-2.579c-0.1,-3.073 -3.391,-5.476 -6.091,-3.387c-0.495,0.383 0.05,1.141 0.582,0.999c2.294,-0.611 3.512,-3.264 2.709,-5.461c-0.867,-2.377 -3.828,-3.337 -6.108,-2.598c-1.15,0.373 -2.308,1.215 -2.614,2.444c-0.262,1.055 0.175,2.265 1.215,2.698c2.871,1.198 4.555,-2.922 4.8,-5.052c0.175,-1.514 -0.209,-3.058 -1.48,-3.997c-1.36,-1.004 -3.179,-0.951 -4.783,-0.842c-0.766,0.05 -0.772,1.245 -0.002,1.193z" fill="#1A0000"/>
</g>
</g>
<g id="group_45">
<g id="group_46">
<path id="vector_43" d="M214.724,47.2704c-2.41,-1.564 -5.628,-2.632 -7.429,0.353c-1.161,1.924 -1.935,6.038 0.521,7.319c1.006,0.524 2.154,0.217 2.8,-0.7c0.764,-1.084 0.503,-2.496 -0.185,-3.547c-1.368,-2.09 -4.408,-3.086 -6.629,-1.745c-2.197,1.327 -2.638,4.673 -0.785,6.454c0.524,0.502 1.192,-0.129 0.94,-0.725c-1.383,-3.267 -5.707,-2.251 -7.075,0.43c-0.389,0.759 -0.494,1.528 -0.65,2.349c-0.262,1.386 -1.629,1.437 -2.71,1.918c-1.817,0.81 -3.386,2.049 -4.643,3.584c-0.484,0.59 0.357,1.441 0.846,0.845c1.075,-1.311 2.36,-2.389 3.88,-3.15c1.114,-0.557 3.03,-0.671 3.605,-1.949c0.25,-0.554 0.176,-1.206 0.297,-1.791c0.168,-0.817 0.53,-1.625 1.121,-2.224c1.275,-1.293 3.541,-1.194 4.298,0.592c0.313,-0.241 0.625,-0.483 0.94,-0.723c-1.311,-1.26 -0.994,-3.615 0.542,-4.578c1.886,-1.182 5.004,0.095 5.426,2.315c0.14,0.742 -0.123,1.918 -1.234,1.681c-0.941,-0.2 -1.128,-1.389 -1.148,-2.159c-0.026,-0.975 0.172,-2.013 0.544,-2.914c0.439,-1.065 1.211,-1.982 2.441,-2.073c1.342,-0.098 2.615,0.773 3.688,1.469c0.642,0.421 1.243,-0.613 0.599,-1.031z" fill="#1A0000"/>
</g>
</g>
</g>
<path id="vector_44" d="M50.721,151.7754l-2.707,-4.149l-2.907,3.607l0.686,-5.715l-3.171,-1.99l3.993,-0.189l1.921,-4.12l1.194,4.357l4.071,0.804l-3.208,1.766z" fill="white" stroke="white" stroke-width="0.2243" stroke-miterlimit="10" stroke-linecap="round"/>
<path id="vector_45" d="M47.839,106.0254c0,0 -0.019,-60.118 57.943,-55.016c54.941,4.837 44.617,78.863 30.109,86.316l-0.969,1.896c0,0 8.911,-43.598 -10.434,-65.381c-12.606,-14.195 -33.808,-16.074 -49.249,-5.025c-8.045,5.757 -19.857,21.294 -27.4,37.21z" fill="#FFD44D" stroke="#FFD44D" stroke-width="0.8587" stroke-miterlimit="10"/>
</g>
<path id="vector_46" d="M88.466,167.0494l0.801,10.719h-6.163c-0.745,0 -1.225,0.786 -0.885,1.449l8.268,16.082h10.62l8.961,-18.799c0.418,-0.879 -0.252,-1.885 -1.223,-1.839l-5.488,0.264v-8.941z" fill="#B44A24" stroke="#B44A24" stroke-width="0.4592" stroke-miterlimit="10"/>
</g>
<g id="group_47">
<g id="Clip path group_5">
<mask id="mask4_1432_14477" style="mask-type:luminance" maskUnits="userSpaceOnUse" x="376" y="530" width="114" height="99">
<g id="SVGID_00000165928890544357328630000010163460873986055059__5">
<path id="vector_47" d="M487.389 587.152C484.628 584.218 480.695 584.359 477.187 585.732C475.399 586.431 473.725 587.397 472.119 588.44C471.155 589.065 469.236 591.342 468.059 591.095C467.248 590.926 467.121 589.586 466.873 588.947C464.691 583.343 459.992 578.142 456.227 573.534C452.002 568.368 447.491 563.445 442.998 558.515C435.332 550.103 428.281 540.858 423.576 530.438C422.107 531.756 419.159 534.41 418.551 535.042C412.685 541.143 406.293 546.83 399.403 551.755C396.207 554.039 392.88 556.166 389.336 557.868C386.181 559.383 382.749 560.64 379.208 560.674C379.185 560.674 379.17 560.664 379.147 560.662C378.342 563.224 377.712 565.867 377.28 568.582C372.141 600.865 388.717 623.105 418.57 627.79C436.191 630.555 453.159 623.352 464.171 610.249C468.464 614.599 476.897 613.228 483.252 607.052C489.74 600.749 492.099 592.163 487.389 587.152Z" fill="white"/>
</g>
</mask>
<g mask="url(#mask4_1432_14477)">
<path id="vector_48" d="M155.389,130.5504c-2.761,-2.934 -6.694,-2.793 -10.202,-1.42c-1.788,0.699 -3.462,1.665 -5.068,2.708c-0.964,0.625 -2.883,2.902 -4.06,2.655c-0.811,-0.169 -0.938,-1.509 -1.186,-2.148c-2.182,-5.604 -6.881,-10.805 -10.646,-15.413c-4.225,-5.166 -8.736,-10.089 -13.229,-15.019c-7.666,-8.412 -14.717,-17.657 -19.422,-28.077c-1.469,1.318 -4.417,3.972 -5.025,4.604c-5.866,6.101 -12.258,11.788 -19.148,16.713c-3.196,2.284 -6.523,4.411 -10.067,6.113c-3.155,1.515 -6.587,2.772 -10.128,2.806c-0.023,0 -0.038,-0.01 -0.061,-0.012c-0.805,2.562 -1.435,5.205 -1.867,7.92c-5.139,32.283 11.437,54.523 41.29,59.208c17.621,2.765 34.589,-4.438 45.601,-17.541c4.293,4.35 12.726,2.979 19.081,-3.197c6.488,-6.303 8.847,-14.889 4.137,-19.9z" fill="#CD5428" stroke="#CD5428" stroke-width="0.8842" stroke-miterlimit="10"/>
</g>
</g>
<g id="Clip path group_6">
<mask id="mask5_1432_14477" style="mask-type:luminance" maskUnits="userSpaceOnUse" x="376" y="530" width="114" height="99">
<g id="SVGID_00000165928890544357328630000010163460873986055059__6">
<path id="vector_49" d="M487.389 587.152C484.628 584.218 480.695 584.359 477.187 585.732C475.399 586.431 473.725 587.397 472.119 588.44C471.155 589.065 469.236 591.342 468.059 591.095C467.248 590.926 467.121 589.586 466.873 588.947C464.691 583.343 459.992 578.142 456.227 573.534C452.002 568.368 447.491 563.445 442.998 558.515C435.332 550.103 428.281 540.858 423.576 530.438C422.107 531.756 419.159 534.41 418.551 535.042C412.685 541.143 406.293 546.83 399.403 551.755C396.207 554.039 392.88 556.166 389.336 557.868C386.181 559.383 382.749 560.64 379.208 560.674C379.185 560.674 379.17 560.664 379.147 560.662C378.342 563.224 377.712 565.867 377.28 568.582C372.141 600.865 388.717 623.105 418.57 627.79C436.191 630.555 453.159 623.352 464.171 610.249C468.464 614.599 476.897 613.228 483.252 607.052C489.74 600.749 492.099 592.163 487.389 587.152Z" fill="white"/>
</g>
</mask>
<g mask="url(#mask5_1432_14477)">
<path id="vector_50" opacity="0.49" d="M118.624,154.6324c-2.61,7.373 -10.706,11.234 -18.084,8.626c-7.377,-2.608 -11.242,-10.699 -8.631,-18.072c2.61,-7.372 10.706,-11.234 18.084,-8.625c7.377,2.608 11.241,10.699 8.631,18.071z" fill="#8B2A0C" stroke="#8B2A0C" stroke-width="1.0645" stroke-miterlimit="10"/>
</g>
</g>
<g id="Clip path group_7">
<mask id="mask6_1432_14477" style="mask-type:luminance" maskUnits="userSpaceOnUse" x="376" y="530" width="114" height="99">
<g id="SVGID_00000165928890544357328630000010163460873986055059__7">
<path id="vector_51" d="M487.389 587.152C484.628 584.218 480.695 584.359 477.187 585.732C475.399 586.431 473.725 587.397 472.119 588.44C471.155 589.065 469.236 591.342 468.059 591.095C467.248 590.926 467.121 589.586 466.873 588.947C464.691 583.343 459.992 578.142 456.227 573.534C452.002 568.368 447.491 563.445 442.998 558.515C435.332 550.103 428.281 540.858 423.576 530.438C422.107 531.756 419.159 534.41 418.551 535.042C412.685 541.143 406.293 546.83 399.403 551.755C396.207 554.039 392.88 556.166 389.336 557.868C386.181 559.383 382.749 560.64 379.208 560.674C379.185 560.674 379.17 560.664 379.147 560.662C378.342 563.224 377.712 565.867 377.28 568.582C372.141 600.865 388.717 623.105 418.57 627.79C436.191 630.555 453.159 623.352 464.171 610.249C468.464 614.599 476.897 613.228 483.252 607.052C489.74 600.749 492.099 592.163 487.389 587.152Z" fill="white"/>
</g>
</mask>
<g mask="url(#mask6_1432_14477)">
<path id="vector_52" opacity="0.49" d="M62.371,143.0814c-2.335,6.597 -9.581,10.055 -16.185,7.719c-6.602,-2.334 -10.062,-9.575 -7.725,-16.174c2.335,-6.598 9.582,-10.055 16.186,-7.72c6.602,2.334 10.06,9.575 7.724,16.175z" fill="#8B2A0C" stroke="#8B2A0C" stroke-width="0.9527" stroke-miterlimit="10"/>
</g>
</g>
<g id="Clip path group_8">
<mask id="mask7_1432_14477" style="mask-type:luminance" maskUnits="userSpaceOnUse" x="376" y="530" width="114" height="99">
<g id="SVGID_00000165928890544357328630000010163460873986055059__8">
<path id="vector_53" d="M487.389 587.152C484.628 584.218 480.695 584.359 477.187 585.732C475.399 586.431 473.725 587.397 472.119 588.44C471.155 589.065 469.236 591.342 468.059 591.095C467.248 590.926 467.121 589.586 466.873 588.947C464.691 583.343 459.992 578.142 456.227 573.534C452.002 568.368 447.491 563.445 442.998 558.515C435.332 550.103 428.281 540.858 423.576 530.438C422.107 531.756 419.159 534.41 418.551 535.042C412.685 541.143 406.293 546.83 399.403 551.755C396.207 554.039 392.88 556.166 389.336 557.868C386.181 559.383 382.749 560.64 379.208 560.674C379.185 560.674 379.17 560.664 379.147 560.662C378.342 563.224 377.712 565.867 377.28 568.582C372.141 600.865 388.717 623.105 418.57 627.79C436.191 630.555 453.159 623.352 464.171 610.249C468.464 614.599 476.897 613.228 483.252 607.052C489.74 600.749 492.099 592.163 487.389 587.152Z" fill="white"/>
</g>
</mask>
<g mask="url(#mask7_1432_14477)">
<g id="group_48">
<g id="group_49">
<path id="vector_54" d="M143.024,160.9904l-2.706,-4.15l-2.908,3.608l0.685,-5.717l-3.171,-1.991l3.994,-0.186l1.92,-4.121l1.196,4.357l4.07,0.805l-3.208,1.766z" fill="white" stroke="white" stroke-width="0.2243" stroke-miterlimit="10" stroke-linecap="round"/>
<g id="group_50">
<g id="group_51">
<path id="vector_55" d="M140.213,136.5854c2.085,-1.878 4.495,-3.509 7.374,-4.26c1.422,-0.366 3.073,-0.446 4.604,0.248c1.516,0.736 2.599,2.089 2.984,3.769c0.315,1.695 -0.221,3.257 -0.872,4.576c-0.699,1.318 -1.553,2.497 -2.513,3.562c-1.905,2.141 -4.125,3.928 -6.516,5.416c1.957,-2.017 3.809,-4.1 5.448,-6.28c0.788,-1.11 1.553,-2.229 2.08,-3.423c0.537,-1.171 0.89,-2.429 0.65,-3.511c-0.19,-1.043 -1.008,-2.122 -1.992,-2.619c-1.007,-0.552 -2.31,-0.58 -3.6,-0.399c-2.601,0.44 -5.186,1.597 -7.647,2.921z" fill="#8B2A0C"/>
</g>
<g id="group_52">
<path id="vector_56" d="M132.065,153.7694c0.644,-0.868 1.13,-1.835 1.591,-2.8c0.452,-0.972 0.855,-1.969 1.199,-2.986c0.73,-2.02 1.261,-4.107 1.791,-6.204c-0.128,1.074 -0.299,2.144 -0.541,3.202c-0.248,1.055 -0.54,2.101 -0.896,3.126c-0.748,2.027 -1.653,4.069 -3.144,5.662z" fill="#8B2A0C"/>
</g>
</g>
</g>
<g id="group_53">
<g id="group_54">
<path id="vector_57" d="M91.433,71.7814c-1.908,0.863 -3.708,2.192 -4.525,4.186c-0.684,1.667 -0.615,3.773 0.639,5.164c1.085,1.203 3.156,1.758 4.37,0.423c0.929,-1.022 0.95,-2.807 -0.345,-3.533c-1.653,-0.927 -4.025,-0.1 -5.326,1.07c-1.415,1.274 -2.035,3.326 -1.622,5.177c0.373,1.674 1.885,3.257 3.723,2.66c1.49,-0.483 1.993,-2.588 0.438,-3.34c-1.779,-0.862 -3.824,0.5 -4.562,2.116c-0.986,2.156 0.118,4.535 1.543,6.19c0.475,0.552 1.271,-0.25 0.8,-0.799c-1.023,-1.188 -1.911,-2.847 -1.482,-4.461c0.186,-0.7 0.644,-1.341 1.249,-1.745c0.399,-0.266 2.459,-0.973 2.283,0.337c-0.138,1.025 -1.624,0.704 -2.1,0.267c-0.615,-0.564 -0.861,-1.457 -0.887,-2.266c-0.05,-1.576 0.781,-3.081 2.155,-3.858c0.881,-0.499 3.948,-1.246 3.669,0.659c-0.279,1.899 -2.616,1.11 -3.336,-0.014c-1.973,-3.082 1.339,-6.105 3.892,-7.26c0.658,-0.297 0.084,-1.27 -0.576,-0.973z" fill="#1A0000"/>
</g>
</g>
<g id="group_55">
<g id="group_56">
<g id="group_57">
<g id="group_58">
<path id="vector_58" d="M72.184,128.9474c0.463,-1.359 1.292,-2.641 2.493,-3.572c1.176,-0.942 2.8,-1.472 4.353,-1.274c0.765,0.087 1.542,0.304 2.242,0.694c0.679,0.425 1.271,0.991 1.662,1.668c0.806,1.343 0.938,2.903 0.692,4.312c-0.221,-1.409 -0.685,-2.76 -1.475,-3.782c-0.789,-1.029 -1.954,-1.578 -3.246,-1.687c-1.274,-0.179 -2.551,0.178 -3.691,0.844c-1.135,0.687 -2.158,1.661 -3.03,2.797z" fill="#8B2A0C"/>
</g>
</g>
<g id="group_59" opacity="0.53">
<g id="group_60">
<path id="vector_59" d="M72.265,128.9624c0,0 2.696,-5.106 7.609,-3.863c4.218,1.067 3.755,6.121 3.755,6.121" fill="#8B2A0C"/>
<path id="vector_60" d="M72.265,128.9624c0.513,-1.339 1.392,-2.589 2.625,-3.475c1.211,-0.895 2.854,-1.365 4.398,-1.108c0.762,0.116 1.529,0.361 2.215,0.779c0.663,0.449 1.233,1.039 1.598,1.728c0.756,1.372 0.827,2.938 0.528,4.334c-0.167,-1.415 -0.58,-2.784 -1.332,-3.834c-0.749,-1.058 -1.893,-1.65 -3.18,-1.809c-1.266,-0.228 -2.556,0.081 -3.721,0.705c-1.159,0.645 -2.218,1.579 -3.131,2.68z" fill="#8B2A0C"/>
</g>
</g>
</g>
<g id="group_61">
<path id="vector_61" d="M47.343,114.9584c-0.447,7.364 5.207,13.687 12.627,14.12c7.421,0.433 13.799,-5.184 14.244,-12.548c0.448,-7.364 -5.206,-13.687 -12.627,-14.12c-7.419,-0.435 -13.796,5.184 -14.244,12.548z" fill="white"/>
<path id="vector_62" d="M53.883,112.4364c-1.005,5.584 2.329,10.915 7.449,11.907c5.12,0.993 10.084,-2.731 11.091,-8.313c1.008,-5.583 -2.328,-10.915 -7.448,-11.907c-5.12,-0.993 -10.086,2.729 -11.092,8.313z" fill="#280707" stroke="#280707" stroke-width="0.8912" stroke-miterlimit="10"/>
<g id="group_62">
<g id="group_63">
<path id="vector_63" d="M74.533,113.8064c-0.705,-1.47 -1.493,-2.888 -2.446,-4.161c-0.923,-1.288 -1.928,-2.497 -3.101,-3.482c-1.194,-0.955 -2.477,-1.725 -3.837,-2.27c-1.392,-0.458 -2.827,-0.758 -4.315,-0.72c-3.022,-0.009 -5.994,0.839 -8.336,2.638c-2.432,1.733 -4.039,4.584 -4.989,7.557l-0.159,0.499l-0.374,-0.144c-0.888,-0.338 -1.769,-0.699 -2.642,-1.092l0.04,-0.142l2.736,0.746l-0.103,0.069c0.575,-3.219 2.137,-6.33 4.676,-8.457c2.52,-2.133 5.875,-3.167 9.151,-3.119c1.652,-0.007 3.291,0.325 4.827,0.925c1.509,0.663 2.893,1.589 4.085,2.724c2.329,2.327 3.975,5.264 4.93,8.397z" fill="black"/>
</g>
<g id="group_64">
<path id="vector_64" d="M47.474,111.3764l-2.532,-2.049l3.194,0.637z" fill="black"/>
</g>
<g id="group_65">
<path id="vector_65" d="M48.74,108.3884l-2.113,-2.343l2.978,1.045z" fill="black"/>
</g>
</g>
<g id="group_66">
<path id="vector_66" d="M70.451,125.6674c-1.644,1.343 -3.577,2.348 -5.636,2.997c-2.058,0.656 -4.283,0.901 -6.471,0.618c-1.102,-0.116 -2.154,-0.482 -3.198,-0.838c-0.974,-0.521 -1.993,-0.959 -2.812,-1.703c-0.912,-0.613 -1.591,-1.476 -2.309,-2.27c-0.658,-0.846 -1.189,-1.787 -1.721,-2.69c1.462,1.54 2.892,3.05 4.64,4.097c1.682,1.12 3.595,1.836 5.579,2.062c1.978,0.28 4.018,0.123 6.02,-0.295c1.997,-0.449 3.991,-1.084 5.908,-1.978z" fill="black"/>
</g>
</g>
<g id="group_67">
<path id="vector_67" d="M120.191,128.0014c-1.901,7.621 -9.89,12.285 -17.846,10.419c-7.956,-1.868 -12.867,-9.559 -10.969,-17.181c1.9,-7.621 9.889,-12.285 17.847,-10.419c7.957,1.866 12.866,9.558 10.968,17.181z" fill="white"/>
<path id="vector_68" d="M120.154,124.5234c-0.724,5.888 -5.832,10.196 -11.411,9.625c-5.58,-0.572 -9.516,-5.809 -8.792,-11.697c0.723,-5.888 5.831,-10.196 11.411,-9.625c5.579,0.573 9.516,5.809 8.792,11.697z" fill="#280707" stroke="#280707" stroke-width="0.945" stroke-miterlimit="10"/>
<g id="group_68">
<g id="group_69">
<path id="vector_69" d="M91.963,118.8474c1.59,-3.152 4.105,-5.866 7.305,-7.721c1.604,-0.933 3.426,-1.516 5.31,-1.756c1.887,-0.162 3.823,-0.059 5.639,0.468c3.58,0.942 6.916,3.209 9.027,6.382c1.05,1.591 1.598,3.438 1.895,5.242c0.304,1.823 0.233,3.644 -0.207,5.434l-0.436,-0.532c1.014,0.125 2.028,0.273 3.04,0.458l-0.003,0.155l-3.05,-0.071l-0.097,-0.001l0.012,-0.102c0.408,-3.396 -0.302,-7.002 -2.258,-9.834c-1.959,-2.84 -5.049,-4.744 -8.347,-5.671c-1.641,-0.519 -3.375,-0.645 -5.085,-0.544c-1.705,0.196 -3.374,0.67 -4.928,1.414c-3.073,1.554 -5.708,3.953 -7.685,6.763z" fill="black"/>
</g>
<g id="group_70">
<path id="vector_70" d="M120.467,123.1354l3.482,0.352l-3.254,1.286z" fill="black"/>
</g>
<g id="group_71">
<path id="vector_71" d="M119.869,119.8144l3.382,-0.121l-2.921,1.709z" fill="black"/>
</g>
</g>
<g id="group_72">
<path id="vector_72" d="M92.564,132.0264c0.862,0.736 1.724,1.447 2.66,2.054c0.895,0.655 1.84,1.235 2.811,1.744c1.941,1.011 3.985,1.793 6.102,2.109c2.11,0.378 4.288,0.239 6.373,-0.348c2.133,-0.487 4.061,-1.602 6.059,-2.678c-0.839,0.744 -1.685,1.53 -2.632,2.174c-0.995,0.566 -1.973,1.204 -3.09,1.555c-1.068,0.506 -2.249,0.623 -3.407,0.847c-1.174,0.037 -2.363,0.085 -3.525,-0.134c-2.324,-0.383 -4.536,-1.284 -6.447,-2.584c-1.907,-1.291 -3.624,-2.857 -4.904,-4.739z" fill="black"/>
</g>
</g>
<g id="group_73">
<path id="vector_73" opacity="0.49" d="M85.26,136.2024c-0.38,2.399 -2.852,6.703 -8.352,5.955c-3.804,-0.516 -6.275,-4.9 -5.895,-7.3c0,0 3.662,-0.766 7.514,-0.531c2.677,0.164 6.733,1.876 6.733,1.876z" fill="#8B2A0C"/>
<g id="group_74">
<path id="vector_74" d="M68.541,132.6794c1.42,1.219 2.916,2.268 4.479,3.117c1.572,0.829 3.236,1.428 4.939,1.59c1.693,0.187 3.442,0 5.083,-0.644c0.862,-0.219 1.614,-0.725 2.45,-1.084c0.798,-0.431 1.541,-0.968 2.382,-1.415c-0.606,0.702 -1.237,1.417 -1.947,2.049c-0.777,0.537 -1.492,1.218 -2.404,1.574c-1.705,0.948 -3.766,1.272 -5.732,1.077c-1.976,-0.221 -3.848,-0.991 -5.412,-2.111c-1.563,-1.12 -2.912,-2.513 -3.838,-4.153z" fill="#3B130E"/>
</g>
</g>
<g id="group_75">
<path id="vector_75" d="M51.796,98.3694c0.359,-1.768 1.356,-3.39 2.698,-4.64c1.321,-1.289 2.993,-2.192 4.74,-2.781c1.774,-0.506 3.612,-0.706 5.401,-0.525c0.893,0.057 1.764,0.301 2.622,0.486c0.838,0.329 1.671,0.595 2.455,1.011l0.017,0.009c0.038,0.02 0.052,0.067 0.033,0.103c-0.015,0.03 -0.048,0.045 -0.079,0.04l-2.505,-0.344c-0.841,-0.02 -1.682,-0.113 -2.522,-0.075c-1.681,0.043 -3.353,0.296 -4.952,0.788c-3.174,0.99 -6.122,3.056 -7.765,5.995c-0.021,0.038 -0.069,0.052 -0.105,0.03c-0.031,-0.017 -0.045,-0.052 -0.038,-0.083z" fill="#2E2E2E"/>
</g>
<g id="group_76">
<path id="vector_76" d="M122.657,108.4194c-0.962,-1.448 -2.088,-2.626 -3.219,-3.696c-1.163,-1.044 -2.393,-1.949 -3.733,-2.701c-0.677,-0.368 -1.351,-0.744 -2.083,-1.027c-0.693,-0.38 -1.464,-0.572 -2.203,-0.9l-4.778,-1.612l-0.026,-0.009c-0.039,-0.013 -0.06,-0.057 -0.048,-0.096c0.012,-0.033 0.043,-0.054 0.076,-0.052l2.539,0.15c0.836,0.143 1.686,0.218 2.512,0.42c1.66,0.372 3.273,0.952 4.779,1.764c2.935,1.714 5.374,4.424 6.335,7.724c0.012,0.04 -0.012,0.082 -0.052,0.094c-0.033,0.008 -0.066,-0.004 -0.083,-0.031z" fill="#2E2E2E"/>
</g>
</g>
</g>
</g>
</g>
</g>
<g id="group_77">
<g id="group_78">
<path id="vector_77" d="M33.736,263.7844c0,0 11.238,-75.072 37.467,-53.726l0.99,53.726l-12.056,-2.995l-7.535,16.949l-26.969,-4.246c0,0 2.809,-3.162 8.103,-9.708z" fill="#9E332D" stroke="#9E332D" stroke-width="0.7319" stroke-miterlimit="10"/>
<path id="vector_78" opacity="0.49" d="M69.467,214.7714c-0.611,2.366 -4.446,3.431 -8.568,2.38c-4.121,-1.051 -6.966,-3.824 -6.355,-6.19c0.612,-2.367 4.446,-3.432 8.568,-2.381c4.12,1.052 6.965,3.824 6.355,6.191z" fill="#8B2A0C" stroke="#8B2A0C" stroke-width="0.4387" stroke-miterlimit="10"/>
<path id="vector_79" d="M35.933,252.2394c-1.486,6.782 -2.199,11.543 -2.199,11.543c-5.294,6.546 -8.103,9.706 -8.103,9.706l26.97,4.247l7.021,-15.795c-7.78,-3.506 -15.684,-6.734 -23.689,-9.701z" fill="white" stroke="white" stroke-width="0.7319" stroke-miterlimit="10"/>
<path id="vector_80" d="M44.648,265.6594c-2.054,-0.513 -4.105,-1.039 -6.133,-1.649c-1.497,-0.45 -3.002,-1.27 -4.555,-1.626c-0.15,0.898 -0.226,1.398 -0.226,1.398c-5.294,6.546 -8.103,9.707 -8.103,9.707l26.97,4.246l3.926,-8.833c-3.958,-1.093 -7.891,-2.247 -11.879,-3.243z" fill="black" stroke="black" stroke-width="0.7319" stroke-miterlimit="10"/>
</g>
<path id="vector_81" d="M65.468,220.0724c-2.332,13.604 -3.776,27.401 -3.405,41.193l10.13,2.517l-0.99,-53.726c-1.166,-0.949 -2.303,-1.702 -3.413,-2.289c-0.824,4.093 -1.617,8.191 -2.322,12.305z" fill="#7A5FFF" stroke="#7A5FFF" stroke-width="0.6888" stroke-miterlimit="10"/>
<g id="group_79">
<path id="vector_82" d="M78.71,179.3654c0,0 -8.954,-2.277 -8.54,36.02c0.415,38.299 -0.014,51.34 -0.014,51.34c0,0 -11.172,4.14 -8.894,4.761c2.278,0.621 21.959,-1.863 21.959,-1.863c0,0 6.723,-69.142 -4.511,-90.258z" fill="#B44A24" stroke="#B44A24" stroke-width="0.7324" stroke-miterlimit="10"/>
<path id="vector_83" d="M84.238,208.5034c0.138,-0.03 0.275,-0.069 0.415,-0.1c-0.798,-11.908 -2.55,-22.664 -5.942,-29.038c0,0 -7.836,-1.987 -8.508,29.115c4.548,1.202 9.439,1.001 14.035,0.023z" fill="white" stroke="white" stroke-width="0.7324" stroke-miterlimit="10"/>
</g>
<g id="group_80">
<g id="Clip path group_9">
<mask id="mask8_1432_14477" style="mask-type:luminance" maskUnits="userSpaceOnUse" x="410" y="630" width="68" height="101">
<g id="SVGID_00000021811605315644006680000000064717756826091703_">
<path id="vector_84" d="M416.689 634.368C416.689 634.368 418.919 643.472 428.237 643.024C437.555 642.575 438.601 631.37 438.601 631.37C438.601 631.37 446.28 628.539 452.856 637.243C459.432 645.944 463.084 672.41 463.084 672.41C463.084 672.41 498.884 717.493 456.507 729.357C456.507 729.357 433.493 733.555 420.343 724.246L410.479 635.941C410.479 635.941 412.11 634.368 416.689 634.368Z" fill="white"/>
</g>
</mask>
<g mask="url(#mask8_1432_14477)">
<path id="vector_85" d="M84.689,177.7664c0,0 2.23,9.104 11.548,8.656c9.318,-0.449 10.364,-11.654 10.364,-11.654c0,0 7.679,-2.831 14.255,5.873c6.576,8.701 10.228,35.167 10.228,35.167c0,0 35.8,45.083 -6.577,56.947c0,0 -23.014,4.198 -36.164,-5.111l-9.864,-88.305c0,0 1.631,-1.573 6.21,-1.573z" fill="#7A5FFF" stroke="#7A5FFF" stroke-width="0.6888" stroke-miterlimit="10"/>
</g>
</g>
<g id="Clip path group_10">
<mask id="mask9_1432_14477" style="mask-type:luminance" maskUnits="userSpaceOnUse" x="410" y="630" width="68" height="101">
<g id="SVGID_00000021811605315644006680000000064717756826091703__2">
<path id="vector_86" d="M416.689 634.368C416.689 634.368 418.919 643.472 428.237 643.024C437.555 642.575 438.601 631.37 438.601 631.37C438.601 631.37 446.28 628.539 452.856 637.243C459.432 645.944 463.084 672.41 463.084 672.41C463.084 672.41 498.884 717.493 456.507 729.357C456.507 729.357 433.493 733.555 420.343 724.246L410.479 635.941C410.479 635.941 412.11 634.368 416.689 634.368Z" fill="white"/>
</g>
</mask>
<g mask="url(#mask9_1432_14477)">
<path id="vector_87" d="M89.186,219.3574l-5.337,-14.329c-0.047,-0.126 -0.184,-0.216 -0.304,-0.2l-11.431,1.412c-0.231,0.029 -0.425,-0.283 -0.26,-0.421l9.923,-8.315c0.047,-0.038 0.068,-0.1 0.057,-0.17l-1.654,-11.389c-0.033,-0.224 0.245,-0.288 0.405,-0.095l7.454,9.025c0.081,0.098 0.211,0.139 0.308,0.098l10.364,-4.507c0.195,-0.085 0.447,0.169 0.354,0.356l-4.983,9.948c-0.045,0.088 -0.009,0.21 0.082,0.293l9.553,8.519c0.192,0.171 0.095,0.436 -0.138,0.378l-12.09,-2.959c-0.121,-0.029 -0.225,0.031 -0.239,0.143l-1.61,12.265c-0.027,0.226 -0.364,0.188 -0.454,-0.052z" fill="#FFD44D"/>
</g>
</g>
<g id="Clip path group_11">
<mask id="mask10_1432_14477" style="mask-type:luminance" maskUnits="userSpaceOnUse" x="410" y="630" width="68" height="101">
<g id="SVGID_00000021811605315644006680000000064717756826091703__3">
<path id="vector_88" d="M416.689 634.368C416.689 634.368 418.919 643.472 428.237 643.024C437.555 642.575 438.601 631.37 438.601 631.37C438.601 631.37 446.28 628.539 452.856 637.243C459.432 645.944 463.084 672.41 463.084 672.41C463.084 672.41 498.884 717.493 456.507 729.357C456.507 729.357 433.493 733.555 420.343 724.246L410.479 635.941C410.479 635.941 412.11 634.368 416.689 634.368Z" fill="white"/>
</g>
</mask>
<g mask="url(#mask10_1432_14477)">
<path id="vector_89" d="M129.818,246.5884l0.964,-15.229c0.008,-0.134 -0.08,-0.272 -0.197,-0.309l-11.031,-3.469c-0.225,-0.071 -0.273,-0.435 -0.068,-0.49l12.469,-3.424c0.058,-0.015 0.102,-0.063 0.121,-0.129l3.133,-11.029c0.062,-0.217 0.342,-0.16 0.41,0.083l3.136,11.291c0.035,0.123 0.137,0.216 0.241,0.218l11.319,0.217c0.214,0.005 0.342,0.34 0.18,0.47l-8.616,6.96c-0.076,0.062 -0.095,0.186 -0.044,0.3l5.264,11.705c0.105,0.237 -0.09,0.435 -0.282,0.287l-9.851,-7.711c-0.099,-0.078 -0.218,-0.064 -0.276,0.031l-6.475,10.466c-0.119,0.192 -0.413,0.015 -0.397,-0.238z" fill="#FFD44D"/>
</g>
</g>
<g id="Clip path group_12">
<mask id="mask11_1432_14477" style="mask-type:luminance" maskUnits="userSpaceOnUse" x="410" y="630" width="68" height="101">
<g id="SVGID_00000021811605315644006680000000064717756826091703__4">
<path id="vector_90" d="M416.689 634.368C416.689 634.368 418.919 643.472 428.237 643.024C437.555 642.575 438.601 631.37 438.601 631.37C438.601 631.37 446.28 628.539 452.856 637.243C459.432 645.944 463.084 672.41 463.084 672.41C463.084 672.41 498.884 717.493 456.507 729.357C456.507 729.357 433.493 733.555 420.343 724.246L410.479 635.941C410.479 635.941 412.11 634.368 416.689 634.368Z" fill="white"/>
</g>
</mask>
<g mask="url(#mask11_1432_14477)">
<path id="vector_91" d="M88.822,275.4554l-7.547,-13.294c-0.066,-0.117 -0.215,-0.183 -0.334,-0.148l-11.04,3.255c-0.224,0.066 -0.464,-0.21 -0.324,-0.374l8.452,-9.831c0.04,-0.046 0.05,-0.11 0.029,-0.176l-3.448,-10.987c-0.067,-0.216 0.196,-0.325 0.384,-0.159l8.787,7.706c0.097,0.084 0.231,0.103 0.318,0.048l9.495,-6.14c0.18,-0.116 0.468,0.093 0.406,0.294l-3.323,10.641c-0.03,0.095 0.024,0.209 0.128,0.277l10.775,6.865c0.218,0.138 0.164,0.414 -0.076,0.397l-12.387,-0.957c-0.124,-0.01 -0.216,0.068 -0.213,0.18l0.372,12.382c0.012,0.226 -0.328,0.243 -0.454,0.021z" fill="#FFD44D"/>
</g>
</g>
<g id="Clip path group_13">
<mask id="mask12_1432_14477" style="mask-type:luminance" maskUnits="userSpaceOnUse" x="410" y="630" width="68" height="101">
<g id="SVGID_00000021811605315644006680000000064717756826091703__5">
<path id="vector_92" d="M416.689 634.368C416.689 634.368 418.919 643.472 428.237 643.024C437.555 642.575 438.601 631.37 438.601 631.37C438.601 631.37 446.28 628.539 452.856 637.243C459.432 645.944 463.084 672.41 463.084 672.41C463.084 672.41 498.884 717.493 456.507 729.357C456.507 729.357 433.493 733.555 420.343 724.246L410.479 635.941C410.479 635.941 412.11 634.368 416.689 634.368Z" fill="white"/>
</g>
</mask>
<g mask="url(#mask12_1432_14477)">
<path id="vector_93" d="M112.153,192.6124l0.351,-5.533c0.003,-0.048 -0.03,-0.098 -0.073,-0.112l-4.008,-1.26c-0.081,-0.026 -0.098,-0.157 -0.024,-0.178l4.53,-1.243c0.02,-0.005 0.036,-0.022 0.043,-0.046l1.138,-4.007c0.022,-0.079 0.124,-0.059 0.149,0.029l1.14,4.102c0.012,0.045 0.05,0.078 0.088,0.079l4.111,0.08c0.078,0.001 0.124,0.122 0.066,0.171l-3.13,2.528c-0.028,0.023 -0.035,0.068 -0.016,0.109l1.912,4.252c0.038,0.086 -0.033,0.159 -0.102,0.103l-3.579,-2.801c-0.036,-0.028 -0.079,-0.023 -0.1,0.01l-2.353,3.801c-0.043,0.073 -0.148,0.009 -0.143,-0.084z" fill="#FFD44D"/>
</g>
</g>
<g id="Clip path group_14">
<mask id="mask13_1432_14477" style="mask-type:luminance" maskUnits="userSpaceOnUse" x="410" y="630" width="68" height="101">
<g id="SVGID_00000021811605315644006680000000064717756826091703__6">
<path id="vector_94" d="M416.689 634.368C416.689 634.368 418.919 643.472 428.237 643.024C437.555 642.575 438.601 631.37 438.601 631.37C438.601 631.37 446.28 628.539 452.856 637.243C459.432 645.944 463.084 672.41 463.084 672.41C463.084 672.41 498.884 717.493 456.507 729.357C456.507 729.357 433.493 733.555 420.343 724.246L410.479 635.941C410.479 635.941 412.11 634.368 416.689 634.368Z" fill="white"/>
</g>
</mask>
<g mask="url(#mask13_1432_14477)">
<path id="vector_95" d="M104.559,237.0924l-1.249,-5.412c-0.01,-0.048 -0.055,-0.086 -0.1,-0.086l-4.187,-0.042c-0.085,-0.001 -0.14,-0.122 -0.075,-0.164l3.97,-2.513c0.019,-0.012 0.029,-0.033 0.029,-0.057l-0.059,-4.177c-0.001,-0.083 0.102,-0.092 0.151,-0.016l2.261,3.605c0.024,0.039 0.069,0.06 0.105,0.05l3.949,-1.124c0.074,-0.021 0.154,0.083 0.111,0.145l-2.267,3.338c-0.02,0.03 -0.013,0.076 0.016,0.109l3.042,3.523c0.06,0.071 0.014,0.161 -0.068,0.13l-4.218,-1.645c-0.043,-0.018 -0.083,0 -0.093,0.039l-1.159,4.335c-0.019,0.083 -0.138,0.053 -0.159,-0.038z" fill="#FFD44D"/>
</g>
</g>
<g id="Clip path group_15">
<mask id="mask14_1432_14477" style="mask-type:luminance" maskUnits="userSpaceOnUse" x="410" y="630" width="68" height="101">
<g id="SVGID_00000021811605315644006680000000064717756826091703__7">
<path id="vector_96" d="M416.689 634.368C416.689 634.368 418.919 643.472 428.237 643.024C437.555 642.575 438.601 631.37 438.601 631.37C438.601 631.37 446.28 628.539 452.856 637.243C459.432 645.944 463.084 672.41 463.084 672.41C463.084 672.41 498.884 717.493 456.507 729.357C456.507 729.357 433.493 733.555 420.343 724.246L410.479 635.941C410.479 635.941 412.11 634.368 416.689 634.368Z" fill="white"/>
</g>
</mask>
<g mask="url(#mask14_1432_14477)">
<path id="vector_97" d="M121.625,275.2394l0.351,-5.533c0.003,-0.048 -0.029,-0.098 -0.071,-0.112l-4.007,-1.26c-0.082,-0.026 -0.099,-0.157 -0.025,-0.178l4.53,-1.243c0.02,-0.005 0.038,-0.022 0.045,-0.046l1.138,-4.007c0.022,-0.079 0.124,-0.058 0.148,0.03l1.141,4.101c0.012,0.045 0.05,0.078 0.086,0.08l4.111,0.079c0.078,0.002 0.124,0.123 0.066,0.171l-3.13,2.529c-0.028,0.022 -0.035,0.067 -0.016,0.108l1.912,4.252c0.038,0.086 -0.033,0.159 -0.102,0.104l-3.579,-2.802c-0.036,-0.028 -0.079,-0.024 -0.1,0.01l-2.351,3.801c-0.047,0.071 -0.154,0.009 -0.147,-0.084z" fill="#FFD44D"/>
</g>
</g>
</g>
<g id="group_81">
<path id="vector_98" d="M93.104,214.7714c0,0 2.376,-25.878 13.493,-40.003c0,0 9.893,-3.148 16.099,8.855c0.881,1.706 0.802,3.758 -0.266,5.355l-18.284,27.369z" fill="#9E332D" stroke="#9E332D" stroke-width="0.7319" stroke-miterlimit="10"/>
<path id="vector_99" d="M107.776,199.1614c2.413,0.533 4.999,0.597 7.512,0.507l7.143,-10.69c1.067,-1.597 1.147,-3.647 0.266,-5.355c-6.207,-12.003 -16.099,-8.855 -16.099,-8.855c-4.241,5.388 -7.205,12.482 -9.256,19.2c3.173,2.291 6.476,4.319 10.434,5.193z" fill="white" stroke="white" stroke-width="0.7324" stroke-miterlimit="10"/>
</g>
<g id="group_82">
<path id="vector_100" d="M70.45,268.9374c0,0 8.058,-74.351 35.334,-67.203c0,0 10.107,3.432 21.552,29.453c0,0 -2.004,22.875 -34.77,38.865l-9.404,11.039l-12.987,-0.789z" fill="#CD5428" stroke="#CD5428" stroke-width="0.9305" stroke-miterlimit="10"/>
<path id="vector_101" d="M97.407,259.2084c-0.109,0.015 -0.228,0.008 -0.359,-0.04c-7.881,-2.826 -17.108,-1.957 -25.307,-2.865c-1.288,7.325 -1.974,12.394 -1.974,12.394l0.406,11.605l12.987,0.789l9.403,-11.039c0.36,-0.175 0.693,-0.356 1.045,-0.532c0.469,-1.431 0.938,-2.86 1.522,-4.255c0.835,-1.989 1.807,-3.919 2.507,-5.961c-0.076,-0.031 -0.152,-0.065 -0.23,-0.096z" fill="white"/>
<g id="group_83">
<path id="vector_102" d="M92.907,270.8654c1.444,-3.729 2.926,-7.444 4.455,-11.136l4.65,-11.053l4.817,-10.98c1.628,-3.651 3.302,-7.281 5.015,-10.896c-1.444,3.731 -2.924,7.444 -4.455,11.136l-4.65,11.051l-4.819,10.98c-1.626,3.651 -3.301,7.283 -5.013,10.898z" fill="#8B2A0C"/>
</g>
<g id="group_84">
<path id="vector_103" d="M70.617,268.6674c-0.052,0 -0.088,-0.019 -0.134,-0.027c-0.021,0.188 -0.033,0.297 -0.033,0.297l-0.277,11.366l17.663,1.428l4.465,-11.369c-6.885,-2.142 -14.626,-1.698 -21.684,-1.695z" fill="black" stroke="black" stroke-width="0.9305" stroke-miterlimit="10"/>
<g id="vector_104">
<path d="M70.174,275.6004c0,0 -7.897,5.618 -7.372,5.492c0.523,-0.126 20.359,0 20.359,0" fill="black"/>
<path d="M70.174,275.6004c0,0 -7.897,5.618 -7.372,5.492c0.523,-0.126 20.359,0 20.359,0" stroke="black" stroke-width="0.9305" stroke-miterlimit="10"/>
</g>
</g>
<path id="vector_105" opacity="0.49" d="M106.448,211.0134c-0.114,2.44 -3.65,4.267 -7.9,4.079c-4.249,-0.189 -7.6,-2.32 -7.486,-4.761c0.114,-2.441 3.652,-4.267 7.899,-4.079c4.25,0.186 7.601,2.318 7.487,4.761z" fill="#8B2A0C" stroke="#8B2A0C" stroke-width="0.4387" stroke-miterlimit="10"/>
</g>
</g>
</g>
</g></svg>