<svg viewBox="0 0 215 293" x="0" y="0" fill="none" xmlns="http://www.w3.org/2000/svg"><defs><mask id="mask4_1432_14588" style="mask-type:luminance" maskUnits="userSpaceOnUse" x="44" y="145.39839999999998" width="89" height="87" xmlns="http://www.w3.org/2000/svg">
<g id="SVGID_00000155853510008029307610000012987496748626437795_" data-node-id="I1432:14695;149:6949">
<path id="Vector_82" data-node-id="I1432:14695;149:6950" d="M92.939,150.0324c0,0 -1.804,10.098 8.602,11.657c10.753,1.611 13.657,-8.051 13.657,-8.051l9.272,2.213c0,0 2.515,65.315 8.335,73.081c0,0 -44.117,11.639 -88.402,-8.043l40.744,-75.163z" fill="white"/>
</g>
</mask><mask id="mask5_1432_14588" style="mask-type:luminance" maskUnits="userSpaceOnUse" x="44" y="145.39839999999998" width="89" height="87" xmlns="http://www.w3.org/2000/svg">
<g id="SVGID_00000155853510008029307610000012987496748626437795__2" data-node-id="I1432:14695;149:6953">
<path id="Vector_84" data-node-id="I1432:14695;149:6954" d="M92.939,150.0324c0,0 -1.804,10.098 8.602,11.657c10.753,1.611 13.657,-8.051 13.657,-8.051l9.272,2.213c0,0 2.515,65.315 8.335,73.081c0,0 -44.117,11.639 -88.402,-8.043l40.744,-75.163z" fill="white"/>
</g>
</mask><mask id="mask6_1432_14588" style="mask-type:luminance" maskUnits="userSpaceOnUse" x="44" y="145.39839999999998" width="89" height="87" xmlns="http://www.w3.org/2000/svg">
<g id="SVGID_00000155853510008029307610000012987496748626437795__3" data-node-id="I1432:14695;149:6957">
<path id="Vector_86" data-node-id="I1432:14695;149:6958" d="M92.939,150.0324c0,0 -1.804,10.098 8.602,11.657c10.753,1.611 13.657,-8.051 13.657,-8.051l9.272,2.213c0,0 2.515,65.315 8.335,73.081c0,0 -44.117,11.639 -88.402,-8.043l40.744,-75.163z" fill="white"/>
</g>
</mask><mask id="mask7_1432_14588" style="mask-type:luminance" maskUnits="userSpaceOnUse" x="44" y="145.39839999999998" width="89" height="87" xmlns="http://www.w3.org/2000/svg">
<g id="SVGID_00000155853510008029307610000012987496748626437795__4" data-node-id="I1432:14695;149:6961">
<path id="Vector_88" data-node-id="I1432:14695;149:6962" d="M92.939,150.0324c0,0 -1.804,10.098 8.602,11.657c10.753,1.611 13.657,-8.051 13.657,-8.051l9.272,2.213c0,0 2.515,65.315 8.335,73.081c0,0 -44.117,11.639 -88.402,-8.043l40.744,-75.163z" fill="white"/>
</g>
</mask><mask id="mask8_1432_14588" style="mask-type:luminance" maskUnits="userSpaceOnUse" x="44" y="145.39839999999998" width="89" height="87" xmlns="http://www.w3.org/2000/svg">
<g id="SVGID_00000155853510008029307610000012987496748626437795__5" data-node-id="I1432:14695;149:6965">
<path id="Vector_90" data-node-id="I1432:14695;149:6966" d="M92.939,150.0324c0,0 -1.804,10.098 8.602,11.657c10.753,1.611 13.657,-8.051 13.657,-8.051l9.272,2.213c0,0 2.515,65.315 8.335,73.081c0,0 -44.117,11.639 -88.402,-8.043l40.744,-75.163z" fill="white"/>
</g>
</mask><mask id="mask9_1432_14588" style="mask-type:luminance" maskUnits="userSpaceOnUse" x="44" y="145.39839999999998" width="89" height="87" xmlns="http://www.w3.org/2000/svg">
<g id="SVGID_00000155853510008029307610000012987496748626437795__6" data-node-id="I1432:14695;149:6969">
<path id="Vector_92" data-node-id="I1432:14695;149:6970" d="M92.939,150.0324c0,0 -1.804,10.098 8.602,11.657c10.753,1.611 13.657,-8.051 13.657,-8.051l9.272,2.213c0,0 2.515,65.315 8.335,73.081c0,0 -44.117,11.639 -88.402,-8.043l40.744,-75.163z" fill="white"/>
</g>
</mask><mask id="mask10_1432_14588" style="mask-type:luminance" maskUnits="userSpaceOnUse" x="44" y="145.39839999999998" width="89" height="87" xmlns="http://www.w3.org/2000/svg">
<g id="SVGID_00000155853510008029307610000012987496748626437795__7" data-node-id="I1432:14695;149:6973">
<path id="Vector_94" data-node-id="I1432:14695;149:6974" d="M92.939,150.0324c0,0 -1.804,10.098 8.602,11.657c10.753,1.611 13.657,-8.051 13.657,-8.051l9.272,2.213c0,0 2.515,65.315 8.335,73.081c0,0 -44.117,11.639 -88.402,-8.043l40.744,-75.163z" fill="white"/>
</g>
</mask></defs><g id="last waving" xmlns="http://www.w3.org/2000/svg">
<g id="Group_39">
<path id="Vector_36" d="M119.105,219.8164l4.272,18.091c0,0 21.624,11.966 24.955,20.03c0,0 -1.426,7.528 -11.491,13.845l-0.006,-6.039c0,0 -34.732,-12.882 -38.646,-20.018c-3.914,-7.136 -2.124,-15.262 -2.124,-15.262z" fill="#B44A24" stroke="#B44A24" stroke-width="0.9183" stroke-miterlimit="10"/>
<path id="Vector_37" d="M118.483,258.1844c4.482,-4.831 8.883,-9.718 13.85,-14.217c0.165,-0.149 0.228,-0.306 0.223,-0.451c6.323,4.176 13.895,9.899 15.755,14.405c0,0 -1.427,7.532 -11.496,13.852l-0.006,-6.043c0,0 -8.98,-3.333 -18.326,-7.546z" fill="white" stroke="white" stroke-width="0.9183" stroke-miterlimit="10"/>
<path id="Vector_38" d="M130.407,263.2374c0.274,-0.27 0.541,-0.544 0.816,-0.814c3.821,-3.755 7.831,-7.392 11.753,-11.074c2.51,2.265 4.497,4.536 5.333,6.56c0,0 -1.428,7.537 -11.505,13.862l-0.005,-6.047c0,0 -2.575,-0.959 -6.392,-2.487z" fill="black" stroke="black" stroke-width="0.9183" stroke-miterlimit="10"/>
<path id="Vector_39" opacity="0.49" d="M99.034,247.3944c1.266,1.421 4.846,0.794 7.997,-1.399c3.15,-2.193 4.678,-5.124 3.412,-6.545c-1.265,-1.42 -4.846,-0.794 -7.997,1.4c-3.151,2.194 -4.679,5.125 -3.412,6.544z" fill="#8B2A0C" stroke="#8B2A0C" stroke-width="0.4443" stroke-miterlimit="10"/>
</g>
<path id="Vector_40" opacity="0.39" d="M88.339,293.0004c33.072,0 59.881,-4.744 59.881,-10.596c0,-5.851 -26.809,-10.595 -59.881,-10.595c-33.072,0 -59.882,4.744 -59.882,10.595c0,5.852 26.81,10.596 59.882,10.596z" fill="#7A5FFF"/>
<g id="animation 2">
<g id="Group_40">
<g id="Group_41">
<g id="Group_42">
<path id="Vector_41" d="M203.004,107.6514c0,0 11.686,-4.84 11.992,-17.107c0.306,-12.267 -15.967,-12.555 -15.967,-12.555c8.178,-5.833 5.878,-15.695 5.878,-15.695c-0.077,-18.092 -16.515,-18.705 -16.515,-18.705c0,0 6.217,-6.449 3.213,-14.815c-5.837,-16.263 -24.671,-11.883 -24.671,-11.883c-2.103,-8.421 -9.757,-15.022 -19.419,-16.283c-0.145,-0.019 -0.291,-0.038 -0.438,-0.054c-9.862,-1.194 -19.476,3.45 -24.017,11.283l-0.638,1.101c-0.375,-1.036 -1.01,-2.098 -1.774,-3.123c-3.944,-5.303 -10.465,-8.674 -17.584,-9.555c-16.919,-2.094 -24.754,9.106 -24.754,9.106c-7.005,-7.222 -22.859,-4.391 -22.859,-4.391c-34.839,7.408 -25.733,37.927 -25.733,37.927c0,0 -16.333,-8.801 -26.805,11.897c-10.471,20.698 10.653,34.746 10.653,34.746c-3.178,1.131 -6.08,6.591 -6.08,6.591c-7.387,20.796 22.945,26.398 22.945,26.398c-10.389,20.728 19.381,19.822 19.381,19.822c3.254,11.117 13.441,2.071 13.441,2.071c-0.335,13.914 11.592,7.364 11.592,7.364c3.055,8.194 11.087,-0.645 11.087,-0.645l1.678,-0.291c0.316,3.469 3.634,6.269 7.848,6.398c3.72,0.115 6.914,-1.895 8.034,-4.731c2.189,3.045 6.333,5.172 11.18,5.322c7.218,0.222 13.261,-4.015 13.662,-9.508c1.338,1.582 3.475,2.658 5.951,2.735c3.362,0.104 6.266,-1.648 7.406,-4.158c5.85,10.309 15.69,1.889 15.69,1.889c9.319,5.45 12.939,-3.474 12.939,-3.474c0,0 8.461,5.614 17.321,-4.814c4.967,-5.846 -0.189,-15.399 -0.189,-15.399c0,0 10.389,6.598 17.71,-1.227c8.093,-8.654 -2.158,-16.237 -2.158,-16.237z" fill="#1A0000" stroke="#1A0000" stroke-width="1.84423" stroke-miterlimit="10" stroke-linecap="round"/>
<g id="Group_43">
<g id="Group_44">
<path id="Vector_42" d="M12.232,25.1444c2.331,-0.466 5.238,-0.547 5.483,2.095c0.082,0.881 -0.101,1.803 -0.443,2.633c-0.246,0.595 -0.713,1.325 -1.522,1.438c-0.983,0.137 -1.37,-0.742 -1.071,-1.406c0.833,-1.853 4.229,-2.07 5.768,-0.816c1.451,1.182 1.01,3.425 -0.813,4.111c0.241,0.268 0.481,0.536 0.723,0.802c1.172,-1.092 3.194,-0.677 4.023,0.535c0.42,0.613 0.558,1.343 0.504,2.045c-0.052,0.681 -0.479,1.356 -0.342,2.045c0.208,1.04 1.736,1.618 2.529,2.303c1.225,1.054 2.124,2.327 2.699,3.726c0.254,0.616 1.406,0.351 1.15,-0.272c-0.642,-1.566 -1.634,-2.997 -3.005,-4.178c-0.806,-0.694 -2.218,-1.248 -2.102,-2.333c0.085,-0.798 0.347,-1.457 0.213,-2.284c-0.206,-1.27 -1.046,-2.466 -2.459,-2.978c-1.387,-0.504 -3.018,-0.296 -4.052,0.667c-0.481,0.449 0.118,1.03 0.723,0.803c2.13,-0.801 2.863,-3.249 1.755,-4.947c-1.255,-1.923 -4.392,-2.319 -6.532,-1.327c-1.081,0.501 -2.071,1.412 -2.091,2.52c-0.016,0.964 0.699,1.88 1.864,2.006c2.987,0.326 3.875,-3.359 3.662,-5.23c-0.139,-1.216 -0.785,-2.351 -2.1,-2.92c-1.507,-0.653 -3.315,-0.34 -4.875,-0.027c-0.753,0.153 -0.437,1.139 0.311,0.989z" fill="#1A0000"/>
</g>
</g>
<g id="Group_45">
<g id="Group_46">
<path id="Vector_43" d="M211.347,32.8864c-2.346,-1.432 -5.482,-2.445 -7.404,0.058c-1.215,1.582 -2.122,4.926 0.095,6.18c0.972,0.548 2.176,0.396 2.909,-0.385c0.801,-0.855 0.664,-2.034 0.083,-2.951c-1.168,-1.846 -4.045,-2.857 -6.331,-1.972c-2.472,0.955 -3.18,3.937 -1.322,5.618c0.393,0.354 1.209,-0.01 0.997,-0.497c-1.185,-2.724 -5.281,-2.424 -6.942,-0.237c-0.487,0.641 -0.756,1.358 -0.898,2.108c-0.237,1.264 -1.595,1.244 -2.761,1.638c-1.87,0.633 -3.5,1.638 -4.836,2.919c-0.511,0.49 0.33,1.215 0.842,0.722c1.198,-1.146 2.639,-2.078 4.311,-2.656c1.109,-0.383 2.762,-0.393 3.359,-1.428c0.265,-0.46 0.221,-1.034 0.366,-1.522c0.206,-0.691 0.607,-1.362 1.222,-1.853c1.229,-0.977 3.53,-0.931 4.187,0.578c0.332,-0.165 0.664,-0.331 0.996,-0.496c-1.394,-1.26 -0.643,-3.515 1.25,-4.061c1.923,-0.554 4.857,0.717 4.857,2.636c0,1.021 -1.363,1.545 -2.083,0.594c-0.302,-0.401 -0.325,-0.925 -0.319,-1.385c0.013,-0.888 0.301,-1.885 0.789,-2.669c1.429,-2.305 4.078,-1.247 6.03,-0.057c0.628,0.383 1.223,-0.503 0.603,-0.882z" fill="#1A0000"/>
</g>
</g>
</g>
<path id="Vector_44" d="M155.71,110.1554c0,0 24.04,-56.579 -48.35,-58.536c-61.762,-1.669 -51.362,55.098 -51.362,55.098l1.93,-0.136c0,0 0.193,-47.511 52.615,-43.026c48.877,4.183 42.18,47.656 42.18,47.656z" fill="#FFD44D" stroke="#FFD44D" stroke-width="0.427281" stroke-miterlimit="10"/>
</g>
<g id="Group_47">
<path id="Vector_45" d="M165.188,110.8204c-3.923,-2.156 -9.165,-1.54 -13.508,1.157c0.358,-1.766 0.605,-3.568 0.705,-5.409c0.031,-0.578 0.01,-1.144 0.015,-1.718c-0.692,-0.019 -1.384,-0.038 -2.075,-0.077c-6.825,-0.391 -13.483,-1.895 -19.492,-4.728c-4.994,-2.355 -9.416,-5.539 -12.978,-9.355c-3.35,-3.591 -5.697,-8.228 -7.248,-14.801c-4.887,6.326 -12.234,12.071 -18.571,15.764c-9.764,5.689 -21.199,9.991 -33.066,10.834c-0.008,0.116 -0.023,0.231 -0.029,0.349c-0.067,1.237 -0.061,2.462 -0.007,3.675c-2.491,-1.474 -5.376,-2.104 -8.212,-1.572c-6.43,1.204 -10.181,7.906 -8.381,14.968c1.801,7.061 8.472,11.808 14.901,10.604c3.353,-0.629 5.967,-2.759 7.455,-5.649c7.585,12.166 21.894,20.648 38.712,21.32c16.948,0.677 32.224,-6.743 41.066,-18.406c0.701,2.116 2.119,3.917 4.234,5.078c5.539,3.045 13.721,0.582 18.27,-5.503c4.551,-6.083 3.748,-13.485 -1.791,-16.531z" fill="#CD5428" stroke="#CD5428" stroke-width="1.73164" stroke-miterlimit="10"/>
<path id="Vector_46" d="M96.9,142.4874l-1.058,9.842l-6.493,-2.99c0,0 -6.22,13.671 8.608,17.739c14.828,4.067 20.659,-11.687 20.659,-11.687l-9.26,-2.48l0.689,-9.682z" fill="#CD5428" stroke="#CD5428" stroke-width="1.69852" stroke-miterlimit="10"/>
<g id="Group_48">
<g id="Group_49">
<g id="Group_50">
<path id="Vector_47" d="M60.478,112.6364c-1.754,-1.825 -3.872,-3.504 -6.307,-4.201c-2.406,-0.733 -5.076,0.35 -6.453,2.085c-1.386,1.784 -1.434,4.212 -1.09,6.484c0.38,2.301 1.104,4.6 2.047,6.849c-1.447,-2.048 -2.561,-4.292 -3.168,-6.681c-0.584,-2.342 -0.731,-5.068 0.969,-7.358c0.859,-1.122 2.135,-1.938 3.563,-2.419c1.454,-0.48 3.146,-0.435 4.538,0.063c2.814,1.012 4.638,3.07 5.901,5.178z" fill="#8B2A0C"/>
</g>
<g id="Group_51">
<path id="Vector_48" d="M64.91,126.5584c-0.927,-1.725 -1.292,-3.626 -1.549,-5.498c-0.106,-0.943 -0.162,-1.888 -0.173,-2.832c-0.008,-0.945 0.047,-1.889 0.14,-2.83c0.094,1.886 0.166,3.764 0.406,5.63c0.098,0.934 0.249,1.862 0.432,2.788c0.198,0.92 0.403,1.846 0.744,2.742z" fill="#8B2A0C"/>
</g>
<path id="Vector_49" d="M62.526,134.5194l-3.324,-3.133l-2.286,3.442l-0.235,-4.919l-3.437,-1.248l3.898,-0.703l1.234,-3.739l1.869,3.514l4.133,0.124l-2.875,1.928z" fill="white" stroke="white" stroke-width="0.439192" stroke-miterlimit="10" stroke-linecap="round"/>
</g>
<g id="Group_52">
<g id="Group_53">
<path id="Vector_50" d="M88.509,90.6534c-1.619,-0.3 -3.17,-0.359 -4.652,-0.348c-1.486,0.044 -2.925,0.205 -4.336,0.522c-1.411,0.321 -2.791,0.781 -4.188,1.317c-0.701,0.262 -1.375,0.595 -2.108,0.87c-0.728,0.292 -1.397,0.665 -2.201,0.937l-0.029,0.01c-0.038,0.012 -0.079,-0.003 -0.093,-0.036c-0.012,-0.025 -0.004,-0.051 0.019,-0.068l1.814,-1.376c0.663,-0.397 1.285,-0.846 1.982,-1.199c1.371,-0.74 2.862,-1.313 4.426,-1.7c3.148,-0.66 6.61,-0.431 9.45,0.962c0.034,0.017 0.045,0.055 0.026,0.084c-0.017,0.024 -0.048,0.035 -0.077,0.029z" fill="#2E2E2E"/>
</g>
<g id="Group_54">
<path id="Vector_51" d="M124.388,92.7684c1.274,-0.987 2.952,-1.576 4.688,-1.752c1.742,-0.211 3.539,0.002 5.215,0.466c1.645,0.54 3.171,1.303 4.424,2.309c0.65,0.475 1.166,1.069 1.711,1.613c0.445,0.63 0.92,1.216 1.271,1.875l0.009,0.014c0.016,0.032 0,0.07 -0.036,0.084c-0.03,0.011 -0.063,0.006 -0.084,-0.012l-1.696,-1.463c-0.627,-0.428 -1.208,-0.908 -1.869,-1.293c-1.297,-0.804 -2.72,-1.448 -4.22,-1.911c-2.989,-0.893 -6.416,-0.948 -9.338,0.185c-0.038,0.014 -0.082,0 -0.098,-0.032c-0.013,-0.027 -0.005,-0.056 0.018,-0.074z" fill="#2E2E2E"/>
</g>
<path id="Vector_52" opacity="0.49" d="M92.813,126.7904c-1.286,6.071 -8.072,10.1 -15.154,8.996c-7.082,-1.103 -11.78,-6.921 -10.493,-12.992c1.286,-6.072 8.072,-10.1 15.154,-8.997c7.082,1.104 11.778,6.921 10.493,12.993z" fill="#8B2A0C" stroke="#8B2A0C" stroke-width="1.92407" stroke-miterlimit="10"/>
<path id="Vector_53" opacity="0.49" d="M140.683,129.9574c-1.286,6.071 -8.072,10.1 -15.154,8.997c-7.082,-1.102 -11.78,-6.92 -10.493,-12.992c1.286,-6.072 8.072,-10.1 15.154,-8.998c7.08,1.104 11.779,6.921 10.493,12.993z" fill="#8B2A0C" stroke="#8B2A0C" stroke-width="1.92407" stroke-miterlimit="10"/>
<g id="Group_55">
<g id="Group_56">
<g id="Group_57">
<path id="Vector_54" d="M97.768,117.8334c0.391,-1.441 1.273,-2.814 2.595,-3.879c1.302,-1.068 3.183,-1.758 5.055,-1.697c0.921,0.02 1.87,0.171 2.746,0.507c0.854,0.373 1.622,0.899 2.157,1.554c1.092,1.303 1.442,2.882 1.279,4.348c-0.432,-1.418 -1.098,-2.765 -2.158,-3.734c-1.05,-0.98 -2.496,-1.438 -4.049,-1.432c-1.538,-0.069 -3.023,0.412 -4.311,1.198c-1.287,0.802 -2.377,1.903 -3.314,3.135z" fill="#8B2A0C"/>
</g>
</g>
<g id="Group_58" opacity="0.53">
<g id="Group_59">
<path id="Vector_55" d="M111.654,119.1234c0,0 0.019,-5.211 -5.122,-5.922c-5.988,-0.827 -8.664,4.64 -8.664,4.64" fill="#8B2A0C"/>
<path id="Vector_56" d="M111.654,119.1234c-0.368,-1.431 -0.974,-2.798 -1.99,-3.803c-1.007,-1.014 -2.432,-1.517 -3.983,-1.561c-1.535,-0.118 -3.038,0.316 -4.36,1.058c-1.322,0.76 -2.46,1.825 -3.453,3.024c0.451,-1.427 1.393,-2.772 2.761,-3.793c1.35,-1.027 3.261,-1.654 5.127,-1.53c0.92,0.052 1.862,0.23 2.722,0.597c0.838,0.4 1.579,0.951 2.086,1.623c1.034,1.337 1.315,2.926 1.09,4.385z" fill="#8B2A0C"/>
</g>
</g>
</g>
<g id="Group_60">
<g id="Group_61">
<path id="Vector_57" d="M92.358,114.4474c-0.126,-1.511 -0.229,-2.94 -0.62,-4.34c-0.311,-1.391 -0.776,-2.741 -1.525,-3.909c-1.468,-2.363 -3.972,-3.788 -7.012,-4.056c-2.958,-0.406 -5.739,0.628 -7.802,2.656c-2.159,1.958 -3.572,4.654 -4.716,7.35l-0.175,0.411l-0.371,-0.146c-1.033,-0.408 -2.045,-0.861 -3.063,-1.302l0.062,-0.139l3.181,1.04l-0.128,0.061c0.699,-2.878 1.939,-5.715 4.085,-8.055c1.067,-1.162 2.436,-2.148 4.029,-2.761c1.599,-0.605 3.396,-0.784 5.116,-0.577c1.718,0.185 3.412,0.7 4.823,1.581c1.426,0.87 2.475,2.125 3.177,3.476c1.362,2.742 1.495,5.815 1.107,8.698z" fill="black"/>
</g>
<g id="Group_62">
<path id="Vector_58" d="M70.889,110.2684l-3.759,-2.311l4.541,0.757z" fill="black"/>
</g>
<g id="Group_63">
<path id="Vector_59" d="M72.362,107.4864l-3.654,-2.797l4.717,1.129z" fill="black"/>
</g>
</g>
<g id="Group_64">
<g id="Group_65">
<path id="Vector_60" d="M115.585,114.7724c-0.103,-1.473 0.139,-2.99 0.504,-4.485c0.447,-1.48 1.144,-2.937 2.188,-4.287c1.033,-1.35 2.576,-2.513 4.415,-3.193c1.84,-0.691 3.874,-0.838 5.771,-0.662c1.929,0.169 3.883,0.817 5.461,1.882c1.559,1.085 2.673,2.522 3.378,4.001c1.303,3.017 1.527,6.116 0.935,9.107l-0.454,-0.37c1.136,-0.055 2.278,-0.063 3.418,-0.084l0.021,0.147l-3.378,0.364l-0.11,0.011l0.004,-0.098c0.108,-2.907 -0.324,-5.903 -1.746,-8.555c-0.705,-1.321 -1.741,-2.519 -3.074,-3.403c-1.34,-0.88 -2.974,-1.387 -4.652,-1.541c-1.672,-0.184 -3.406,-0.05 -4.974,0.48c-1.578,0.517 -2.921,1.477 -3.973,2.61c-2.08,2.325 -3.094,5.211 -3.568,8.12z" fill="black"/>
</g>
<g id="Group_66">
<path id="Vector_61" d="M137.893,113.5464l4.621,0.208l-4.301,1.463z" fill="black"/>
</g>
<g id="Group_67">
<path id="Vector_62" d="M137.224,110.3724l4.895,-0.118l-4.334,1.956z" fill="black"/>
</g>
</g>
<g id="Group_68">
<path id="Vector_63" opacity="0.49" d="M110.864,123.9024c0.01,1.982 -2.758,5.812 -7.205,5.829c-4.444,0.017 -6.929,-4.209 -6.686,-6.186c0,0 2.353,-0.506 6.798,-0.523c4.445,-0.017 7.093,0.88 7.093,0.88z" fill="#8B2A0C"/>
<g id="Group_69">
<path id="Vector_64" d="M96.278,118.5034c0.042,0.997 0.158,1.981 0.476,2.901c0.265,0.923 0.703,1.791 1.351,2.478c1.24,1.407 3.285,2.059 5.431,2.028c2.137,0.125 4.206,-0.415 5.824,-1.607c0.82,-0.584 1.522,-1.32 2.099,-2.139c0.625,-0.802 1.093,-1.704 1.495,-2.641l0.005,-0.011c0.01,-0.024 0.041,-0.036 0.067,-0.027c0.025,0.008 0.038,0.029 0.035,0.05c-0.432,1.961 -1.453,3.862 -3.127,5.278c-1.673,1.441 -4.098,2.082 -6.429,2.009c-2.308,-0.017 -4.795,-0.808 -6.087,-2.542c-1.306,-1.7 -1.54,-3.826 -1.245,-5.792c0.003,-0.026 0.029,-0.042 0.059,-0.04c0.026,0.003 0.044,0.021 0.046,0.044z" fill="#3B130E"/>
</g>
</g>
<g id="Group_70">
<g id="Group_71">
<path id="Vector_65" d="M110.648,73.8144c-0.591,1.831 -1.775,3.482 -2.758,5.171c-0.838,1.438 -1.342,3.009 -0.589,4.568c0.685,1.421 2.552,2.58 4.392,2.023c1.424,-0.431 2.137,-2.079 1.219,-3.159c-1.112,-1.311 -3.63,-0.61 -4.877,0.152c-1.658,1.014 -2.512,2.759 -2.198,4.488c0.271,1.495 1.573,3.164 3.561,2.951c1.494,-0.16 2.819,-1.877 1.332,-2.846c-1.693,-1.104 -3.966,0.419 -4.596,1.779c-0.935,2.017 0.521,4.066 2.286,5.345c0.55,0.4 1.351,-0.281 0.797,-0.683c-1.281,-0.929 -2.559,-2.328 -2.194,-3.87c0.162,-0.684 0.677,-1.352 1.395,-1.698c0.316,-0.153 0.988,-0.369 1.365,-0.207c0.896,0.389 0.227,1.057 -0.398,1.207c-2.287,0.552 -2.717,-2.719 -2.272,-3.876c0.518,-1.348 2.499,-2.875 4.286,-2.428c1.013,0.254 1.029,1.383 0.137,1.852c-0.762,0.399 -1.855,0.043 -2.449,-0.436c-1.254,-1.012 -1.245,-2.692 -0.62,-3.964c1.016,-2.069 2.562,-3.927 3.267,-6.111c0.195,-0.602 -0.891,-0.857 -1.086,-0.258z" fill="#1A0000"/>
</g>
</g>
</g>
<g id="Group_72">
<g id="Group_73">
<g id="Group_74">
<path id="Vector_66" d="M151.026,116.6914c1.676,-1.885 3.892,-3.638 6.866,-4.215c1.473,-0.282 3.148,-0.071 4.481,0.619c1.307,0.688 2.398,1.684 3.014,2.917c1.207,2.509 0.505,5.171 -0.548,7.39c-1.087,2.26 -2.641,4.303 -4.483,6.103c1.386,-2.073 2.57,-4.226 3.413,-6.435c0.801,-2.187 1.251,-4.584 0.252,-6.547c-1.003,-1.915 -3.41,-3.381 -5.929,-3.02c-2.537,0.32 -4.965,1.654 -7.066,3.188z" fill="#8B2A0C"/>
</g>
<g id="Group_75">
<path id="Vector_67" d="M143.822,129.7344c0.52,-0.832 0.91,-1.712 1.291,-2.59c0.37,-0.882 0.708,-1.774 0.995,-2.68c0.618,-1.801 1.071,-3.638 1.549,-5.481c-0.1,0.939 -0.237,1.878 -0.439,2.808c-0.204,0.928 -0.451,1.851 -0.749,2.763c-0.635,1.804 -1.382,3.62 -2.647,5.18z" fill="#8B2A0C"/>
</g>
</g>
<path id="Vector_68" d="M154.82,137.5254l-3.324,-3.135l-2.287,3.444l-0.234,-4.921l-3.439,-1.247l3.9,-0.702l1.234,-3.741l1.87,3.516l4.132,0.124l-2.874,1.927z" fill="white" stroke="white" stroke-width="0.439192" stroke-miterlimit="10" stroke-linecap="round"/>
</g>
</g>
</g>
<g id="Group_76">
<g id="Group_77">
<path id="Vector_69" d="M59.401,222.2774c0,0 3.871,43.838 12.803,55.143l-3.264,7.571l20.057,-0.178l-2.42,-8.886l3.197,-51.734z" fill="#B44A24" stroke="#B44A24" stroke-width="1.70894" stroke-miterlimit="10"/>
<path id="Vector_70" d="M87.607,259.2664c-7.423,0.163 -14.842,0.508 -22.27,0.602c1.829,7.454 4.105,14.058 6.866,17.552l-3.263,7.571l20.056,-0.178l-2.419,-8.886z" fill="white" stroke="white" stroke-width="1.70894" stroke-miterlimit="10"/>
<path id="Vector_71" d="M86.798,272.3774c-2.67,-0.203 -5.423,0.166 -8.034,0.521c-2.889,0.391 -5.785,0.85 -8.708,0.998c0.682,1.371 1.395,2.571 2.15,3.525l-3.264,7.571l20.056,-0.178l-2.419,-8.885z" fill="black" stroke="black" stroke-width="1.70894" stroke-miterlimit="10"/>
<path id="Vector_72" opacity="0.49" d="M82.02,250.8434c-0.097,2.034 -3.439,3.57 -7.464,3.428c-4.024,-0.141 -7.209,-1.904 -7.111,-3.94c0.097,-2.033 3.439,-3.569 7.463,-3.428c4.025,0.142 7.208,1.907 7.112,3.94z" fill="#8B2A0C" stroke="#8B2A0C" stroke-width="0.826834" stroke-miterlimit="10"/>
</g>
<g id="Group_78">
<g id="Group_79">
<g id="Group_80">
<path id="Vector_73" d="M162.137,194.3854c1.607,0.517 3.159,1.199 4.65,1.921c2.962,1.438 5.83,3.211 7.95,5.522c0.34,0.371 0.785,0.758 0.859,1.247c0.065,0.441 -0.154,0.689 -0.726,0.711c0,0 0.294,1.658 -0.98,1.379c0,0 0.196,1.296 -1.396,0.752c-1.243,-0.426 -5.335,-2.521 -7.06,-3.414c-0.259,-0.133 -0.566,0.086 -0.465,0.33c0.469,1.117 1.341,3.196 1.06,3.402c-1.14,0.831 -7.954,-3.895 -9.109,-5.254c0,0 -31.482,-20.158 -34.865,-31.614l2.778,-13.516z" fill="#CD5428" stroke="#CD5428" stroke-width="0.34819" stroke-miterlimit="10"/>
</g>
<g id="Group_81">
<path id="Vector_74" d="M170.465,200.7344c0.853,0.455 1.6,1.019 2.404,1.525c0.734,0.578 1.524,1.097 2.21,1.727c-0.853,-0.455 -1.6,-1.019 -2.404,-1.525c-0.734,-0.578 -1.524,-1.097 -2.21,-1.727z" fill="#280707"/>
</g>
<g id="Group_82">
<path id="Vector_75" d="M169.116,202.1164c0.943,0.478 1.787,1.069 2.683,1.6c0.83,0.605 1.713,1.15 2.497,1.808c-0.944,-0.478 -1.787,-1.069 -2.683,-1.6c-0.83,-0.605 -1.713,-1.15 -2.497,-1.808z" fill="#280707"/>
</g>
</g>
<g id="Group_83">
<g id="Group_84">
<path id="Vector_76" d="M138.668,170.1484c-6.46,-6.674 -13.841,-14.298 -13.841,-14.298l-2.778,13.515c0.96,3.251 4.185,7.203 8.307,11.194c3.645,-2.848 6.24,-6.603 8.312,-10.411z" fill="white" stroke="white" stroke-width="0.34819" stroke-miterlimit="10"/>
</g>
</g>
</g>
<g id="Group_85">
<path id="Vector_77" d="M81.405,166.9424l-53.735,-59.281c-0.38,-0.415 0.292,-0.903 0.78,-0.568l6.305,4.402l-5.757,-8.143c-0.203,-0.301 0.311,-0.566 0.581,-0.298l8.055,7.568l-5.087,-9.009c-0.185,-0.442 0.57,-0.718 0.886,-0.323l6.717,8.201c0,0 -3.604,-8.7 -3.235,-8.564c0.37,0.136 5.453,8.179 5.453,8.179l0.92,-4.148c0.013,-0.3 0.496,-0.413 0.724,-0.168l4.047,8.034l42.996,38.912z" fill="#B44A24" stroke="#B44A24" stroke-width="1.36298" stroke-miterlimit="10"/>
<path id="Vector_78" d="M68.146,131.9174c-4.809,2.587 -9.025,6.022 -11.115,10.448l18.401,19.637l9.333,-15.526z" fill="white" stroke="white" stroke-width="1.36298" stroke-miterlimit="10"/>
<g id="Group_86">
<path id="Vector_79" d="M23.125,111.3994c1.016,-1.01 2.213,-1.842 3.316,-2.767c1.22,-0.81 2.346,-1.713 3.65,-2.44l0.019,0.02l-6.965,5.207z" fill="#8B2A0C"/>
</g>
<g id="Group_87">
<path id="Vector_80" d="M33.401,108.0294c-0.358,0.253 -0.676,0.538 -0.962,0.836c-0.275,0.305 -0.484,0.653 -0.563,1.018c-0.114,0.356 -0.101,0.749 0.063,1.105c0.145,0.362 0.399,0.689 0.652,1.024c-0.34,-0.268 -0.669,-0.575 -0.839,-0.964c-0.206,-0.37 -0.267,-0.81 -0.168,-1.223c0.279,-0.808 0.979,-1.453 1.817,-1.796z" fill="#8B2A0C"/>
</g>
<g id="Group_88">
<path id="Vector_81" d="M46.029,129.6514c0.686,-0.845 1.566,-1.522 2.341,-2.288c0.905,-0.655 1.705,-1.4 2.7,-1.977l0.021,0.018l-5.04,4.265z" fill="#8B2A0C"/>
</g>
</g>
<g id="Group_89">
<g id="Clip path group_5">
<mask id="mask4_1432_14588" style="mask-type:luminance" maskUnits="userSpaceOnUse" x="377" y="602" width="89" height="87">
<g id="SVGID_00000155853510008029307610000012987496748626437795_">
<path id="Vector_82" d="M425.939 606.634C425.939 606.634 424.135 616.732 434.541 618.291C445.294 619.902 448.198 610.24 448.198 610.24L457.47 612.453C457.47 612.453 459.985 677.768 465.805 685.534C465.805 685.534 421.688 697.173 377.403 677.491L418.147 602.328L425.939 606.634Z" fill="white"/>
</g>
</mask>
<g mask="url(#mask4_1432_14588)">
<path id="Vector_83" d="M92.939,150.0324c0,0 -1.804,10.098 8.602,11.657c10.753,1.611 13.657,-8.051 13.657,-8.051l9.272,2.213c0,0 2.515,65.315 8.335,73.081c0,0 -44.117,11.639 -88.402,-8.043l40.744,-75.163z" fill="#7A5FFF" stroke="#7A5FFF" stroke-width="1.70894" stroke-miterlimit="10"/>
</g>
</g>
<g id="Clip path group_6">
<mask id="mask5_1432_14588" style="mask-type:luminance" maskUnits="userSpaceOnUse" x="377" y="602" width="89" height="87">
<g id="SVGID_00000155853510008029307610000012987496748626437795__2">
<path id="Vector_84" d="M425.939 606.634C425.939 606.634 424.135 616.732 434.541 618.291C445.294 619.902 448.198 610.24 448.198 610.24L457.47 612.453C457.47 612.453 459.985 677.768 465.805 685.534C465.805 685.534 421.688 697.173 377.403 677.491L418.147 602.328L425.939 606.634Z" fill="white"/>
</g>
</mask>
<g mask="url(#mask5_1432_14588)">
<path id="Vector_85" d="M79.922,182.2474l1.757,-12.332c0.015,-0.108 -0.06,-0.224 -0.168,-0.258l-10.228,-3.25c-0.208,-0.066 -0.234,-0.363 -0.036,-0.401l11.968,-2.293c0.056,-0.01 0.1,-0.048 0.121,-0.1l3.575,-8.836c0.07,-0.174 0.332,-0.117 0.383,0.083l2.334,9.295c0.026,0.101 0.116,0.179 0.215,0.185l10.681,0.618c0.201,0.011 0.304,0.289 0.143,0.389l-8.526,5.317c-0.075,0.048 -0.1,0.149 -0.057,0.243l4.32,9.714c0.087,0.195 -0.109,0.351 -0.281,0.222l-8.878,-6.649c-0.089,-0.067 -0.203,-0.06 -0.264,0.014l-6.699,8.248c-0.123,0.151 -0.389,-0.002 -0.36,-0.209z" fill="#FFD44D"/>
</g>
</g>
<g id="Clip path group_7">
<mask id="mask6_1432_14588" style="mask-type:luminance" maskUnits="userSpaceOnUse" x="377" y="602" width="89" height="87">
<g id="SVGID_00000155853510008029307610000012987496748626437795__3">
<path id="Vector_86" d="M425.939 606.634C425.939 606.634 424.135 616.732 434.541 618.291C445.294 619.902 448.198 610.24 448.198 610.24L457.47 612.453C457.47 612.453 459.985 677.768 465.805 685.534C465.805 685.534 421.688 697.173 377.403 677.491L418.147 602.328L425.939 606.634Z" fill="white"/>
</g>
</mask>
<g mask="url(#mask6_1432_14588)">
<path id="Vector_87" d="M102.222,217.0674l7.448,-10.627c0.065,-0.094 0.052,-0.226 -0.031,-0.296l-7.764,-6.623c-0.157,-0.135 -0.041,-0.415 0.159,-0.379l11.978,2.187c0.055,0.01 0.113,-0.007 0.159,-0.048l7.441,-6.787c0.146,-0.133 0.357,0.013 0.308,0.212l-2.284,9.317c-0.024,0.101 0.021,0.206 0.108,0.247l9.425,4.385c0.178,0.082 0.139,0.371 -0.054,0.406l-10.279,1.804c-0.091,0.015 -0.162,0.1 -0.168,0.201l-0.676,10.411c-0.013,0.209 -0.265,0.281 -0.362,0.101l-4.924,-9.242c-0.049,-0.092 -0.155,-0.127 -0.245,-0.081l-10.005,5.134c-0.187,0.093 -0.359,-0.144 -0.234,-0.322z" fill="#FFD44D"/>
</g>
</g>
<g id="Clip path group_8">
<mask id="mask7_1432_14588" style="mask-type:luminance" maskUnits="userSpaceOnUse" x="377" y="602" width="89" height="87">
<g id="SVGID_00000155853510008029307610000012987496748626437795__4">
<path id="Vector_88" d="M425.939 606.634C425.939 606.634 424.135 616.732 434.541 618.291C445.294 619.902 448.198 610.24 448.198 610.24L457.47 612.453C457.47 612.453 459.985 677.768 465.805 685.534C465.805 685.534 421.688 697.173 377.403 677.491L418.147 602.328L425.939 606.634Z" fill="white"/>
</g>
</mask>
<g mask="url(#mask7_1432_14588)">
<path id="Vector_89" d="M55.162,222.5864l-0.553,-12.41c-0.005,-0.109 -0.102,-0.211 -0.215,-0.231l-10.702,-1.774c-0.217,-0.037 -0.298,-0.326 -0.109,-0.392l11.394,-3.937c0.054,-0.018 0.09,-0.06 0.101,-0.115l1.89,-9.215c0.037,-0.181 0.306,-0.161 0.392,0.028l4.031,8.841c0.044,0.097 0.149,0.161 0.247,0.153l10.662,-0.884c0.201,-0.017 0.353,0.243 0.214,0.363l-7.434,6.437c-0.065,0.057 -0.07,0.16 -0.011,0.247l6.069,8.976c0.123,0.181 -0.042,0.361 -0.237,0.258l-10,-5.316c-0.1,-0.053 -0.212,-0.03 -0.257,0.051l-5.085,9.072c-0.095,0.17 -0.388,0.056 -0.397,-0.152z" fill="#FFD44D"/>
</g>
</g>
<g id="Clip path group_9">
<mask id="mask8_1432_14588" style="mask-type:luminance" maskUnits="userSpaceOnUse" x="377" y="602" width="89" height="87">
<g id="SVGID_00000155853510008029307610000012987496748626437795__5">
<path id="Vector_90" d="M425.939 606.634C425.939 606.634 424.135 616.732 434.541 618.291C445.294 619.902 448.198 610.24 448.198 610.24L457.47 612.453C457.47 612.453 459.985 677.768 465.805 685.534C465.805 685.534 421.688 697.173 377.403 677.491L418.147 602.328L425.939 606.634Z" fill="white"/>
</g>
</mask>
<g mask="url(#mask8_1432_14588)">
<path id="Vector_91" d="M110.891,171.5284l2.706,-3.86c0.024,-0.034 0.018,-0.081 -0.012,-0.108l-2.82,-2.405c-0.057,-0.05 -0.015,-0.151 0.057,-0.138l4.352,0.794c0.019,0.004 0.041,-0.003 0.057,-0.017l2.704,-2.466c0.054,-0.049 0.129,0.005 0.111,0.078l-0.829,3.384c-0.01,0.036 0.008,0.074 0.039,0.09l3.424,1.592c0.064,0.029 0.051,0.134 -0.019,0.147l-3.735,0.655c-0.033,0.006 -0.059,0.036 -0.061,0.073l-0.245,3.781c-0.005,0.076 -0.097,0.103 -0.131,0.037l-1.788,-3.358c-0.018,-0.034 -0.057,-0.046 -0.088,-0.03l-3.635,1.865c-0.071,0.036 -0.133,-0.05 -0.087,-0.114z" fill="#FFD44D"/>
</g>
</g>
<g id="Clip path group_10">
<mask id="mask9_1432_14588" style="mask-type:luminance" maskUnits="userSpaceOnUse" x="377" y="602" width="89" height="87">
<g id="SVGID_00000155853510008029307610000012987496748626437795__6">
<path id="Vector_92" d="M425.939 606.634C425.939 606.634 424.135 616.732 434.541 618.291C445.294 619.902 448.198 610.24 448.198 610.24L457.47 612.453C457.47 612.453 459.985 677.768 465.805 685.534C465.805 685.534 421.688 697.173 377.403 677.491L418.147 602.328L425.939 606.634Z" fill="white"/>
</g>
</mask>
<g mask="url(#mask9_1432_14588)">
<path id="Vector_93" d="M85.12,200.7854l1.308,-4.371c0.012,-0.038 -0.009,-0.083 -0.045,-0.1l-3.505,-1.593c-0.07,-0.032 -0.063,-0.14 0.01,-0.146l4.434,-0.331c0.021,-0.001 0.039,-0.012 0.049,-0.031l1.771,-3.035c0.035,-0.059 0.126,-0.028 0.133,0.046l0.33,3.445c0.004,0.038 0.033,0.07 0.067,0.076l3.81,0.665c0.072,0.012 0.094,0.116 0.032,0.146l-3.361,1.562c-0.029,0.014 -0.044,0.049 -0.034,0.086l1.022,3.679c0.022,0.074 -0.058,0.122 -0.112,0.068l-2.831,-2.763c-0.027,-0.028 -0.07,-0.031 -0.094,-0.005l-2.863,2.694c-0.056,0.046 -0.143,-0.02 -0.121,-0.092z" fill="#FFD44D"/>
</g>
</g>
<g id="Clip path group_11">
<mask id="mask10_1432_14588" style="mask-type:luminance" maskUnits="userSpaceOnUse" x="377" y="602" width="89" height="87">
<g id="SVGID_00000155853510008029307610000012987496748626437795__7">
<path id="Vector_94" d="M425.939 606.634C425.939 606.634 424.135 616.732 434.541 618.291C445.294 619.902 448.198 610.24 448.198 610.24L457.47 612.453C457.47 612.453 459.985 677.768 465.805 685.534C465.805 685.534 421.688 697.173 377.403 677.491L418.147 602.328L425.939 606.634Z" fill="white"/>
</g>
</mask>
<g mask="url(#mask10_1432_14588)">
<path id="Vector_95" d="M82.844,234.6804l2.706,-3.86c0.025,-0.034 0.02,-0.082 -0.011,-0.108l-2.82,-2.406c-0.058,-0.049 -0.015,-0.151 0.057,-0.137l4.351,0.794c0.022,0.004 0.041,-0.003 0.058,-0.017l2.704,-2.466c0.054,-0.049 0.129,0.004 0.113,0.077l-0.83,3.385c-0.01,0.036 0.008,0.074 0.04,0.089l3.424,1.592c0.063,0.03 0.05,0.135 -0.02,0.148l-3.735,0.655c-0.033,0.005 -0.059,0.036 -0.06,0.073l-0.246,3.781c-0.005,0.076 -0.096,0.102 -0.131,0.036l-1.788,-3.357c-0.018,-0.034 -0.057,-0.047 -0.09,-0.03l-3.635,1.864c-0.07,0.038 -0.132,-0.048 -0.087,-0.113z" fill="#FFD44D"/>
</g>
</g>
</g>
</g>
</g>
</g>
</g></svg>