<svg viewBox="0 0 24 24" x="0" y="0" fill="none" xmlns="http://www.w3.org/2000/svg"><g id="Social media logo" xmlns="http://www.w3.org/2000/svg">
<path id="vector" d="M22.501,12.233c0,-0.863 -0.071,-1.493 -0.226,-2.147h-10.06v3.897h5.905c-0.119,0.968 -0.762,2.427 -2.19,3.407l-0.02,0.13l3.18,2.415l0.221,0.021c2.023,-1.831 3.19,-4.526 3.19,-7.723z" fill="#4285F4"/>
<path id="vector_2" d="M12.214,22.5c2.893,0 5.321,-0.933 7.095,-2.543l-3.381,-2.567c-0.905,0.618 -2.119,1.05 -3.714,1.05c-2.833,0 -5.238,-1.832 -6.095,-4.363l-0.126,0.01l-3.307,2.508l-0.043,0.118c1.761,3.43 5.38,5.787 9.571,5.787z" fill="#34A853"/>
<path id="vector_3" d="M6.12,14.077c-0.226,-0.654 -0.357,-1.354 -0.357,-2.077c0,-0.723 0.131,-1.423 0.346,-2.077l-0.006,-0.139l-3.349,-2.548l-0.11,0.051c-0.726,1.423 -1.143,3.021 -1.143,4.713c0,1.692 0.417,3.29 1.143,4.713z" fill="#FBBC05"/>
<path id="vector_4" d="M12.214,5.56c2.012,0 3.369,0.852 4.143,1.563l3.024,-2.893c-1.857,-1.692 -4.274,-2.73 -7.167,-2.73c-4.19,0 -7.81,2.357 -9.571,5.787l3.464,2.636c0.869,-2.531 3.274,-4.363 6.107,-4.363z" fill="#EB4335"/>
</g></svg>