<svg width="51" height="42" viewBox="0 0 51 42" fill="none" xmlns="http://www.w3.org/2000/svg">
<path d="M46.6182 30.522C46.6182 30.522 49.5335 29.5834 50.0191 26.4429C50.5048 23.3023 46.682 22.8062 46.682 22.8062C48.805 21.5216 48.5955 18.9306 48.5955 18.9306C49.1876 14.2854 45.3368 13.701 45.3368 13.701C45.3368 13.701 47.0183 12.2071 46.5931 9.98207C45.767 5.65643 41.1836 6.29121 41.1836 6.29121C40.9724 4.07501 39.3923 2.18255 37.1592 1.60805C37.1254 1.59922 37.0916 1.59076 37.0578 1.5827C34.7755 1.0201 32.3546 1.96211 31.0211 3.85458L30.8338 4.12072C30.7808 3.84499 30.6669 3.5562 30.5217 3.27318C29.7719 1.80966 28.3495 0.775479 26.7022 0.36419C22.788 -0.612767 20.5653 2.05812 20.5653 2.05812C19.1592 0.0224125 15.3302 0.336918 15.3302 0.336918C6.87592 1.33346 7.9908 9.40296 7.9908 9.40296C7.9908 9.40296 4.44087 6.71978 1.27689 11.7601C-1.8875 16.8 2.61375 20.9544 2.61375 20.9544C1.82683 21.1618 0.959368 22.4878 0.959368 22.4878C-1.48152 27.6333 5.47314 29.8591 5.47314 29.8591C2.3271 34.9091 9.36897 35.4498 9.36897 35.4498C9.76034 38.3876 12.4645 36.3303 12.4645 36.3303C11.9162 39.8925 14.9459 38.5216 14.9459 38.5216C15.389 40.704 17.5787 38.6441 17.5787 38.6441L17.9838 38.613C17.9413 39.5112 18.6281 40.3161 19.6161 40.459C20.4881 40.5849 21.308 40.1521 21.6681 39.4536C22.0808 40.2919 22.985 40.9459 24.1215 41.1103C25.8139 41.3549 27.3802 40.424 27.6598 39.025C27.9214 39.4659 28.3883 39.7977 28.9691 39.8814C29.7573 39.9954 30.5004 39.621 30.8538 39.0062C31.8836 41.8042 34.4851 39.8987 34.4851 39.8987C36.4958 41.5396 37.6491 39.3434 37.6491 39.3434C37.6491 39.3434 39.4524 41.0043 41.8908 38.5581C43.2577 37.1867 42.3656 34.6007 42.3656 34.6007C42.3656 34.6007 44.5899 36.5638 46.5781 34.7458C48.7766 32.7347 46.6182 30.522 46.6182 30.522Z" fill="#1A0000" stroke="#1A0000" stroke-width="0.298591" stroke-miterlimit="10" stroke-linecap="round"/>
<path d="M4.47776 4.19562C5.01809 4.16144 5.69904 4.19562 5.71406 4.83732C5.7199 5.09155 5.61893 5.38302 5.47873 5.59999C5.40196 5.71865 5.31308 5.84077 5.15996 5.88609C4.87581 5.97019 4.73437 5.68947 4.86955 5.48901C5.1562 5.06466 5.95147 5.12918 6.26357 5.47902C6.57233 5.82464 6.38791 6.40721 5.91392 6.52318C5.96065 6.5973 6.0078 6.67142 6.05453 6.74554C6.42671 6.48017 6.9103 6.77204 7.00835 7.1384C7.06134 7.33578 7.02964 7.54699 6.95328 7.73555C6.89987 7.86765 6.811 7.98709 6.83019 8.13494C6.86608 8.41182 7.2199 8.62264 7.37845 8.84115C7.60126 9.14837 7.74062 9.48939 7.81239 9.85152C7.84577 10.0197 8.12407 9.94829 8.09111 9.78086C8.0064 9.35229 7.82532 8.94714 7.54368 8.59615C7.34716 8.35114 7.10098 8.24208 7.19653 7.88455C7.24994 7.68563 7.3288 7.52242 7.32129 7.31082C7.29709 6.62726 6.50224 6.0927 5.85008 6.55737C5.73033 6.64262 5.86218 6.8112 5.99069 6.77971C6.54479 6.64376 6.83896 6.05353 6.64494 5.56467C6.43548 5.03587 5.72031 4.82235 5.16955 4.98671C4.89166 5.06966 4.61211 5.25706 4.53826 5.53048C4.47484 5.76512 4.5804 6.03433 4.83158 6.13072C5.52504 6.39723 5.93186 5.48057 5.99111 5.00668C6.03325 4.66989 5.94062 4.32657 5.63353 4.11766C5.30515 3.89416 4.8658 3.90607 4.47817 3.93026C4.29333 3.9414 4.29167 4.20714 4.47776 4.19562Z" fill="#1A0000"/>
<path d="M50.0835 10.6656C49.5015 10.3177 48.7241 10.08 48.2889 10.7439C48.0086 11.1721 47.8216 12.0873 48.415 12.3722C48.6578 12.4889 48.9353 12.4206 49.0913 12.2167C49.2757 11.9755 49.2127 11.6614 49.0467 11.4275C48.7162 10.9624 47.9818 10.7409 47.4453 11.0393C46.9145 11.3346 46.8081 12.0788 47.2558 12.4751C47.3823 12.5869 47.5437 12.4463 47.4828 12.3138C47.1486 11.5869 46.1042 11.8131 45.7738 12.4094C45.6799 12.5784 45.6545 12.7493 45.6169 12.9321C45.5535 13.2405 45.2234 13.2516 44.9622 13.3588C44.5233 13.5389 44.1444 13.8146 43.8407 14.156C43.7238 14.2873 43.9271 14.4766 44.0451 14.3442C44.3047 14.0523 44.6151 13.8127 44.9823 13.6433C45.2514 13.5193 45.7141 13.4939 45.8531 13.2098C45.9136 13.0865 45.8956 12.9413 45.9248 12.8111C45.9653 12.6295 46.0529 12.4498 46.1956 12.3165C46.5035 12.0289 47.051 12.0508 47.2337 12.4482C47.3093 12.3945 47.3848 12.3407 47.4607 12.2873C47.144 12.007 47.2208 11.4832 47.5917 11.2689C48.0474 11.0058 48.8005 11.29 48.9023 11.7839C48.9361 11.949 48.8727 12.2105 48.6044 12.1579C48.377 12.1134 48.3319 11.8488 48.3269 11.6775C48.3207 11.4605 48.3686 11.2297 48.4583 11.0293C48.5643 10.7923 48.7508 10.5884 49.0479 10.568C49.3721 10.5462 49.6796 10.7401 49.9387 10.8949C50.094 10.9886 50.2391 10.7585 50.0835 10.6656Z" fill="#1A0000"/>
<path d="M10.4672 33.9145L9.81339 32.9913L9.11116 33.7939L9.27681 32.5224L8.51074 32.0796L9.47542 32.0378L9.9394 31.1211L10.2277 32.0904L11.2112 32.2693L10.4363 32.6622L10.4672 33.9145Z" fill="white" stroke="white" stroke-width="0.0711279" stroke-miterlimit="10" stroke-linecap="round"/>
<path d="M9.77148 23.7367C9.77148 23.7367 9.7669 10.3623 23.7676 11.4975C37.0385 12.5735 34.5446 29.042 31.0402 30.7002L30.8061 31.1218C30.8061 31.1218 32.9587 21.4226 28.2859 16.5766C25.2409 13.4187 20.1196 13.0005 16.3898 15.4587C14.4467 16.7394 11.5936 20.196 9.77148 23.7367Z" fill="#FFD44D" stroke="#FFD44D" stroke-width="0.272303" stroke-miterlimit="10"/>
<mask id="mask0_2146_9709" style="mask-type:luminance" maskUnits="userSpaceOnUse" x="8" y="16" width="29" height="23">
<path d="M35.749 29.195C35.0823 28.5421 34.1322 28.5736 33.2848 28.8789C32.8529 29.0345 32.4486 29.2495 32.0606 29.4815C31.8278 29.6205 31.3642 30.127 31.0801 30.0721C30.884 30.0345 30.8535 29.7365 30.7934 29.5944C30.2664 28.3474 29.1315 27.1904 28.2219 26.1654C27.2013 25.016 26.1119 23.9208 25.0266 22.824C23.1749 20.9527 21.4717 18.8958 20.3351 16.5779C19.9805 16.8709 19.2682 17.4615 19.1214 17.6021C17.7044 18.9592 16.1606 20.2246 14.4962 21.3202C13.7243 21.8283 12.9207 22.3014 12.0645 22.68C11.3026 23.0172 10.4735 23.2968 9.61818 23.3044C9.61275 23.3044 9.609 23.3021 9.60357 23.3018C9.40914 23.8716 9.25684 24.4596 9.15253 25.0637C7.91123 32.2457 11.9151 37.1934 19.126 38.2357C23.3823 38.8509 27.4809 37.2484 30.1408 34.3332C31.1777 35.301 33.2147 34.996 34.7497 33.622C36.3169 32.2199 36.8869 30.3098 35.749 29.195Z" fill="white"/>
</mask>
<g mask="url(#mask0_2146_9709)">
<path d="M35.749 29.1945C35.0823 28.5417 34.1322 28.5732 33.2848 28.8785C32.8529 29.034 32.4486 29.249 32.0606 29.481C31.8278 29.62 31.3642 30.1265 31.0801 30.0716C30.884 30.034 30.8535 29.736 30.7934 29.5939C30.2664 28.347 29.1315 27.1899 28.2219 26.1649C27.2013 25.0156 26.1119 23.9203 25.0266 22.8235C23.1749 20.9522 21.4717 18.8954 20.3351 16.5774C19.9805 16.8704 19.2682 17.461 19.1214 17.6016C17.7044 18.9587 16.1606 20.2241 14.4962 21.3197C13.7243 21.8278 12.9207 22.3009 12.0645 22.6795C11.3026 23.0167 10.4735 23.2963 9.61818 23.304C9.61275 23.304 9.609 23.3017 9.60357 23.3013C9.40914 23.8712 9.25684 24.4591 9.15253 25.0632C7.91123 32.2452 11.9151 37.1929 19.126 38.2352C23.3823 38.8504 27.4809 37.2479 30.1408 34.3327C31.1777 35.3005 33.2147 34.9956 34.7497 33.6215C36.3169 32.2195 36.8869 30.3093 35.749 29.1945Z" fill="#CD5428" stroke="#CD5428" stroke-width="0.280389" stroke-miterlimit="10"/>
</g>
<mask id="mask1_2146_9709" style="mask-type:luminance" maskUnits="userSpaceOnUse" x="8" y="16" width="29" height="23">
<path d="M35.749 29.195C35.0823 28.5421 34.1322 28.5736 33.2848 28.8789C32.8529 29.0345 32.4486 29.2495 32.0606 29.4815C31.8278 29.6205 31.3642 30.127 31.0801 30.0721C30.884 30.0345 30.8535 29.7365 30.7934 29.5944C30.2664 28.3474 29.1315 27.1904 28.2219 26.1654C27.2013 25.016 26.1119 23.9208 25.0266 22.824C23.1749 20.9527 21.4717 18.8958 20.3351 16.5779C19.9805 16.8709 19.2682 17.4615 19.1214 17.6021C17.7044 18.9592 16.1606 20.2246 14.4962 21.3202C13.7243 21.8283 12.9207 22.3014 12.0645 22.68C11.3026 23.0172 10.4735 23.2968 9.61818 23.3044C9.61275 23.3044 9.609 23.3021 9.60357 23.3018C9.40914 23.8716 9.25684 24.4596 9.15253 25.0637C7.91123 32.2457 11.9151 37.1934 19.126 38.2357C23.3823 38.8509 27.4809 37.2484 30.1408 34.3332C31.1777 35.301 33.2147 34.996 34.7497 33.622C36.3169 32.2199 36.8869 30.3098 35.749 29.195Z" fill="white"/>
</mask>
<g mask="url(#mask1_2146_9709)">
<path opacity="0.49" d="M26.8688 34.5517C26.2383 36.1919 24.2827 37.0509 22.5007 36.4707C20.7186 35.8904 19.7852 34.0905 20.4157 32.4503C21.0461 30.8102 23.0018 29.9511 24.7838 30.5313C26.5659 31.1116 27.4993 32.9115 26.8688 34.5517Z" fill="#8B2A0C" stroke="#8B2A0C" stroke-width="0.337564" stroke-miterlimit="10"/>
</g>
<mask id="mask2_2146_9709" style="mask-type:luminance" maskUnits="userSpaceOnUse" x="8" y="16" width="29" height="23">
<path d="M35.749 29.195C35.0823 28.5421 34.1322 28.5736 33.2848 28.8789C32.8529 29.0345 32.4486 29.2495 32.0606 29.4815C31.8278 29.6205 31.3642 30.127 31.0801 30.0721C30.884 30.0345 30.8535 29.7365 30.7934 29.5944C30.2664 28.3474 29.1315 27.1904 28.2219 26.1654C27.2013 25.016 26.1119 23.9208 25.0266 22.824C23.1749 20.9527 21.4717 18.8958 20.3351 16.5779C19.9805 16.8709 19.2682 17.4615 19.1214 17.6021C17.7044 18.9592 16.1606 20.2246 14.4962 21.3202C13.7243 21.8283 12.9207 22.3014 12.0645 22.68C11.3026 23.0172 10.4735 23.2968 9.61818 23.3044C9.61275 23.3044 9.609 23.3021 9.60357 23.3018C9.40914 23.8716 9.25684 24.4596 9.15253 25.0637C7.91123 32.2457 11.9151 37.1934 19.126 38.2357C23.3823 38.8509 27.4809 37.2484 30.1408 34.3332C31.1777 35.301 33.2147 34.996 34.7497 33.622C36.3169 32.2199 36.8869 30.3098 35.749 29.195Z" fill="white"/>
</mask>
<g mask="url(#mask2_2146_9709)">
<path opacity="0.49" d="M13.281 31.9822C12.7169 33.4499 10.9665 34.2191 9.37138 33.6995C7.77666 33.1803 6.94092 31.5694 7.50545 30.1012C8.06957 28.6335 9.81991 27.8643 11.415 28.3839C13.0098 28.9031 13.8451 30.5141 13.281 31.9822Z" fill="#8B2A0C" stroke="#8B2A0C" stroke-width="0.302111" stroke-miterlimit="10"/>
</g>
<mask id="mask3_2146_9709" style="mask-type:luminance" maskUnits="userSpaceOnUse" x="8" y="16" width="29" height="23">
<path d="M35.749 29.195C35.0823 28.5421 34.1322 28.5736 33.2848 28.8789C32.8529 29.0345 32.4486 29.2495 32.0606 29.4815C31.8278 29.6205 31.3642 30.127 31.0801 30.0721C30.884 30.0345 30.8535 29.7365 30.7934 29.5944C30.2664 28.3474 29.1315 27.1904 28.2219 26.1654C27.2013 25.016 26.1119 23.9208 25.0266 22.824C23.1749 20.9527 21.4717 18.8958 20.3351 16.5779C19.9805 16.8709 19.2682 17.4615 19.1214 17.6021C17.7044 18.9592 16.1606 20.2246 14.4962 21.3202C13.7243 21.8283 12.9207 22.3014 12.0645 22.68C11.3026 23.0172 10.4735 23.2968 9.61818 23.3044C9.61275 23.3044 9.609 23.3021 9.60357 23.3018C9.40914 23.8716 9.25684 24.4596 9.15253 25.0637C7.91123 32.2457 11.9151 37.1934 19.126 38.2357C23.3823 38.8509 27.4809 37.2484 30.1408 34.3332C31.1777 35.301 33.2147 34.996 34.7497 33.622C36.3169 32.2199 36.8869 30.3098 35.749 29.195Z" fill="white"/>
</mask>
<g mask="url(#mask3_2146_9709)">
<path d="M32.7641 35.967L32.1107 35.0438L31.408 35.8464L31.5737 34.5745L30.8076 34.1317L31.7723 34.0902L32.2363 33.1736L32.525 34.1429L33.508 34.3218L32.7332 34.7147L32.7641 35.967Z" fill="white" stroke="white" stroke-width="0.0711279" stroke-miterlimit="10" stroke-linecap="round"/>
<path d="M32.0859 30.5382C32.5896 30.1204 33.1716 29.7574 33.8672 29.5904C34.2105 29.509 34.6094 29.4913 34.9791 29.6457C35.3455 29.8093 35.6071 30.1104 35.7001 30.484C35.7761 30.8611 35.6467 31.2087 35.4894 31.5021C35.3204 31.7955 35.1143 32.0577 34.8823 32.2947C34.4221 32.7709 33.8859 33.1683 33.3085 33.4994C33.7812 33.0508 34.2285 32.5873 34.6245 32.1023C34.8147 31.8554 34.9996 31.6065 35.1268 31.3408C35.2566 31.0804 35.3417 30.8005 35.2837 30.5597C35.2378 30.3277 35.0405 30.0877 34.8026 29.9771C34.5594 29.8542 34.2448 29.8481 33.9331 29.8884C33.3047 29.9863 32.6805 30.2436 32.0859 30.5382Z" fill="#8B2A0C"/>
<path d="M30.1182 34.3607C30.2738 34.1675 30.391 33.9524 30.5024 33.7378C30.6118 33.5216 30.709 33.2996 30.792 33.0734C30.9685 32.6241 31.0966 32.1598 31.2247 31.6932C31.1938 31.9321 31.1525 32.1702 31.0941 32.4056C31.034 32.6402 30.9635 32.873 30.8776 33.1011C30.6969 33.5519 30.4782 34.0062 30.1182 34.3607Z" fill="#8B2A0C"/>
<path d="M20.3013 16.121C19.8403 16.313 19.4055 16.6087 19.2081 17.0523C19.0429 17.4233 19.0596 17.8918 19.3625 18.2013C19.6246 18.469 20.1248 18.5922 20.4182 18.2954C20.6426 18.068 20.6476 17.671 20.3347 17.5093C19.9354 17.3031 19.3625 17.487 19.0483 17.7474C18.7066 18.0308 18.5568 18.4874 18.6565 18.8991C18.7467 19.2716 19.1118 19.6237 19.5557 19.4908C19.9158 19.3833 20.0372 18.9152 19.6617 18.7478C19.2319 18.5561 18.7379 18.8591 18.5597 19.2186C18.3215 19.6982 18.5881 20.2274 18.9323 20.5957C19.0471 20.7186 19.2394 20.54 19.1255 20.4179C18.8785 20.1537 18.6641 19.7846 18.7675 19.4256C18.8126 19.2696 18.9232 19.1272 19.0692 19.0373C19.1656 18.9782 19.6634 18.8207 19.6208 19.1122C19.5874 19.3403 19.2286 19.2689 19.1134 19.1717C18.9649 19.0461 18.9056 18.8476 18.8994 18.6675C18.8873 18.3169 19.088 17.982 19.4197 17.8092C19.6325 17.6982 20.3735 17.5319 20.3059 17.9559C20.2387 18.3783 19.6742 18.2028 19.5002 17.9528C19.0237 17.267 19.8236 16.5945 20.4403 16.3376C20.5992 16.2716 20.4607 16.055 20.3013 16.121Z" fill="#1A0000"/>
<path d="M15.6562 28.8408C15.7681 28.5386 15.9684 28.2533 16.2583 28.0463C16.5425 27.8366 16.9347 27.7187 17.3098 27.7629C17.4946 27.7821 17.6824 27.8305 17.8514 27.9173C18.0154 28.0117 18.1585 28.1377 18.2528 28.2882C18.4476 28.587 18.4793 28.9342 18.4201 29.2475C18.3667 28.9342 18.2544 28.6335 18.0638 28.4061C17.8731 28.1772 17.5919 28.0551 17.2798 28.0309C16.9718 27.991 16.6635 28.0705 16.3881 28.2187C16.114 28.3716 15.867 28.5881 15.6562 28.8408Z" fill="#8B2A0C"/>
<g opacity="0.53">
<path d="M15.6738 28.8432C15.6738 28.8432 16.3251 27.7073 17.5118 27.9838C18.5307 28.2211 18.4189 29.3456 18.4189 29.3456" fill="#8B2A0C"/>
<path d="M15.6738 28.8435C15.7978 28.5455 16.0101 28.2675 16.308 28.0705C16.6005 27.8712 16.9973 27.7667 17.3704 27.8239C17.5544 27.8497 17.7396 27.9042 17.9053 27.9971C18.0655 28.097 18.2032 28.2283 18.2912 28.3815C18.474 28.6868 18.4911 29.0351 18.4189 29.3458C18.3784 29.0309 18.2787 28.7264 18.0972 28.4929C17.9161 28.2575 17.6399 28.1258 17.329 28.0904C17.0232 28.0398 16.7115 28.1085 16.4303 28.2471C16.1503 28.3907 15.8946 28.5985 15.6738 28.8435Z" fill="#8B2A0C"/>
</g>
<path d="M9.65248 25.7253C9.54441 27.3636 10.9101 28.7702 12.7026 28.8666C14.495 28.963 16.0355 27.7134 16.1432 26.0752C16.2512 24.4369 14.8856 23.0302 13.0931 22.9338C11.301 22.8371 9.76055 24.0871 9.65248 25.7253Z" fill="white"/>
<path d="M11.2327 25.1637C10.9898 26.406 11.7951 27.5918 13.0318 27.8127C14.2685 28.0335 15.4677 27.2051 15.711 25.9632C15.9542 24.7213 15.1485 23.535 13.9118 23.3142C12.6751 23.0934 11.4755 23.9213 11.2327 25.1637Z" fill="#280707" stroke="#280707" stroke-width="0.282609" stroke-miterlimit="10"/>
<path d="M16.221 25.4688C16.0508 25.1416 15.8605 24.8263 15.6302 24.5429C15.4074 24.2564 15.1646 23.9876 14.8813 23.7683C14.593 23.5559 14.2829 23.3846 13.9546 23.2633C13.6183 23.1615 13.2715 23.0947 12.9123 23.1032C12.1821 23.1012 11.4644 23.2898 10.8987 23.69C10.3112 24.0755 9.92314 24.7099 9.69365 25.3712L9.65527 25.4822L9.56472 25.4503C9.35026 25.375 9.13747 25.2948 8.92676 25.2072L8.93635 25.1757L9.59727 25.3416L9.57224 25.357C9.71118 24.6408 10.0884 23.9488 10.7017 23.4757C11.3105 23.001 12.1208 22.771 12.9123 22.7817C13.3112 22.7802 13.7071 22.8539 14.0781 22.9876C14.4427 23.135 14.777 23.3409 15.0649 23.5936C15.6273 24.1112 16.0249 24.7645 16.2557 25.4615L16.221 25.4688Z" fill="black"/>
<path d="M9.68493 24.9283L9.07324 24.4724L9.84473 24.6141L9.68493 24.9283Z" fill="black"/>
<path d="M9.99076 24.2634L9.48047 23.7423L10.1998 23.9746L9.99076 24.2634Z" fill="black"/>
<path d="M15.2343 28.1069C14.8371 28.4056 14.3702 28.6291 13.8728 28.7735C13.3759 28.9195 12.8385 28.974 12.3098 28.911C12.0436 28.8853 11.7895 28.8039 11.5375 28.7248C11.3021 28.6088 11.056 28.5113 10.8582 28.3457C10.6379 28.2094 10.4739 28.0174 10.3003 27.8407C10.1414 27.6526 10.0133 27.4433 9.88477 27.2424C10.2378 27.585 10.5832 27.921 11.0055 28.1537C11.4119 28.403 11.8738 28.5623 12.3532 28.6126C12.8309 28.6748 13.3237 28.6399 13.8073 28.547C14.2896 28.4471 14.7711 28.3058 15.2343 28.1069Z" fill="black"/>
<path d="M27.249 28.6266C26.79 30.3221 24.8603 31.3597 22.9384 30.9446C21.0166 30.5291 19.8304 28.8179 20.2889 27.1224C20.7479 25.427 22.6777 24.3893 24.5999 24.8044C26.5217 25.2196 27.7076 26.9308 27.249 28.6266Z" fill="white"/>
<path d="M27.2397 27.8542C27.0649 29.1641 25.8311 30.1226 24.4834 29.9955C23.1357 29.8684 22.1848 28.7033 22.3596 27.3933C22.5344 26.0834 23.7682 25.1249 25.1159 25.252C26.4636 25.3795 27.4145 26.5443 27.2397 27.8542Z" fill="#280707" stroke="#280707" stroke-width="0.299669" stroke-miterlimit="10"/>
<path d="M20.4307 26.5912C20.8145 25.89 21.422 25.2863 22.1952 24.8735C22.5824 24.6661 23.0226 24.5363 23.4778 24.4829C23.9334 24.4468 24.4012 24.4699 24.8397 24.587C25.7046 24.7967 26.5104 25.3009 27.0202 26.0067C27.2739 26.3608 27.4062 26.7717 27.4779 27.173C27.5514 27.5786 27.5343 27.9837 27.4279 28.3819L27.3227 28.2636C27.5677 28.2913 27.8126 28.3243 28.0571 28.3654L28.0563 28.4L27.3194 28.3842L27.296 28.3839L27.2989 28.3612C27.3974 27.6058 27.2259 26.8036 26.7536 26.1734C26.2804 25.5417 25.534 25.1181 24.7375 24.9119C24.3411 24.7963 23.9222 24.7683 23.5091 24.7909C23.0973 24.8343 22.6942 24.9399 22.3187 25.1054C21.5764 25.4511 20.9401 25.9848 20.4624 26.61L20.4307 26.5912Z" fill="black"/>
<path d="M27.3154 27.5454L28.1566 27.6238L27.3705 27.9099L27.3154 27.5454Z" fill="black"/>
<path d="M27.1709 26.8062L27.9879 26.7793L27.2823 27.1595L27.1709 26.8062Z" fill="black"/>
<path d="M20.5762 29.5238C20.7844 29.6874 20.9926 29.8456 21.2187 29.9808C21.4349 30.1263 21.6631 30.2554 21.8976 30.3687C22.3666 30.5937 22.8602 30.7677 23.3717 30.8379C23.8812 30.922 24.4073 30.8909 24.9109 30.7604C25.4262 30.6521 25.8919 30.404 26.3746 30.1647C26.1719 30.3303 25.9674 30.505 25.7388 30.6482C25.4984 30.7742 25.2623 30.9163 24.9923 30.9942C24.7345 31.1068 24.449 31.1329 24.1695 31.1828C23.8858 31.1909 23.5987 31.2016 23.3179 31.1528C22.7567 31.0676 22.2222 30.8671 21.7607 30.578C21.3001 30.2907 20.8854 29.9424 20.5762 29.5238Z" fill="black"/>
<path opacity="0.49" d="M18.8101 30.4534C18.7183 30.9872 18.1212 31.9446 16.7927 31.7783C15.8739 31.6634 15.2769 30.688 15.3687 30.1542C15.3687 30.1542 16.2532 29.9837 17.1837 30.0359C17.8304 30.0724 18.8101 30.4534 18.8101 30.4534Z" fill="#8B2A0C"/>
<path d="M14.7715 29.6709C15.1145 29.942 15.4758 30.1755 15.8534 30.3644C16.2331 30.5488 16.6349 30.682 17.0463 30.7181C17.4552 30.7596 17.8779 30.7181 18.2743 30.5749C18.4825 30.5261 18.664 30.4136 18.8659 30.3337C19.0587 30.2377 19.2381 30.1183 19.4413 30.0188C19.2948 30.1751 19.1426 30.3341 18.9711 30.4747C18.7833 30.5941 18.6106 30.7458 18.3903 30.8249C17.9784 31.0357 17.4807 31.1079 17.0058 31.0645C16.5285 31.0154 16.0762 30.8441 15.6986 30.5949C15.321 30.3456 14.9951 30.0357 14.7715 29.6709Z" fill="#3B130E"/>
<path d="M10.728 22.0357C10.8147 21.6424 11.0555 21.2815 11.3797 21.0034C11.6989 20.7166 12.1028 20.5157 12.5246 20.3848C12.9531 20.2722 13.3971 20.2277 13.8293 20.268C14.0451 20.2807 14.2554 20.3348 14.4627 20.3759C14.6651 20.4493 14.8662 20.5084 15.0556 20.601L15.0598 20.6029C15.069 20.6075 15.0723 20.6179 15.0677 20.6259C15.064 20.6325 15.0561 20.6359 15.0485 20.6348L14.4435 20.5583C14.2403 20.5537 14.0371 20.533 13.8344 20.5414C13.4284 20.551 13.0245 20.6075 12.6381 20.7169C11.8716 20.937 11.1594 21.3967 10.7626 22.0507C10.7576 22.0591 10.7459 22.0622 10.7371 22.0572C10.7296 22.0533 10.7263 22.0457 10.728 22.0388V22.0357Z" fill="#2E2E2E"/>
<path d="M27.8455 24.271C27.6131 23.9488 27.341 23.6869 27.0677 23.4488C26.7869 23.2165 26.4898 23.0153 26.1661 22.8478C26.0025 22.7661 25.8398 22.6823 25.6629 22.6194C25.4955 22.5349 25.3095 22.4922 25.1309 22.4193L23.9768 22.0606L23.9705 22.0587C23.9609 22.0556 23.9559 22.046 23.9588 22.0372C23.9618 22.0299 23.9693 22.0253 23.9772 22.0257L24.5905 22.0591C24.7925 22.0909 24.9978 22.1074 25.1972 22.1524C25.5982 22.2353 25.9879 22.3644 26.3517 22.5449C27.0606 22.9262 27.6498 23.5291 27.8818 24.2634C27.8847 24.2722 27.8789 24.2814 27.8693 24.2841C27.8613 24.286 27.8534 24.2833 27.8492 24.2772L27.8455 24.271Z" fill="#2E2E2E"/>
</g>
</svg>
