<svg width="79" height="68" viewBox="0 0 79 68" fill="none" xmlns="http://www.w3.org/2000/svg">
<path d="M74.5555 46.3393C74.5555 46.3393 78.8613 44.2834 78.9977 39.0231C79.1341 33.7628 73.1518 33.6129 73.1518 33.6129C76.1702 31.1256 75.3436 26.8921 75.3436 26.8921C75.3509 19.1335 69.308 18.8428 69.308 18.8428C69.308 18.8428 71.6062 16.0875 70.5183 12.4946C68.4037 5.51065 61.4711 7.35791 61.4711 7.35791C60.7142 3.74295 57.9131 0.900156 54.363 0.342737C54.3091 0.334171 54.2559 0.32623 54.202 0.318275C50.5785 -0.209774 47.0351 1.76474 45.35 5.1166L45.1132 5.58775C44.978 5.14292 44.7461 4.68646 44.4677 4.2453C43.028 1.96422 40.6367 0.508557 38.021 0.118792C31.8043 -0.806977 28.9022 3.98219 28.9022 3.98219C26.3409 0.873251 20.5066 2.06028 20.5066 2.06028C7.68416 5.17901 10.9724 18.2817 10.9724 18.2817C10.9724 18.2817 4.98455 14.4807 1.09363 23.3383C-2.79668 32.1964 4.94234 38.2564 4.94234 38.2564C3.77121 38.7361 2.6937 41.0723 2.6937 41.0723C-0.0628031 49.9781 11.0782 52.4312 11.0782 52.4312C7.21791 61.3021 18.165 60.9638 18.165 60.9638C19.3398 65.7364 23.1022 61.8742 23.1022 61.8742C22.9517 67.8406 27.3499 65.0517 27.3499 65.0517C28.4567 68.5706 31.4274 64.7941 31.4274 64.7941L32.0448 64.6723C32.1543 66.1598 33.3683 67.3664 34.9175 67.4288C36.2851 67.4845 37.4629 66.6279 37.8809 65.4133C38.6794 66.7227 40.1986 67.6424 41.981 67.7146C44.6341 67.8223 46.8644 66.0148 47.0229 63.6603C47.5112 64.3413 48.295 64.8057 49.2061 64.843C50.4421 64.8932 51.5128 64.1467 51.9375 63.0717C54.068 67.5023 57.7026 63.9081 57.7026 63.9081C61.1181 66.2608 62.466 62.4402 62.466 62.4402C62.466 62.4402 65.5658 64.8626 68.8436 60.4051C70.6811 57.9062 68.8038 53.8011 68.8038 53.8011C68.8038 53.8011 72.6109 56.6476 75.3179 53.3043C78.3093 49.6079 74.5555 46.3393 74.5555 46.3393Z" fill="#FF5A5F"/>
<path d="M35.1184 56.9139L35.1649 61.1523L32.2922 61.2111C32.2922 61.2111 31.1804 67.0973 37.8486 67.4846C43.5629 67.8163 44.4373 61.0232 44.4373 61.0232L40.8719 60.9137V56.7009L35.1184 56.9139Z" fill="#FDFDFF" stroke="#FDFDFF" stroke-width="0.441652" stroke-miterlimit="10"/>
<path d="M59.2633 42.316C57.7979 41.4294 55.8778 41.7433 54.3114 42.9413C54.4234 42.1808 54.4944 41.4061 54.5103 40.6162C54.5152 40.3684 54.5011 40.1255 54.4968 39.8795C54.2423 39.8777 53.9877 39.8764 53.7332 39.866C51.2208 39.7633 49.6373 37.8309 47.3972 36.6739C45.5353 35.712 44.8579 35.5407 43.5069 33.9382C42.2354 32.4311 38.5776 29.1136 37.9339 26.3105C36.2084 29.0689 33.4685 32.2164 31.1794 33.8605C27.6538 36.3924 24.4824 39.2835 20.1308 39.7584C20.1295 39.8085 20.1253 39.8581 20.124 39.9083C20.113 40.4388 20.1289 40.9638 20.1626 41.4839C19.2301 40.8756 18.1636 40.6333 17.1265 40.8879C14.7769 41.4661 13.473 44.3743 14.2133 47.3848C14.9537 50.3946 17.4587 52.3661 19.8083 51.7878C21.0333 51.4862 21.9701 50.5482 22.4853 49.2957C25.4088 54.4385 30.7621 57.9378 36.9512 58.0651C43.1881 58.1936 48.7201 54.8668 51.8394 49.7821C52.1203 50.6828 52.6618 51.4409 53.4523 51.9194C55.5223 53.1719 58.5015 52.0375 60.1059 49.3856C61.7108 46.7338 61.3339 43.5685 59.2633 42.316Z" fill="#FDFDFF" stroke="#FDFDFF" stroke-width="0.559683" stroke-miterlimit="10"/>
<path d="M20.7947 44.0934C20.1295 43.328 19.3323 42.6286 18.4297 42.3526C17.537 42.0614 16.5678 42.5509 16.0808 43.3078C15.5913 44.0861 15.601 45.1269 15.7528 46.0979C15.918 47.0812 16.2099 48.0596 16.5813 49.0141C16.0269 48.1502 15.5925 47.1987 15.3422 46.1806C15.1018 45.182 15.0167 44.0151 15.6163 43.0171C15.9192 42.5283 16.3794 42.166 16.8988 41.9457C17.4281 41.7267 18.0504 41.7292 18.5674 41.9292C19.6131 42.3374 20.3064 43.2019 20.7947 44.0934Z" fill="#6B7280"/>
<path d="M22.9633 49.9304C22.4897 49.2677 22.2045 48.4925 21.9616 47.7215C21.8478 47.3317 21.7517 46.9377 21.671 46.5406C21.592 46.1429 21.5364 45.7415 21.4941 45.3389C21.6795 46.127 21.8564 46.9132 22.0932 47.6823C22.2039 48.0691 22.333 48.4503 22.4737 48.8272C22.6194 49.201 22.7675 49.5767 22.9633 49.9304Z" fill="#6B7280"/>
<path d="M54.1211 44.9668C54.7158 44.1426 55.5107 43.3698 56.5974 43.0944C57.1352 42.9598 57.7532 43.0338 58.2513 43.3171C58.7395 43.6004 59.1513 44.0159 59.3918 44.539C59.8635 45.6037 59.6347 46.751 59.2725 47.7122C58.8986 48.6912 58.3504 49.5821 57.6932 50.3708C58.1797 49.4689 58.5908 48.5346 58.876 47.5795C59.1464 46.6347 59.2853 45.6025 58.8956 44.7703C58.5058 43.9596 57.6051 43.3532 56.683 43.5325C55.753 43.6941 54.8755 44.2894 54.1211 44.9668Z" fill="#6B7280"/>
<path d="M51.5176 50.2499C51.6993 49.8882 51.8327 49.507 51.9636 49.1277C52.0897 48.7459 52.2041 48.3604 52.2996 47.9694C52.507 47.1917 52.6526 46.3993 52.8074 45.6045C52.7811 46.0083 52.7413 46.4122 52.6771 46.8123C52.6122 47.2125 52.5315 47.6102 52.4323 48.0037C52.22 48.7832 51.9649 49.5695 51.5176 50.2499Z" fill="#6B7280"/>
<path d="M55.8459 53.8553L54.8192 52.3568L53.7845 53.7042L53.9877 51.6024L52.8086 50.8999L54.2704 50.7978L54.9391 49.2705L55.4133 50.8583L56.9118 51.1184L55.7511 51.7927L55.8459 53.8553Z" fill="white" stroke="white" stroke-width="0.141955" stroke-miterlimit="10" stroke-linecap="round"/>
<path d="M20.8874 53.6574L19.6313 52.3461L18.8291 53.8434L18.6877 51.7367L17.4102 51.235L18.8358 50.8966L19.2476 49.2812L19.9739 50.77L21.4944 50.784L20.4591 51.6376L20.8874 53.6574Z" fill="white" stroke="white" stroke-width="0.141955" stroke-miterlimit="10" stroke-linecap="round"/>
<path opacity="0.49" d="M32.7992 49.4894C32.5625 52.1253 30.233 54.0699 27.5971 53.8325C24.9611 53.5957 23.0166 51.2663 23.254 48.6303C23.4914 45.9943 25.8202 44.0498 28.4562 44.2872C31.0921 44.524 33.0367 46.8534 32.7992 49.4894Z" fill="#6B7280" stroke="#6B7280" stroke-width="0.621911" stroke-miterlimit="10"/>
<path opacity="0.49" d="M51.518 49.2589C51.2806 51.8949 48.9518 53.8394 46.3158 53.602C43.6799 53.3652 41.7353 51.0358 41.9727 48.3998C42.2102 45.7639 44.539 43.8193 47.1749 44.0567C49.8103 44.2941 51.7548 46.6229 51.518 49.2589Z" fill="#6B7280" stroke="#6B7280" stroke-width="0.621911" stroke-miterlimit="10"/>
<path d="M37.7336 26.2562C37.5911 27.0406 37.2392 27.7736 36.9455 28.5091C36.6824 29.1675 36.5325 29.8607 36.8691 30.5289C37.1695 31.1255 37.9331 31.5795 38.5878 31.2521C39.0804 31.0062 39.2743 30.2627 38.8681 29.8473C38.37 29.3388 37.4601 29.7677 37.0361 30.163C36.4499 30.7088 36.2651 31.5893 36.5545 32.3321C36.7871 32.9281 37.4167 33.4739 38.0806 33.1704C38.586 32.9391 38.7683 32.1351 38.1479 31.9111C37.4387 31.6548 36.7614 32.37 36.628 33.0033C36.4438 33.8771 37.0612 34.6407 37.7306 35.1112C37.949 35.2648 38.1564 34.9057 37.9398 34.7533C37.4436 34.4045 36.948 33.8508 37.0183 33.1979C37.0514 32.895 37.2129 32.5824 37.4736 32.4123C37.5568 32.3578 37.7942 32.2226 37.8835 32.2838C37.938 32.4233 37.9931 32.5622 38.0475 32.7011C37.9533 32.7892 37.8425 32.8363 37.7159 32.8418C36.9761 32.8846 36.7497 31.793 36.8684 31.2552C37.0012 30.655 37.5776 30.0535 38.2256 30.0467C38.6307 30.0425 38.8099 30.4322 38.5615 30.7492C38.2923 31.0924 37.7502 30.9248 37.4834 30.6764C37.0453 30.2689 37.0073 29.5989 37.1787 29.0616C37.4681 28.1518 37.9606 27.3141 38.1332 26.3657C38.1809 26.1057 37.7814 25.9937 37.7336 26.2562Z" fill="#1A0000"/>
<path d="M30.2719 30.8825C29.6674 30.8078 29.0971 30.8342 28.555 30.8874C28.0122 30.9547 27.4921 31.0716 26.988 31.2539C26.4832 31.4375 25.9961 31.6798 25.5048 31.9545C25.2582 32.0897 25.0239 32.2537 24.7663 32.3957C24.5105 32.5443 24.2804 32.7255 23.9965 32.868L23.9855 32.8735C23.9726 32.8803 23.9567 32.8748 23.95 32.8619C23.9451 32.8515 23.9469 32.8399 23.9543 32.8319L24.5656 32.1839C24.7926 31.993 25.003 31.7801 25.2447 31.6063C25.7183 31.2453 26.2427 30.951 26.8001 30.7338C27.9272 30.3483 29.2036 30.3312 30.297 30.8329C30.3105 30.8391 30.316 30.855 30.3098 30.8678C30.305 30.8788 30.2939 30.8843 30.2823 30.8831L30.2719 30.8825Z" fill="#2E2E2E"/>
<path d="M43.4927 30.6003C43.9216 30.1365 44.5133 29.8294 45.1417 29.6972C45.7719 29.5491 46.4376 29.5809 47.0691 29.7241C47.692 29.9003 48.2806 30.1757 48.7774 30.5642C49.0332 30.746 49.2461 30.9821 49.4658 31.1963C49.653 31.4502 49.8495 31.6852 50.0031 31.955L50.0061 31.9611C50.0135 31.974 50.0092 31.9905 49.9957 31.9985C49.9853 32.004 49.9731 32.0027 49.9645 31.9954L49.2871 31.4264C49.0412 31.2642 48.8105 31.0788 48.5529 30.9363C48.0469 30.6358 47.5005 30.4082 46.9339 30.2601C45.805 29.9774 44.5476 30.0674 43.5214 30.6474C43.508 30.6548 43.4915 30.6505 43.4841 30.637C43.478 30.6266 43.4798 30.6132 43.4878 30.6052L43.4927 30.6003Z" fill="#2E2E2E"/>
<path d="M34.7129 45.501C34.8004 44.8732 35.0702 44.2577 35.5132 43.759C35.9489 43.2591 36.6109 42.9024 37.2987 42.8675C37.637 42.8455 37.9901 42.8785 38.3242 42.9936C38.6515 43.1245 38.9526 43.324 39.1741 43.5865C39.6244 44.1066 39.8141 44.7698 39.8104 45.4013C39.5975 44.8102 39.302 44.2571 38.8761 43.8777C38.4539 43.4934 37.9063 43.346 37.3384 43.3998C36.7725 43.4213 36.2475 43.6758 35.8057 44.0539C35.3651 44.4382 35.0084 44.9442 34.7129 45.501Z" fill="#6B7280"/>
<g opacity="0.53">
<path d="M39.8456 45.5925C39.8456 45.5925 39.6522 43.3659 37.742 43.2325C35.5172 43.0771 34.748 45.5001 34.748 45.5001" fill="#6B7280"/>
<path d="M39.8469 45.5928C39.6572 44.9937 39.3831 44.4296 38.9719 44.0343C38.5638 43.6347 38.0229 43.4665 37.4533 43.4995C36.8873 43.5001 36.3531 43.7345 35.8979 44.0955C35.4432 44.4638 35.0676 44.9564 34.75 45.501C34.8607 44.8769 35.1532 44.2711 35.6152 43.7896C36.0698 43.3068 36.7453 42.9752 37.4337 42.9666C37.7727 42.958 38.1245 43.0033 38.4537 43.1318C38.7761 43.2744 39.0686 43.4861 39.2797 43.7565C39.7092 44.2931 39.8738 44.9619 39.8469 45.5928Z" fill="#6B7280"/>
</g>
<path d="M50.3982 40.9986C50.3266 43.5134 48.1636 45.4824 45.568 45.3961C42.9719 45.3099 40.9257 43.2013 40.9979 40.6871C41.0695 38.1723 43.2325 36.2033 45.8281 36.2896C48.4243 36.3759 50.4704 38.4838 50.3982 40.9986Z" fill="white"/>
<path d="M47.2125 43.5806C49.0028 43.3489 50.2581 41.6466 50.0164 39.7783C49.7747 37.91 48.1274 36.5832 46.3372 36.8148C44.547 37.0464 43.2916 38.7487 43.5334 40.617C43.7751 42.4853 45.4223 43.8122 47.2125 43.5806Z" fill="#280707" stroke="#280707" stroke-width="0.521747" stroke-miterlimit="10"/>
<path d="M40.8496 39.8714C41.1396 38.7792 41.7613 37.7647 42.6589 36.9894C43.5523 36.1922 44.8286 35.8477 46.0261 35.9389C47.2052 36.0172 48.3879 36.5159 49.2611 37.359C49.6973 37.7837 49.9965 38.3215 50.2168 38.8642C50.4395 39.4119 50.5472 39.9858 50.5332 40.5769L50.3637 40.4398C50.691 40.4166 51.0196 40.4001 51.3506 40.3952L51.3592 40.4441L50.393 40.6111L50.363 40.6167L50.36 40.5848C50.2523 39.4945 49.7726 38.4212 48.968 37.6686C48.1615 36.916 47.0754 36.5134 45.982 36.4229C45.435 36.3702 44.8806 36.4118 44.3501 36.5556C43.8251 36.7135 43.324 36.9552 42.8823 37.2856C42.0091 37.9568 41.3312 38.8777 40.8967 39.8879L40.8496 39.8714Z" fill="black"/>
<path d="M50.1328 39.4381L51.247 39.3347L50.3048 39.938L50.1328 39.4381Z" fill="black"/>
<path d="M49.7109 38.4431L50.7621 38.199L49.9532 38.913L49.7109 38.4431Z" fill="black"/>
<path d="M42.2598 44.2516C42.9157 44.5637 43.5979 44.7889 44.282 44.9541C44.9685 45.1089 45.6685 45.1792 46.3532 45.1089C47.041 45.0587 47.7073 44.8378 48.3063 44.4878C48.9268 44.1617 49.4414 43.6667 49.9682 43.1619C49.7693 43.4617 49.5741 43.7786 49.3306 44.054C49.073 44.3171 48.8197 44.5949 48.4972 44.7913C48.2041 45.0318 47.845 45.1621 47.5042 45.3242C47.1413 45.4313 46.7766 45.5372 46.3979 45.5653C45.6453 45.6332 44.8872 45.5323 44.1853 45.2973C43.4829 45.0654 42.8227 44.7154 42.2598 44.2516Z" fill="black"/>
<path d="M23.3443 40.5069C23.075 42.9385 24.9345 45.1241 27.4971 45.3885C30.0602 45.6528 32.356 43.8961 32.6252 41.4645C32.8944 39.0329 31.0349 36.8473 28.4724 36.583C25.9093 36.3186 23.6135 38.0753 23.3443 40.5069Z" fill="white"/>
<path d="M26.0597 39.8396C25.6247 41.6728 26.6967 43.4919 28.454 43.9043C30.2113 44.3161 31.9888 43.1646 32.4244 41.3314C32.8595 39.4988 31.7875 37.6791 30.0302 37.2673C28.2723 36.8549 26.4948 38.0065 26.0597 39.8396Z" fill="#280707" stroke="#280707" stroke-width="0.521747" stroke-miterlimit="10"/>
<path d="M32.7771 40.5683C32.555 40.0604 32.3005 39.5715 31.9872 39.131C31.6843 38.6855 31.3484 38.2719 30.9568 37.9293C30.5572 37.5958 30.1259 37.3272 29.6676 37.1228C29.2007 36.9362 28.7026 36.8389 28.196 36.8279C27.1674 36.7857 26.1242 36.9753 25.2878 37.5456C24.425 38.0767 23.7978 38.9909 23.4234 39.9833L23.3609 40.1485L23.2368 40.0959C22.9345 39.968 22.6347 39.8328 22.3379 39.6866L22.3526 39.6388L23.2888 39.9301L23.2527 39.9521C23.5054 38.8667 24.127 37.8552 25.0399 37.1993C25.9553 36.5483 27.1069 36.2766 28.2192 36.3427C28.7785 36.3696 29.3329 36.4932 29.8468 36.7165C30.3541 36.9527 30.8234 37.2703 31.2187 37.6668C31.9976 38.4695 32.5379 39.4816 32.8267 40.5585L32.7771 40.5683Z" fill="black"/>
<path d="M23.4507 39.3304L22.5996 38.6035L23.6894 38.8587L23.4507 39.3304Z" fill="black"/>
<path d="M23.9355 38.3611L23.2324 37.543L24.2396 37.9291L23.9355 38.3611Z" fill="black"/>
<path d="M31.1776 44.4292C30.5829 44.8507 29.8988 45.1512 29.1811 45.3329C28.4634 45.5164 27.7004 45.5617 26.9545 45.4394C26.5788 45.3837 26.2227 45.2521 25.8684 45.1187C25.5398 44.9321 25.1911 44.7761 24.9163 44.5148C24.6092 44.2958 24.3766 44.0002 24.1392 43.7194C23.9159 43.4263 23.7446 43.0971 23.5684 42.7832C24.0566 43.3247 24.5345 43.8558 25.1293 44.2266C25.7014 44.6188 26.3499 44.8881 27.0322 44.9878C27.7101 45.1077 28.4132 45.0882 29.1095 44.9841C29.804 44.8673 30.5009 44.6929 31.1776 44.4292Z" fill="black"/>
<path opacity="0.49" d="M41.7636 46.317C41.9581 46.8689 41.0464 49.588 38.7513 50.1363C36.6495 50.638 34.3862 49.3867 34.2656 48.3319C34.2656 48.3319 36.22 46.555 38.315 46.3157C40.4101 46.0765 41.7636 46.317 41.7636 46.317Z" fill="#6B7280"/>
<path d="M33.0098 47.976C33.4522 48.0861 33.8927 48.1828 34.3412 48.2287C34.7854 48.2948 35.2321 48.3199 35.6775 48.3284C36.5672 48.3297 37.4532 48.2244 38.297 47.9742C39.142 47.7343 39.9564 47.3702 40.687 46.8667C41.4445 46.3943 42.0784 45.7561 42.7313 45.1179C42.4706 45.4875 42.2124 45.8711 41.9095 46.2162C41.5834 46.5387 41.2756 46.8881 40.895 47.1561C40.1803 47.752 39.3158 48.1571 38.423 48.4202C37.5254 48.6741 36.5825 48.7708 35.6598 48.6833C34.7401 48.5964 33.8297 48.381 33.0098 47.976Z" fill="#3B130E"/>
</svg>
