<svg width="218" height="201" viewBox="0 0 218 201" fill="none" xmlns="http://www.w3.org/2000/svg">
<path d="M201.965 140.187C201.965 140.187 214.583 135.881 216.685 121.474C218.787 107.066 202.242 104.79 202.242 104.79C211.43 98.897 210.523 87.0105 210.523 87.0105C213.086 65.7006 196.42 63.0192 196.42 63.0192C196.42 63.0192 203.697 56.1661 201.857 45.9586C198.281 26.1144 178.445 29.0266 178.445 29.0266C177.531 18.8596 170.692 10.1778 161.027 7.54224C160.881 7.50172 160.735 7.46294 160.589 7.42595C150.711 4.84501 140.233 9.16651 134.462 17.8483L133.651 19.0693C133.422 17.8043 132.929 16.4795 132.3 15.1811C129.055 8.46715 122.899 3.72277 115.77 1.83596C98.8294 -2.6459 89.2098 9.60699 89.2098 9.60699C83.1242 0.26803 66.5522 1.71085 66.5522 1.71085C29.9626 6.28255 34.7878 43.3019 34.7878 43.3019C34.7878 43.3019 19.4238 30.9926 5.73027 54.1154C-7.96509 77.2364 11.5161 96.2949 11.5161 96.2949C8.11036 97.2462 4.35603 103.329 4.35603 103.329C-6.20803 126.935 23.8914 137.146 23.8914 137.146C10.2755 160.313 40.7524 162.793 40.7524 162.793C42.4463 176.271 54.1498 166.833 54.1498 166.833C51.7769 183.175 64.889 176.885 64.889 176.885C66.8068 186.897 76.2838 177.447 76.2838 177.447L78.0372 177.305C77.853 181.425 80.8254 185.118 85.1016 185.773C88.8757 186.351 92.4242 184.366 93.9826 181.161C95.7686 185.007 99.6818 188.007 104.601 188.761C111.925 189.884 118.704 185.613 119.914 179.195C121.047 181.218 123.067 182.74 125.581 183.124C128.992 183.647 132.208 181.929 133.738 179.109C138.195 191.945 149.454 183.203 149.454 183.203C158.156 190.731 163.147 180.656 163.147 180.656C163.147 180.656 170.952 188.275 181.505 177.053C187.421 170.762 183.56 158.898 183.56 158.898C183.56 158.898 193.187 167.904 201.792 159.564C211.307 150.338 201.965 140.187 201.965 140.187Z" fill="#1A0000" stroke="#1A0000" stroke-width="1.70036" stroke-miterlimit="10" stroke-linecap="round"/>
<path d="M19.5904 19.4179C21.9289 19.2611 24.876 19.4179 24.941 22.3618C24.9663 23.5281 24.5293 24.8652 23.9226 25.8606C23.5903 26.405 23.2056 26.9652 22.5429 27.1731C21.3131 27.5589 20.701 26.2711 21.286 25.3514C22.5266 23.4047 25.9685 23.7007 27.3193 25.3056C28.6556 26.8912 27.8574 29.5637 25.806 30.0958C26.0083 30.4358 26.2123 30.7758 26.4146 31.1158C28.0254 29.8985 30.1183 31.2374 30.5427 32.9181C30.772 33.8236 30.6348 34.7926 30.3043 35.6576C30.0732 36.2636 29.6885 36.8115 29.7716 37.4898C29.9269 38.76 31.4582 39.7272 32.1445 40.7296C33.1088 42.139 33.7119 43.7035 34.0225 45.3648C34.167 46.1364 35.3714 45.8087 35.2288 45.0406C34.8622 43.0745 34.0785 41.2159 32.8596 39.6056C32.009 38.4816 30.9436 37.9813 31.3571 36.3411C31.5883 35.4286 31.9295 34.6799 31.897 33.7091C31.7923 30.5732 28.3522 28.1209 25.5297 30.2526C25.0115 30.6437 25.5821 31.4171 26.1383 31.2726C28.5364 30.649 29.8095 27.9412 28.9698 25.6985C28.0633 23.2726 24.9681 22.2931 22.5844 23.0471C21.3817 23.4276 20.1718 24.2873 19.8522 25.5417C19.5777 26.6181 20.0346 27.8531 21.1217 28.2953C24.123 29.518 25.8837 25.3127 26.1401 23.1387C26.3225 21.5937 25.9216 20.0187 24.5925 19.0603C23.1713 18.035 21.2698 18.0896 19.5922 18.2006C18.7922 18.2517 18.785 19.4708 19.5904 19.4179Z" fill="#1A0000"/>
<path d="M216.956 49.0937C214.437 47.4976 211.073 46.407 209.19 49.4531C207.976 51.4174 207.167 55.6156 209.735 56.9228C210.786 57.4584 211.987 57.1448 212.662 56.2093C213.46 55.103 213.188 53.6618 212.469 52.5889C211.039 50.4555 207.86 49.439 205.538 50.8078C203.241 52.1626 202.781 55.5768 204.718 57.3949C205.265 57.9076 205.964 57.2628 205.701 56.655C204.254 53.3201 199.734 54.3577 198.304 57.0937C197.898 57.8689 197.788 58.6528 197.625 59.4914C197.351 60.9061 195.922 60.9572 194.792 61.4487C192.892 62.275 191.252 63.5399 189.938 65.1061C189.432 65.7086 190.312 66.5771 190.823 65.9693C191.946 64.6304 193.289 63.5311 194.878 62.7542C196.043 62.1851 198.046 62.0689 198.647 60.7652C198.909 60.1997 198.831 59.5337 198.958 58.9365C199.133 58.1032 199.512 57.2787 200.13 56.6674C201.462 55.3478 203.832 55.4483 204.623 57.2717C204.95 57.025 205.276 56.7784 205.605 56.5335C204.234 55.2474 204.567 52.8444 206.172 51.8614C208.144 50.6546 211.404 51.9583 211.844 54.2238C211.99 54.9814 211.716 56.1811 210.555 55.9398C209.571 55.7354 209.376 54.5216 209.354 53.7358C209.327 52.7404 209.534 51.6817 209.923 50.762C210.381 49.675 211.189 48.7395 212.474 48.6462C213.877 48.5457 215.208 49.4354 216.33 50.1454C217.002 50.5753 217.63 49.52 216.956 49.0937Z" fill="#1A0000"/>
<path d="M45.5095 155.751L42.6798 151.516L39.6406 155.198L40.3575 149.365L37.042 147.333L41.2171 147.141L43.2251 142.936L44.473 147.383L48.7293 148.204L45.3759 150.006L45.5095 155.751Z" fill="white" stroke="white" stroke-width="0.405046" stroke-miterlimit="10" stroke-linecap="round"/>
<path d="M42.4951 109.058C42.4951 109.058 42.4753 47.7022 103.07 52.9099C160.506 57.8463 149.712 133.396 134.545 141.004L133.532 142.938C133.532 142.938 142.848 98.4419 122.625 76.2106C109.446 61.7239 87.2813 59.8053 71.1391 71.0822C62.7294 76.9576 50.3811 92.8149 42.4951 109.058Z" fill="#FFD44D" stroke="#FFD44D" stroke-width="1.55066" stroke-miterlimit="10"/>
<path d="M84.9696 171.339L85.8075 182.28H79.3643C78.586 182.28 78.084 183.081 78.4397 183.758L87.0824 200.172H98.1846L107.553 180.985C107.99 180.088 107.29 179.061 106.275 179.109L100.538 179.378V170.252L84.9696 171.339Z" fill="#B44A24" stroke="#B44A24" stroke-width="0.829234" stroke-miterlimit="10"/>
<mask id="mask0_3664_6633" style="mask-type:luminance" maskUnits="userSpaceOnUse" x="38" y="76" width="120" height="101">
<path d="M154.924 134.089C152.038 131.094 147.926 131.239 144.259 132.639C142.39 133.353 140.64 134.34 138.96 135.404C137.953 136.041 135.947 138.365 134.717 138.113C133.868 137.94 133.736 136.573 133.476 135.921C131.195 130.201 126.284 124.893 122.347 120.191C117.93 114.918 113.215 109.894 108.518 104.862C100.504 96.2772 93.1323 86.8413 88.2132 76.2075C86.6782 77.5517 83.5957 80.2613 82.9601 80.9061C76.8275 87.132 70.1459 92.937 62.9425 97.9632C59.6017 100.294 56.1238 102.464 52.4182 104.202C49.1208 105.748 45.5326 107.031 41.8307 107.066C41.8072 107.066 41.7909 107.056 41.7674 107.054C40.9259 109.668 40.2668 112.365 39.8154 115.137C34.443 148.085 51.7717 170.783 82.9799 175.564C101.401 178.386 119.14 171.035 130.652 157.661C135.139 162.101 143.955 160.702 150.599 154.399C157.382 147.966 159.848 139.204 154.924 134.089Z" fill="white"/>
</mask>
<g mask="url(#mask0_3664_6633)">
<path d="M154.924 134.089C152.038 131.094 147.926 131.239 144.259 132.639C142.39 133.353 140.64 134.34 138.96 135.404C137.953 136.041 135.947 138.365 134.717 138.113C133.868 137.94 133.736 136.573 133.476 135.921C131.195 130.201 126.284 124.893 122.347 120.191C117.93 114.918 113.215 109.894 108.518 104.862C100.504 96.2772 93.1323 86.8413 88.2132 76.2075C86.6782 77.5517 83.5957 80.2613 82.9601 80.9061C76.8275 87.132 70.1459 92.937 62.9425 97.9632C59.6017 100.294 56.1238 102.464 52.4182 104.202C49.1208 105.748 45.5326 107.031 41.8307 107.066C41.8072 107.066 41.7909 107.056 41.7674 107.054C40.9259 109.668 40.2668 112.365 39.8154 115.137C34.443 148.085 51.7717 170.783 82.9799 175.564C101.401 178.386 119.14 171.035 130.652 157.661C135.139 162.101 143.955 160.702 150.599 154.399C157.382 147.966 159.848 139.204 154.924 134.089Z" fill="#CD5428" stroke="#CD5428" stroke-width="1.59671" stroke-miterlimit="10"/>
</g>
<mask id="mask1_3664_6633" style="mask-type:luminance" maskUnits="userSpaceOnUse" x="38" y="76" width="120" height="101">
<path d="M154.924 134.089C152.038 131.094 147.926 131.239 144.259 132.639C142.39 133.353 140.64 134.34 138.96 135.404C137.953 136.041 135.947 138.365 134.717 138.113C133.868 137.94 133.736 136.573 133.476 135.921C131.195 130.201 126.284 124.893 122.347 120.191C117.93 114.918 113.215 109.894 108.518 104.862C100.504 96.2772 93.1323 86.8413 88.2132 76.2075C86.6782 77.5517 83.5957 80.2613 82.9601 80.9061C76.8275 87.132 70.1459 92.937 62.9425 97.9632C59.6017 100.294 56.1238 102.464 52.4182 104.202C49.1208 105.748 45.5326 107.031 41.8307 107.066C41.8072 107.066 41.7909 107.056 41.7674 107.054C40.9259 109.668 40.2668 112.365 39.8154 115.137C34.443 148.085 51.7717 170.783 82.9799 175.564C101.401 178.386 119.14 171.035 130.652 157.661C135.139 162.101 143.955 160.702 150.599 154.399C157.382 147.966 159.848 139.204 154.924 134.089Z" fill="white"/>
</mask>
<g mask="url(#mask1_3664_6633)">
<path opacity="0.49" d="M116.491 158.668C113.763 166.193 105.299 170.134 97.586 167.472C89.8733 164.81 85.8337 156.552 88.5623 149.028C91.2909 141.504 99.7548 137.563 107.467 140.225C115.18 142.887 119.22 151.144 116.491 158.668Z" fill="#8B2A0C" stroke="#8B2A0C" stroke-width="1.9223" stroke-miterlimit="10"/>
</g>
<mask id="mask2_3664_6633" style="mask-type:luminance" maskUnits="userSpaceOnUse" x="38" y="76" width="120" height="101">
<path d="M154.924 134.089C152.038 131.094 147.926 131.239 144.259 132.639C142.39 133.353 140.64 134.34 138.96 135.404C137.953 136.041 135.947 138.365 134.717 138.113C133.868 137.94 133.736 136.573 133.476 135.921C131.195 130.201 126.284 124.893 122.347 120.191C117.93 114.918 113.215 109.894 108.518 104.862C100.504 96.2772 93.1323 86.8413 88.2132 76.2075C86.6782 77.5517 83.5957 80.2613 82.9601 80.9061C76.8275 87.132 70.1459 92.937 62.9425 97.9632C59.6017 100.294 56.1238 102.464 52.4182 104.202C49.1208 105.748 45.5326 107.031 41.8307 107.066C41.8072 107.066 41.7909 107.056 41.7674 107.054C40.9259 109.668 40.2668 112.365 39.8154 115.137C34.443 148.085 51.7717 170.783 82.9799 175.564C101.401 178.386 119.14 171.035 130.652 157.661C135.139 162.101 143.955 160.702 150.599 154.399C157.382 147.966 159.848 139.204 154.924 134.089Z" fill="white"/>
</mask>
<g mask="url(#mask2_3664_6633)">
<path opacity="0.49" d="M57.6823 146.878C55.2408 153.611 47.6654 157.14 40.7617 154.756C33.8599 152.374 30.2428 144.984 32.6861 138.249C35.1276 131.515 42.703 127.986 49.6066 130.37C56.5085 132.752 60.1237 140.142 57.6823 146.878Z" fill="#8B2A0C" stroke="#8B2A0C" stroke-width="1.72041" stroke-miterlimit="10"/>
</g>
<mask id="mask3_3664_6633" style="mask-type:luminance" maskUnits="userSpaceOnUse" x="38" y="76" width="120" height="101">
<path d="M154.924 134.089C152.038 131.094 147.926 131.239 144.259 132.639C142.39 133.353 140.64 134.34 138.96 135.404C137.953 136.041 135.947 138.365 134.717 138.113C133.868 137.94 133.736 136.573 133.476 135.921C131.195 130.201 126.284 124.893 122.347 120.191C117.93 114.918 113.215 109.894 108.518 104.862C100.504 96.2772 93.1323 86.8413 88.2132 76.2075C86.6782 77.5517 83.5957 80.2613 82.9601 80.9061C76.8275 87.132 70.1459 92.937 62.9425 97.9632C59.6017 100.294 56.1238 102.464 52.4182 104.202C49.1208 105.748 45.5326 107.031 41.8307 107.066C41.8072 107.066 41.7909 107.056 41.7674 107.054C40.9259 109.668 40.2668 112.365 39.8154 115.137C34.443 148.085 51.7717 170.783 82.9799 175.564C101.401 178.386 119.14 171.035 130.652 157.661C135.139 162.101 143.955 160.702 150.599 154.399C157.382 147.966 159.848 139.204 154.924 134.089Z" fill="white"/>
</mask>
<g mask="url(#mask3_3664_6633)">
<path d="M142 165.155L139.172 160.92L136.131 164.602L136.848 158.767L133.532 156.736L137.707 156.546L139.715 152.34L140.965 156.787L145.22 157.608L141.866 159.41L142 165.155Z" fill="white" stroke="white" stroke-width="0.405046" stroke-miterlimit="10" stroke-linecap="round"/>
<path d="M139.062 140.247C141.241 138.33 143.76 136.665 146.771 135.899C148.257 135.526 149.983 135.445 151.583 136.153C153.169 136.903 154.301 138.284 154.704 139.999C155.032 141.729 154.472 143.323 153.792 144.669C153.06 146.015 152.168 147.218 151.164 148.305C149.172 150.49 146.852 152.313 144.353 153.832C146.399 151.774 148.334 149.648 150.048 147.423C150.872 146.29 151.672 145.148 152.222 143.929C152.784 142.735 153.152 141.45 152.901 140.346C152.703 139.282 151.849 138.181 150.819 137.673C149.766 137.109 148.405 137.081 147.056 137.266C144.336 137.715 141.635 138.896 139.062 140.247Z" fill="#8B2A0C"/>
<path d="M130.546 157.784C131.219 156.898 131.727 155.912 132.209 154.927C132.682 153.935 133.103 152.917 133.462 151.879C134.226 149.818 134.781 147.688 135.335 145.547C135.201 146.643 135.023 147.735 134.77 148.815C134.51 149.892 134.205 150.959 133.833 152.006C133.051 154.074 132.104 156.158 130.546 157.784Z" fill="#8B2A0C"/>
<path d="M88.0651 74.1081C86.0697 74.9889 84.188 76.3455 83.3339 78.3803C82.6188 80.0821 82.691 82.2315 84.002 83.6514C85.1361 84.8794 87.3012 85.4449 88.5707 84.083C89.5423 83.0401 89.564 81.2185 88.2096 80.4768C86.4814 79.5307 84.002 80.3746 82.6422 81.569C81.1633 82.8692 80.515 84.9639 80.9466 86.8525C81.3366 88.5614 82.9167 90.1769 84.8381 89.5673C86.3965 89.0741 86.922 86.9265 85.2968 86.1584C83.4368 85.2793 81.2987 86.6693 80.5276 88.3182C79.4965 90.5186 80.6504 92.9463 82.1402 94.6358C82.6368 95.1996 83.4693 94.3804 82.9763 93.8202C81.9073 92.6081 80.9791 90.915 81.4269 89.2678C81.6219 88.5526 82.1005 87.899 82.7325 87.4867C83.1497 87.2154 85.304 86.4931 85.1198 87.8302C84.9754 88.8767 83.4223 88.549 82.9239 88.1033C82.2811 87.5272 82.0246 86.6164 81.9975 85.7902C81.9452 84.1817 82.8138 82.6455 84.2494 81.8527C85.1704 81.3436 88.3775 80.5807 88.085 82.5257C87.7943 84.4636 85.351 83.6585 84.5979 82.5116C82.5357 79.3651 85.9975 76.2803 88.6665 75.1017C89.3545 74.7987 88.7549 73.8051 88.0651 74.1081Z" fill="#1A0000"/>
<path d="M67.9404 132.453C68.4244 131.066 69.2912 129.757 70.5462 128.808C71.776 127.846 73.4735 127.305 75.0969 127.508C75.8969 127.596 76.7095 127.818 77.4409 128.216C78.1506 128.649 78.77 129.227 79.1781 129.918C80.0214 131.288 80.1586 132.881 79.9022 134.319C79.6711 132.881 79.1853 131.501 78.36 130.459C77.5348 129.409 76.3177 128.848 74.9669 128.737C73.6342 128.554 72.2997 128.919 71.1078 129.599C69.9214 130.3 68.8524 131.294 67.9404 132.453Z" fill="#8B2A0C"/>
<g opacity="0.53">
<path d="M68.0264 132.468C68.0264 132.468 70.8453 127.257 75.981 128.526C80.3908 129.614 79.9069 134.773 79.9069 134.773" fill="#8B2A0C"/>
<path d="M68.0264 132.468C68.5627 131.101 69.4819 129.826 70.7712 128.922C72.0371 128.007 73.7545 127.528 75.3689 127.791C76.1652 127.909 76.967 128.159 77.6839 128.585C78.3774 129.043 78.9733 129.646 79.3543 130.349C80.1453 131.749 80.2193 133.347 79.9069 134.772C79.7317 133.328 79.3001 131.931 78.5146 130.86C77.7309 129.78 76.5354 129.175 75.1901 129.013C73.8664 128.781 72.5175 129.096 71.3003 129.732C70.0886 130.391 68.9816 131.344 68.0264 132.468Z" fill="#8B2A0C"/>
</g>
<path d="M41.9761 118.172C41.5084 125.688 47.4189 132.141 55.1767 132.583C62.9345 133.026 69.6016 127.293 70.0675 119.777C70.5352 112.262 64.6248 105.809 56.867 105.366C49.111 104.922 42.4439 110.657 41.9761 118.172Z" fill="white"/>
<path d="M48.8091 115.6C47.7581 121.299 51.2433 126.739 56.5958 127.752C61.9482 128.765 67.1382 124.965 68.191 119.268C69.2438 113.57 65.7567 108.128 60.4042 107.115C55.0518 106.102 49.8601 109.9 48.8091 115.6Z" fill="#280707" stroke="#280707" stroke-width="1.60935" stroke-miterlimit="10"/>
<path d="M70.3965 116.999C69.6597 115.498 68.8363 114.052 67.8395 112.751C66.8752 111.437 65.8242 110.204 64.598 109.198C63.3502 108.224 62.0085 107.438 60.5873 106.881C59.1318 106.414 57.6312 106.108 56.0764 106.147C52.9162 106.138 49.8102 107.003 47.3615 108.839C44.8189 110.607 43.1394 113.518 42.1462 116.551L41.9801 117.061L41.5882 116.914C40.66 116.569 39.7391 116.201 38.8271 115.799L38.8687 115.655L41.7291 116.416L41.6208 116.486C42.2221 113.201 43.8546 110.026 46.5091 107.856C49.1438 105.678 52.6507 104.623 56.0764 104.672C57.8027 104.665 59.5164 105.003 61.1218 105.616C62.7001 106.293 64.1466 107.237 65.3926 108.396C67.8268 110.771 69.5478 113.768 70.5464 116.965L70.3965 116.999Z" fill="black"/>
<path d="M42.1093 114.519L39.4619 112.428L42.8009 113.078L42.1093 114.519Z" fill="black"/>
<path d="M43.4302 111.469L41.2217 109.079L44.3349 110.144L43.4302 111.469Z" fill="black"/>
<path d="M66.1319 129.105C64.4128 130.475 62.3921 131.501 60.2395 132.163C58.0888 132.833 55.7629 133.083 53.475 132.794C52.3228 132.676 51.2231 132.302 50.1324 131.939C49.1139 131.407 48.0484 130.96 47.1925 130.201C46.239 129.575 45.5293 128.694 44.7781 127.884C44.0901 127.021 43.5357 126.061 42.9795 125.139C44.5072 126.711 46.0024 128.252 47.8299 129.32C49.5888 130.463 51.5878 131.194 53.6627 131.425C55.7304 131.71 57.8631 131.55 59.956 131.124C62.0436 130.666 64.1275 130.017 66.1319 129.105Z" fill="black"/>
<path d="M118.128 131.486C116.142 139.264 107.79 144.024 99.4724 142.12C91.1548 140.213 86.0208 132.363 88.0054 124.585C89.9918 116.807 98.3437 112.047 106.663 113.951C114.981 115.856 120.113 123.706 118.128 131.486Z" fill="white"/>
<path d="M118.09 127.937C117.334 133.946 111.994 138.344 106.161 137.761C100.328 137.177 96.2129 131.832 96.9695 125.823C97.7262 119.814 103.066 115.417 108.899 116C114.732 116.585 118.847 121.928 118.09 127.937Z" fill="#280707" stroke="#280707" stroke-width="1.7065" stroke-miterlimit="10"/>
<path d="M88.6221 122.143C90.2834 118.926 92.9127 116.156 96.2589 114.262C97.9347 113.311 99.8399 112.716 101.81 112.471C103.782 112.305 105.806 112.411 107.704 112.948C111.448 113.91 114.935 116.223 117.141 119.461C118.239 121.086 118.812 122.971 119.122 124.812C119.44 126.672 119.366 128.531 118.906 130.358L118.451 129.815C119.511 129.942 120.571 130.093 121.629 130.282L121.625 130.44L118.436 130.368L118.335 130.366L118.348 130.262C118.774 126.797 118.032 123.117 115.987 120.226C113.94 117.328 110.709 115.385 107.262 114.439C105.546 113.908 103.733 113.78 101.945 113.884C100.163 114.083 98.4186 114.567 96.7934 115.326C93.5808 116.912 90.827 119.361 88.7593 122.229L88.6221 122.143Z" fill="black"/>
<path d="M118.421 126.518L122.061 126.877L118.659 128.19L118.421 126.518Z" fill="black"/>
<path d="M117.794 123.128L121.33 123.004L118.276 124.748L117.794 123.128Z" fill="black"/>
<path d="M89.2471 135.594C90.1482 136.345 91.0493 137.071 92.0281 137.691C92.9635 138.358 93.9512 138.95 94.9661 139.47C96.9958 140.502 99.1322 141.3 101.346 141.623C103.551 142.009 105.828 141.866 108.008 141.267C110.238 140.77 112.253 139.632 114.343 138.535C113.465 139.294 112.58 140.095 111.591 140.753C110.55 141.33 109.528 141.982 108.36 142.34C107.244 142.856 106.009 142.976 104.799 143.205C103.571 143.242 102.328 143.291 101.113 143.068C98.6843 142.676 96.3711 141.757 94.3738 140.43C92.3802 139.112 90.5852 137.515 89.2471 135.594Z" fill="black"/>
<path opacity="0.49" d="M81.6153 139.854C81.218 142.303 78.6339 146.695 72.8841 145.932C68.9077 145.405 66.3236 140.93 66.7209 138.481C66.7209 138.481 70.5492 137.699 74.5762 137.939C77.3752 138.106 81.6153 139.854 81.6153 139.854Z" fill="#8B2A0C"/>
<path d="M64.1377 136.258C65.6221 137.502 67.1859 138.573 68.8202 139.44C70.4635 140.286 72.2025 140.897 73.983 141.063C75.7527 141.253 77.582 141.063 79.2976 140.405C80.1987 140.182 80.9842 139.665 81.8582 139.299C82.6925 138.859 83.469 138.311 84.3485 137.854C83.7146 138.571 83.0555 139.301 82.3133 139.946C81.5007 140.493 80.7531 141.189 79.7996 141.552C78.0173 142.519 75.8629 142.851 73.8079 142.652C71.742 142.426 69.7845 141.64 68.1502 140.497C66.516 139.354 65.1056 137.932 64.1377 136.258Z" fill="#3B130E"/>
<path d="M46.6298 101.243C47.0054 99.4391 48.0473 97.7831 49.4504 96.5076C50.8319 95.1916 52.5799 94.2702 54.4056 93.6694C56.2602 93.1532 58.1816 92.9489 60.0524 93.1339C60.986 93.192 61.8962 93.4404 62.7936 93.6289C63.6695 93.9654 64.5399 94.2367 65.3597 94.6613L65.3778 94.6701C65.4175 94.6912 65.432 94.7388 65.4121 94.7758C65.3959 94.8058 65.3615 94.8216 65.329 94.8163L62.7106 94.4657C61.8312 94.4446 60.9517 94.3495 60.0741 94.3883C58.317 94.4323 56.569 94.6913 54.8968 95.1934C51.5795 96.2028 48.497 98.3116 46.7796 101.312C46.758 101.351 46.7074 101.365 46.6695 101.342C46.637 101.324 46.6225 101.289 46.6298 101.257V101.243Z" fill="#2E2E2E"/>
<path d="M120.709 111.501C119.703 110.023 118.525 108.821 117.343 107.729C116.127 106.663 114.841 105.74 113.44 104.972C112.732 104.596 112.028 104.212 111.262 103.923C110.538 103.536 109.733 103.34 108.96 103.006L103.965 101.36L103.938 101.351C103.896 101.337 103.875 101.293 103.887 101.253C103.9 101.219 103.932 101.198 103.967 101.2L106.621 101.353C107.495 101.499 108.384 101.575 109.247 101.781C110.982 102.162 112.669 102.754 114.244 103.582C117.312 105.331 119.862 108.097 120.866 111.465C120.878 111.506 120.853 111.548 120.812 111.561C120.777 111.569 120.743 111.557 120.725 111.529L120.709 111.501Z" fill="#2E2E2E"/>
</g>
</svg>
