<svg viewBox="0 0 158.9604 54" x="0" y="0" fill="none" xmlns="http://www.w3.org/2000/svg"><defs><mask id="mask0_1432_14477" style="mask-type:luminance" maskUnits="userSpaceOnUse" x="8" y="22" width="29" height="23" xmlns="http://www.w3.org/2000/svg">
<g id="SVGID_00000165928890544357328630000010163460873986055059_" data-node-id="2146:9642">
<path id="vector_6" data-node-id="2146:9643" d="M35.6,35.5457c-0.667,-0.6528 -1.617,-0.6214 -2.465,-0.3161c-0.431,0.1556 -0.836,0.3706 -1.224,0.6026c-0.233,0.139 -0.696,0.6455 -0.98,0.5906c-0.196,-0.0376 -0.227,-0.3356 -0.287,-0.4777c-0.527,-1.247 -1.662,-2.404 -2.571,-3.429c-1.021,-1.1494 -2.111,-2.2446 -3.196,-3.3414c-1.852,-1.8713 -3.555,-3.9281 -4.691,-6.2461c-0.355,0.293 -1.067,0.8836 -1.214,1.0242c-1.417,1.3571 -2.961,2.6225 -4.625,3.7181c-0.772,0.5081 -1.576,0.9812 -2.432,1.3598c-0.762,0.3372 -1.591,0.6168 -2.446,0.6244c-0.006,0 -0.009,-0.0023 -0.015,-0.0026c-0.194,0.5699 -0.347,1.1578 -0.451,1.7619c-1.241,7.182 2.763,12.1297 9.974,13.172c4.256,0.6152 8.354,-0.9873 11.014,-3.9025c1.037,0.9678 3.074,0.6629 4.609,-0.7112c1.567,-1.4021 2.137,-3.3122 1,-4.427z" fill="white"/>
</g>
</mask><mask id="mask1_1432_14477" style="mask-type:luminance" maskUnits="userSpaceOnUse" x="8" y="22" width="29" height="23" xmlns="http://www.w3.org/2000/svg">
<g id="SVGID_00000165928890544357328630000010163460873986055059__2" data-node-id="2146:9646">
<path id="vector_8" data-node-id="2146:9647" d="M35.6,35.5457c-0.667,-0.6528 -1.617,-0.6214 -2.465,-0.3161c-0.431,0.1556 -0.836,0.3706 -1.224,0.6026c-0.233,0.139 -0.696,0.6455 -0.98,0.5906c-0.196,-0.0376 -0.227,-0.3356 -0.287,-0.4777c-0.527,-1.247 -1.662,-2.404 -2.571,-3.429c-1.021,-1.1494 -2.111,-2.2446 -3.196,-3.3414c-1.852,-1.8713 -3.555,-3.9281 -4.691,-6.2461c-0.355,0.293 -1.067,0.8836 -1.214,1.0242c-1.417,1.3571 -2.961,2.6225 -4.625,3.7181c-0.772,0.5081 -1.576,0.9812 -2.432,1.3598c-0.762,0.3372 -1.591,0.6168 -2.446,0.6244c-0.006,0 -0.009,-0.0023 -0.015,-0.0026c-0.194,0.5699 -0.347,1.1578 -0.451,1.7619c-1.241,7.182 2.763,12.1297 9.974,13.172c4.256,0.6152 8.354,-0.9873 11.014,-3.9025c1.037,0.9678 3.074,0.6629 4.609,-0.7112c1.567,-1.4021 2.137,-3.3122 1,-4.427z" fill="white"/>
</g>
</mask><mask id="mask2_1432_14477" style="mask-type:luminance" maskUnits="userSpaceOnUse" x="8" y="22" width="29" height="23" xmlns="http://www.w3.org/2000/svg">
<g id="SVGID_00000165928890544357328630000010163460873986055059__3" data-node-id="2146:9650">
<path id="vector_10" data-node-id="2146:9651" d="M35.6,35.5457c-0.667,-0.6528 -1.617,-0.6214 -2.465,-0.3161c-0.431,0.1556 -0.836,0.3706 -1.224,0.6026c-0.233,0.139 -0.696,0.6455 -0.98,0.5906c-0.196,-0.0376 -0.227,-0.3356 -0.287,-0.4777c-0.527,-1.247 -1.662,-2.404 -2.571,-3.429c-1.021,-1.1494 -2.111,-2.2446 -3.196,-3.3414c-1.852,-1.8713 -3.555,-3.9281 -4.691,-6.2461c-0.355,0.293 -1.067,0.8836 -1.214,1.0242c-1.417,1.3571 -2.961,2.6225 -4.625,3.7181c-0.772,0.5081 -1.576,0.9812 -2.432,1.3598c-0.762,0.3372 -1.591,0.6168 -2.446,0.6244c-0.006,0 -0.009,-0.0023 -0.015,-0.0026c-0.194,0.5699 -0.347,1.1578 -0.451,1.7619c-1.241,7.182 2.763,12.1297 9.974,13.172c4.256,0.6152 8.354,-0.9873 11.014,-3.9025c1.037,0.9678 3.074,0.6629 4.609,-0.7112c1.567,-1.4021 2.137,-3.3122 1,-4.427z" fill="white"/>
</g>
</mask><mask id="mask3_1432_14477" style="mask-type:luminance" maskUnits="userSpaceOnUse" x="8" y="22" width="29" height="23" xmlns="http://www.w3.org/2000/svg">
<g id="SVGID_00000165928890544357328630000010163460873986055059__4" data-node-id="2146:9654">
<path id="vector_12" data-node-id="2146:9655" d="M35.6,35.5457c-0.667,-0.6528 -1.617,-0.6214 -2.465,-0.3161c-0.431,0.1556 -0.836,0.3706 -1.224,0.6026c-0.233,0.139 -0.696,0.6455 -0.98,0.5906c-0.196,-0.0376 -0.227,-0.3356 -0.287,-0.4777c-0.527,-1.247 -1.662,-2.404 -2.571,-3.429c-1.021,-1.1494 -2.111,-2.2446 -3.196,-3.3414c-1.852,-1.8713 -3.555,-3.9281 -4.691,-6.2461c-0.355,0.293 -1.067,0.8836 -1.214,1.0242c-1.417,1.3571 -2.961,2.6225 -4.625,3.7181c-0.772,0.5081 -1.576,0.9812 -2.432,1.3598c-0.762,0.3372 -1.591,0.6168 -2.446,0.6244c-0.006,0 -0.009,-0.0023 -0.015,-0.0026c-0.194,0.5699 -0.347,1.1578 -0.451,1.7619c-1.241,7.182 2.763,12.1297 9.974,13.172c4.256,0.6152 8.354,-0.9873 11.014,-3.9025c1.037,0.9678 3.074,0.6629 4.609,-0.7112c1.567,-1.4021 2.137,-3.3122 1,-4.427z" fill="white"/>
</g>
</mask></defs><g id="row" xmlns="http://www.w3.org/2000/svg">
<g id="group">
<g id="group_2">
<g id="group_3">
<g id="group_4">
<path id="vector" d="M46.469,36.8727c0,0 2.915,-0.9386 3.401,-4.0791c0.485,-3.1406 -3.337,-3.6367 -3.337,-3.6367c2.123,-1.2846 1.913,-3.8756 1.913,-3.8756c0.592,-4.6452 -3.259,-5.2296 -3.259,-5.2296c0,0 1.682,-1.4939 1.257,-3.7189c-0.826,-4.3257 -5.41,-3.6909 -5.41,-3.6909c-0.211,-2.2162 -1.791,-4.1086 -4.024,-4.6831c-0.034,-0.0089 -0.068,-0.0173 -0.102,-0.0254c-2.282,-0.5626 -4.703,0.3794 -6.036,2.2719l-0.188,0.2661c-0.053,-0.2757 -0.167,-0.5645 -0.312,-0.8475c-0.75,-1.4635 -2.172,-2.4977 -3.819,-2.909c-3.914,-0.977 -6.137,1.6939 -6.137,1.6939c-1.406,-2.0357 -5.235,-1.7212 -5.235,-1.7212c-8.454,0.9966 -7.34,9.0661 -7.34,9.0661c0,0 -3.55,-2.6832 -6.714,2.3571c-3.164,5.0399 1.337,9.1943 1.337,9.1943c-0.787,0.2074 -1.654,1.5334 -1.654,1.5334c-2.441,5.1455 4.514,7.3714 4.514,7.3714c-3.146,5.0499 3.896,5.5906 3.896,5.5906c0.391,2.9378 3.095,0.8805 3.095,0.8805c-0.548,3.5622 2.481,2.1913 2.481,2.1913c0.444,2.1824 2.633,0.1225 2.633,0.1225l0.405,-0.0311c-0.042,0.8982 0.645,1.7031 1.633,1.846c0.872,0.1259 1.692,-0.3069 2.052,-1.0054c0.412,0.8383 1.317,1.4923 2.453,1.6567c1.692,0.2446 3.259,-0.6863 3.538,-2.0853c0.262,0.4409 0.729,0.7727 1.31,0.8564c0.788,0.1141 1.531,-0.2604 1.884,-0.8752c1.03,2.798 3.632,0.8925 3.632,0.8925c2.01,1.6409 3.164,-0.5553 3.164,-0.5553c0,0 1.803,1.6609 4.241,-0.7853c1.367,-1.3714 0.475,-3.9574 0.475,-3.9574c0,0 2.225,1.9631 4.213,0.1452c2.198,-2.0112 0.04,-4.2239 0.04,-4.2239z" fill="#1A0000" stroke="#1A0000" stroke-width="0.298591" stroke-miterlimit="10" stroke-linecap="round"/>
<g id="group_5">
<g id="group_6">
<path id="vector_2" d="M4.328,10.5463c0.541,-0.0341 1.222,0 1.237,0.6417c0.005,0.2543 -0.095,0.5457 -0.236,0.7627c-0.076,0.1187 -0.165,0.2408 -0.318,0.2861c-0.285,0.0841 -0.426,-0.1966 -0.291,-0.3971c0.287,-0.4243 1.082,-0.3598 1.394,-0.01c0.309,0.3457 0.124,0.9282 -0.349,1.0442c0.046,0.0741 0.093,0.1482 0.14,0.2223c0.372,-0.2653 0.856,0.0265 0.954,0.3929c0.053,0.1974 0.021,0.4086 -0.055,0.5972c-0.054,0.1321 -0.142,0.2515 -0.123,0.3993c0.036,0.2769 0.389,0.4878 0.548,0.7063c0.223,0.3072 0.362,0.6482 0.434,1.0103c0.033,0.1682 0.312,0.0968 0.279,-0.0706c-0.085,-0.4286 -0.266,-0.8337 -0.548,-1.1847c-0.196,-0.2451 -0.442,-0.3541 -0.347,-0.7116c0.054,-0.199 0.132,-0.3622 0.125,-0.5738c-0.024,-0.6835 -0.819,-1.2181 -1.471,-0.7534c-0.12,0.0852 0.012,0.2538 0.14,0.2223c0.554,-0.1359 0.849,-0.7262 0.655,-1.215c-0.21,-0.5288 -0.925,-0.7423 -1.476,-0.578c-0.278,0.083 -0.557,0.2704 -0.631,0.5438c-0.064,0.2346 0.042,0.5038 0.293,0.6002c0.694,0.2665 1.1,-0.6501 1.16,-1.124c0.042,-0.3368 -0.051,-0.6801 -0.358,-0.889c-0.328,-0.2235 -0.768,-0.2116 -1.155,-0.1874c-0.185,0.0111 -0.187,0.2769 -0.001,0.2653z" fill="#1A0000"/>
</g>
</g>
<g id="group_7">
<g id="group_8">
<path id="vector_3" d="M49.934,17.0163c-0.582,-0.3479 -1.359,-0.5856 -1.794,0.0783c-0.281,0.4282 -0.468,1.3434 0.126,1.6283c0.242,0.1168 0.52,0.0484 0.676,-0.1555c0.184,-0.2412 0.121,-0.5553 -0.045,-0.7892c-0.33,-0.465 -1.065,-0.6866 -1.601,-0.3882c-0.531,0.2953 -0.637,1.0395 -0.19,1.4358c0.127,0.1118 0.288,-0.0288 0.227,-0.1613c-0.334,-0.7269 -1.378,-0.5007 -1.709,0.0957c-0.094,0.1689 -0.119,0.3398 -0.157,0.5226c-0.063,0.3084 -0.393,0.3195 -0.654,0.4267c-0.439,0.1801 -0.818,0.4558 -1.122,0.7972c-0.117,0.1313 0.087,0.3207 0.205,0.1882c0.259,-0.2919 0.57,-0.5315 0.937,-0.7009c0.269,-0.124 0.732,-0.1494 0.871,-0.4335c0.06,-0.1233 0.042,-0.2685 0.071,-0.3987c0.041,-0.1816 0.129,-0.3613 0.271,-0.4946c0.308,-0.2876 0.856,-0.2657 1.038,0.1317c0.076,-0.0537 0.151,-0.1075 0.227,-0.1609c-0.316,-0.2803 -0.24,-0.8041 0.131,-1.0184c0.456,-0.2631 1.209,0.0211 1.311,0.515c0.034,0.1651 -0.03,0.4266 -0.298,0.374c-0.227,-0.0445 -0.272,-0.3091 -0.278,-0.4804c-0.006,-0.217 0.042,-0.4478 0.132,-0.6482c0.106,-0.237 0.292,-0.4409 0.589,-0.4612c0.325,-0.0219 0.632,0.172 0.891,0.3268c0.156,0.0937 0.301,-0.1364 0.145,-0.2293z" fill="#1A0000"/>
</g>
</g>
</g>
<path id="vector_4" d="M10.318,40.2652l-0.654,-0.9232l-0.702,0.8026l0.165,-1.2715l-0.766,-0.4428l0.965,-0.0418l0.464,-0.9167l0.288,0.9693l0.984,0.1789l-0.775,0.3929z" fill="white" stroke="white" stroke-width="0.0711279" stroke-miterlimit="10" stroke-linecap="round"/>
<path id="vector_5" d="M9.622,30.0874c0,0 -0.005,-13.3744 13.996,-12.2392c13.271,1.076 10.777,17.5445 7.273,19.2027l-0.234,0.4217c0,0 2.152,-9.6993 -2.52,-14.5453c-3.046,-3.1579 -8.167,-3.5761 -11.897,-1.1179c-1.943,1.2807 -4.796,4.7373 -6.618,8.278z" fill="#FFD44D" stroke="#FFD44D" stroke-width="0.272303" stroke-miterlimit="10"/>
</g>
</g>
<g id="group_9">
<g id="Clip path group">
<mask id="mask0_1432_14477" style="mask-type:luminance" maskUnits="userSpaceOnUse" x="158" y="52" width="29" height="23">
<g id="SVGID_00000165928890544357328630000010163460873986055059_">
<path id="vector_6" d="M185.6 65.5457C184.933 64.8929 183.983 64.9243 183.135 65.2296C182.704 65.3852 182.299 65.6002 181.911 65.8322C181.678 65.9712 181.215 66.4777 180.931 66.4228C180.735 66.3852 180.704 66.0872 180.644 65.9451C180.117 64.6981 178.982 63.5411 178.073 62.5161C177.052 61.3667 175.962 60.2715 174.877 59.1747C173.025 57.3034 171.322 55.2466 170.186 52.9286C169.831 53.2216 169.119 53.8122 168.972 53.9528C167.555 55.3099 166.011 56.5753 164.347 57.6709C163.575 58.179 162.771 58.6521 161.915 59.0307C161.153 59.3679 160.324 59.6475 159.469 59.6551C159.463 59.6551 159.46 59.6528 159.454 59.6525C159.26 60.2224 159.107 60.8103 159.003 61.4144C157.762 68.5964 161.766 73.5441 168.977 74.5864C173.233 75.2016 177.331 73.5991 179.991 70.6839C181.028 71.6517 183.065 71.3468 184.6 69.9727C186.167 68.5706 186.737 66.6605 185.6 65.5457Z" fill="white"/>
</g>
</mask>
<g mask="url(#mask0_1432_14477)">
<path id="vector_7" d="M35.6,35.5452c-0.667,-0.6528 -1.617,-0.6213 -2.465,-0.316c-0.431,0.1555 -0.836,0.3705 -1.224,0.6025c-0.233,0.139 -0.696,0.6455 -0.98,0.5906c-0.196,-0.0376 -0.227,-0.3356 -0.287,-0.4777c-0.527,-1.2469 -1.662,-2.404 -2.571,-3.429c-1.021,-1.1493 -2.111,-2.2446 -3.196,-3.3413c-1.852,-1.8714 -3.555,-3.9282 -4.691,-6.2462c-0.355,0.293 -1.067,0.8836 -1.214,1.0242c-1.417,1.3571 -2.961,2.6225 -4.625,3.7181c-0.772,0.5081 -1.576,0.9812 -2.432,1.3598c-0.762,0.3372 -1.591,0.6168 -2.446,0.6245c-0.006,0 -0.009,-0.0023 -0.015,-0.0027c-0.194,0.5699 -0.347,1.1578 -0.451,1.7619c-1.241,7.182 2.763,12.1298 9.974,13.172c4.256,0.6152 8.354,-0.9873 11.014,-3.9024c1.037,0.9677 3.074,0.6628 4.609,-0.7113c1.567,-1.402 2.137,-3.3122 1,-4.427z" fill="#CD5428" stroke="#CD5428" stroke-width="0.280389" stroke-miterlimit="10"/>
</g>
</g>
<g id="Clip path group_2">
<mask id="mask1_1432_14477" style="mask-type:luminance" maskUnits="userSpaceOnUse" x="158" y="52" width="29" height="23">
<g id="SVGID_00000165928890544357328630000010163460873986055059__2">
<path id="vector_8" d="M185.6 65.5457C184.933 64.8929 183.983 64.9243 183.135 65.2296C182.704 65.3852 182.299 65.6002 181.911 65.8322C181.678 65.9712 181.215 66.4777 180.931 66.4228C180.735 66.3852 180.704 66.0872 180.644 65.9451C180.117 64.6981 178.982 63.5411 178.073 62.5161C177.052 61.3667 175.962 60.2715 174.877 59.1747C173.025 57.3034 171.322 55.2466 170.186 52.9286C169.831 53.2216 169.119 53.8122 168.972 53.9528C167.555 55.3099 166.011 56.5753 164.347 57.6709C163.575 58.179 162.771 58.6521 161.915 59.0307C161.153 59.3679 160.324 59.6475 159.469 59.6551C159.463 59.6551 159.46 59.6528 159.454 59.6525C159.26 60.2224 159.107 60.8103 159.003 61.4144C157.762 68.5964 161.766 73.5441 168.977 74.5864C173.233 75.2016 177.331 73.5991 179.991 70.6839C181.028 71.6517 183.065 71.3468 184.6 69.9727C186.167 68.5706 186.737 66.6605 185.6 65.5457Z" fill="white"/>
</g>
</mask>
<g mask="url(#mask1_1432_14477)">
<path id="vector_9" opacity="0.49" d="M26.719,40.9024c-0.63,1.6402 -2.586,2.4992 -4.368,1.919c-1.782,-0.5803 -2.715,-2.3802 -2.085,-4.0204c0.631,-1.6401 2.586,-2.4992 4.368,-1.9189c1.782,0.5802 2.716,2.3801 2.085,4.0203z" fill="#8B2A0C" stroke="#8B2A0C" stroke-width="0.337564" stroke-miterlimit="10"/>
</g>
</g>
<g id="Clip path group_3">
<mask id="mask2_1432_14477" style="mask-type:luminance" maskUnits="userSpaceOnUse" x="158" y="52" width="29" height="23">
<g id="SVGID_00000165928890544357328630000010163460873986055059__3">
<path id="vector_10" d="M185.6 65.5457C184.933 64.8929 183.983 64.9243 183.135 65.2296C182.704 65.3852 182.299 65.6002 181.911 65.8322C181.678 65.9712 181.215 66.4777 180.931 66.4228C180.735 66.3852 180.704 66.0872 180.644 65.9451C180.117 64.6981 178.982 63.5411 178.073 62.5161C177.052 61.3667 175.962 60.2715 174.877 59.1747C173.025 57.3034 171.322 55.2466 170.186 52.9286C169.831 53.2216 169.119 53.8122 168.972 53.9528C167.555 55.3099 166.011 56.5753 164.347 57.6709C163.575 58.179 162.771 58.6521 161.915 59.0307C161.153 59.3679 160.324 59.6475 159.469 59.6551C159.463 59.6551 159.46 59.6528 159.454 59.6525C159.26 60.2224 159.107 60.8103 159.003 61.4144C157.762 68.5964 161.766 73.5441 168.977 74.5864C173.233 75.2016 177.331 73.5991 179.991 70.6839C181.028 71.6517 183.065 71.3468 184.6 69.9727C186.167 68.5706 186.737 66.6605 185.6 65.5457Z" fill="white"/>
</g>
</mask>
<g mask="url(#mask2_1432_14477)">
<path id="vector_11" opacity="0.49" d="M13.132,38.3329c-0.565,1.4677 -2.315,2.2369 -3.91,1.7173c-1.595,-0.5192 -2.43,-2.1301 -1.866,-3.5983c0.564,-1.4677 2.315,-2.2369 3.91,-1.7173c1.594,0.5192 2.43,2.1302 1.866,3.5983z" fill="#8B2A0C" stroke="#8B2A0C" stroke-width="0.302111" stroke-miterlimit="10"/>
</g>
</g>
<g id="Clip path group_4">
<mask id="mask3_1432_14477" style="mask-type:luminance" maskUnits="userSpaceOnUse" x="158" y="52" width="29" height="23">
<g id="SVGID_00000165928890544357328630000010163460873986055059__4">
<path id="vector_12" d="M185.6 65.5457C184.933 64.8929 183.983 64.9243 183.135 65.2296C182.704 65.3852 182.299 65.6002 181.911 65.8322C181.678 65.9712 181.215 66.4777 180.931 66.4228C180.735 66.3852 180.704 66.0872 180.644 65.9451C180.117 64.6981 178.982 63.5411 178.073 62.5161C177.052 61.3667 175.962 60.2715 174.877 59.1747C173.025 57.3034 171.322 55.2466 170.186 52.9286C169.831 53.2216 169.119 53.8122 168.972 53.9528C167.555 55.3099 166.011 56.5753 164.347 57.6709C163.575 58.179 162.771 58.6521 161.915 59.0307C161.153 59.3679 160.324 59.6475 159.469 59.6551C159.463 59.6551 159.46 59.6528 159.454 59.6525C159.26 60.2224 159.107 60.8103 159.003 61.4144C157.762 68.5964 161.766 73.5441 168.977 74.5864C173.233 75.2016 177.331 73.5991 179.991 70.6839C181.028 71.6517 183.065 71.3468 184.6 69.9727C186.167 68.5706 186.737 66.6605 185.6 65.5457Z" fill="white"/>
</g>
</mask>
<g mask="url(#mask3_1432_14477)">
<g id="group_10">
<g id="group_11">
<path id="vector_13" d="M32.615,42.3177l-0.654,-0.9232l-0.702,0.8026l0.165,-1.2719l-0.766,-0.4428l0.965,-0.0414l0.464,-0.9167l0.289,0.9693l0.983,0.1789l-0.775,0.3929z" fill="white" stroke="white" stroke-width="0.0711279" stroke-miterlimit="10" stroke-linecap="round"/>
<g id="group_12">
<g id="group_13">
<path id="vector_14" d="M31.937,36.8889c0.503,-0.4178 1.085,-0.7807 1.781,-0.9478c0.343,-0.0814 0.742,-0.0991 1.112,0.0553c0.366,0.1636 0.628,0.4647 0.721,0.8383c0.076,0.3771 -0.054,0.7247 -0.211,1.0181c-0.169,0.2934 -0.375,0.5557 -0.607,0.7926c-0.46,0.4762 -0.996,0.8737 -1.574,1.2047c0.473,-0.4486 0.92,-0.9121 1.316,-1.3971c0.19,-0.2469 0.375,-0.4958 0.502,-0.7615c0.13,-0.2604 0.215,-0.5403 0.157,-0.7811c-0.046,-0.232 -0.243,-0.472 -0.481,-0.5826c-0.243,-0.1229 -0.558,-0.129 -0.869,-0.0887c-0.629,0.0979 -1.253,0.3552 -1.847,0.6498z" fill="#8B2A0C"/>
</g>
<g id="group_14">
<path id="vector_15" d="M29.969,40.7114c0.155,-0.1932 0.273,-0.4083 0.384,-0.6229c0.109,-0.2162 0.207,-0.4382 0.29,-0.6644c0.176,-0.4493 0.304,-0.9136 0.432,-1.3802c-0.031,0.2389 -0.072,0.477 -0.13,0.7124c-0.06,0.2346 -0.131,0.4674 -0.217,0.6955c-0.181,0.4508 -0.399,0.9051 -0.759,1.2596z" fill="#8B2A0C"/>
</g>
</g>
</g>
<g id="group_15">
<g id="group_16">
<path id="vector_16" d="M20.152,22.4717c-0.461,0.192 -0.896,0.4877 -1.093,0.9313c-0.165,0.371 -0.149,0.8395 0.154,1.149c0.262,0.2677 0.762,0.3909 1.056,0.0941c0.224,-0.2274 0.229,-0.6244 -0.084,-0.7861c-0.399,-0.2062 -0.972,-0.0223 -1.286,0.2381c-0.342,0.2834 -0.492,0.74 -0.392,1.1517c0.09,0.3725 0.455,0.7246 0.899,0.5918c0.36,-0.1076 0.482,-0.5757 0.106,-0.7431c-0.429,-0.1917 -0.924,0.1113 -1.102,0.4708c-0.238,0.4796 0.029,1.0088 0.373,1.3771c0.115,0.1229 0.307,-0.0557 0.193,-0.1778c-0.247,-0.2642 -0.461,-0.6333 -0.358,-0.9923c0.045,-0.156 0.156,-0.2984 0.302,-0.3883c0.096,-0.0591 0.594,-0.2166 0.551,0.0749c-0.033,0.2281 -0.392,0.1567 -0.507,0.0595c-0.149,-0.1256 -0.208,-0.3241 -0.214,-0.5042c-0.012,-0.3506 0.189,-0.6855 0.52,-0.8583c0.213,-0.111 0.954,-0.2773 0.887,0.1467c-0.068,0.4224 -0.632,0.2469 -0.806,-0.0031c-0.477,-0.6858 0.323,-1.3583 0.94,-1.6152c0.159,-0.066 0.02,-0.2826 -0.139,-0.2166z" fill="#1A0000"/>
</g>
</g>
<g id="group_17">
<g id="group_18">
<g id="group_19">
<g id="group_20">
<path id="vector_17" d="M15.507,35.1915c0.112,-0.3022 0.312,-0.5875 0.602,-0.7945c0.284,-0.2097 0.676,-0.3276 1.051,-0.2834c0.185,0.0192 0.373,0.0676 0.542,0.1544c0.164,0.0944 0.307,0.2204 0.401,0.3709c0.195,0.2988 0.227,0.646 0.168,0.9593c-0.054,-0.3133 -0.166,-0.614 -0.357,-0.8414c-0.19,-0.2288 -0.472,-0.351 -0.784,-0.3752c-0.308,-0.0399 -0.616,0.0396 -0.891,0.1878c-0.274,0.1529 -0.521,0.3695 -0.732,0.6221z" fill="#8B2A0C"/>
</g>
</g>
<g id="group_21" opacity="0.53">
<g id="group_22">
<path id="vector_18" d="M15.524,35.194c0,0 0.652,-1.136 1.838,-0.8595c1.019,0.2373 0.907,1.3618 0.907,1.3618" fill="#8B2A0C"/>
<path id="vector_19" d="M15.524,35.1942c0.124,-0.298 0.337,-0.576 0.635,-0.773c0.292,-0.1993 0.689,-0.3038 1.062,-0.2466c0.184,0.0258 0.369,0.0803 0.535,0.1732c0.16,0.0999 0.298,0.2312 0.386,0.3844c0.183,0.3053 0.2,0.6537 0.127,0.9643c-0.04,-0.3149 -0.14,-0.6194 -0.321,-0.8529c-0.181,-0.2354 -0.458,-0.3671 -0.768,-0.4024c-0.306,-0.0507 -0.618,0.018 -0.899,0.1566c-0.28,0.1437 -0.536,0.3514 -0.757,0.5964z" fill="#8B2A0C"/>
</g>
</g>
</g>
<g id="group_23">
<path id="vector_20" d="M9.503,32.076c-0.108,1.6383 1.258,3.045 3.05,3.1413c1.793,0.0964 3.333,-1.1532 3.441,-2.7914c0.108,-1.6383 -1.258,-3.045 -3.05,-3.1413c-1.792,-0.0968 -3.333,1.1532 -3.441,2.7914z" fill="white"/>
<path id="vector_21" d="M11.083,31.5144c-0.243,1.2423 0.563,2.4282 1.799,2.649c1.237,0.2208 2.436,-0.6076 2.68,-1.8495c0.243,-1.2419 -0.563,-2.4282 -1.8,-2.649c-1.236,-0.2208 -2.436,0.6072 -2.679,1.8495z" fill="#280707" stroke="#280707" stroke-width="0.282609" stroke-miterlimit="10"/>
<g id="group_24">
<g id="group_25">
<path id="vector_22" d="M16.072,31.8195c-0.171,-0.3272 -0.361,-0.6425 -0.591,-0.9259c-0.223,-0.2865 -0.466,-0.5553 -0.749,-0.7746c-0.288,-0.2124 -0.598,-0.3836 -0.927,-0.505c-0.336,-0.1018 -0.683,-0.1686 -1.042,-0.1601c-0.73,-0.0019 -1.448,0.1866 -2.014,0.5868c-0.587,0.3855 -0.975,1.0199 -1.205,1.6812l-0.038,0.111l-0.091,-0.0319c-0.214,-0.0752 -0.427,-0.1555 -0.638,-0.2431l0.01,-0.0315l0.661,0.1659l-0.025,0.0154c0.139,-0.7162 0.516,-1.4082 1.129,-1.8813c0.609,-0.4747 1.419,-0.7047 2.211,-0.694c0.399,-0.0015 0.795,0.0722 1.166,0.2059c0.364,0.1474 0.699,0.3533 0.986,0.606c0.563,0.5176 0.961,1.1709 1.191,1.8679z" fill="black"/>
</g>
<g id="group_26">
<path id="vector_23" d="M9.536,31.279l-0.612,-0.4559l0.771,0.1417z" fill="black"/>
</g>
<g id="group_27">
<path id="vector_24" d="M9.841,30.6141l-0.51,-0.5211l0.719,0.2324z" fill="black"/>
</g>
</g>
<g id="group_28">
<path id="vector_25" d="M15.085,34.4576c-0.397,0.2988 -0.864,0.5222 -1.362,0.6666c-0.497,0.146 -1.034,0.2005 -1.563,0.1375c-0.266,-0.0257 -0.52,-0.1071 -0.772,-0.1862c-0.235,-0.116 -0.481,-0.2135 -0.679,-0.3791c-0.221,-0.1363 -0.384,-0.3283 -0.558,-0.5049c-0.159,-0.1882 -0.287,-0.3975 -0.416,-0.5984c0.353,0.3426 0.699,0.6786 1.121,0.9113c0.406,0.2493 0.868,0.4086 1.348,0.4589c0.478,0.0622 0.97,0.0273 1.454,-0.0656c0.482,-0.0999 0.964,-0.2412 1.427,-0.4401z" fill="black"/>
</g>
</g>
<g id="group_29">
<path id="vector_26" d="M27.1,34.9773c-0.459,1.6955 -2.389,2.7331 -4.311,2.318c-1.922,-0.4155 -3.108,-2.1267 -2.649,-3.8222c0.458,-1.6954 2.388,-2.7331 4.31,-2.3179c1.922,0.4151 3.108,2.1263 2.65,3.8221z" fill="white"/>
<path id="vector_27" d="M27.09,34.2049c-0.175,1.3099 -1.408,2.2684 -2.756,2.1413c-1.348,-0.1271 -2.299,-1.2922 -2.124,-2.6021c0.175,-1.3099 1.409,-2.2685 2.757,-2.1414c1.347,0.1275 2.298,1.2923 2.123,2.6022z" fill="#280707" stroke="#280707" stroke-width="0.299669" stroke-miterlimit="10"/>
<g id="group_30">
<g id="group_31">
<path id="vector_28" d="M20.281,32.9419c0.384,-0.7012 0.992,-1.3049 1.765,-1.7177c0.387,-0.2074 0.827,-0.3372 1.282,-0.3906c0.456,-0.0361 0.924,-0.013 1.362,0.1041c0.865,0.2097 1.671,0.7139 2.181,1.4198c0.254,0.354 0.386,0.7649 0.458,1.1662c0.073,0.4056 0.056,0.8107 -0.051,1.2089l-0.105,-0.1182c0.245,0.0276 0.49,0.0606 0.735,0.1017l-0.001,0.0346l-0.737,-0.0158l-0.023,-0.0003l0.003,-0.0227c0.098,-0.7554 -0.073,-1.5576 -0.546,-2.1878c-0.473,-0.6317 -1.219,-1.0553 -2.016,-1.2615c-0.396,-0.1156 -0.815,-0.1436 -1.228,-0.121c-0.412,0.0434 -0.815,0.149 -1.191,0.3145c-0.742,0.3457 -1.378,0.8795 -1.856,1.5046z" fill="black"/>
</g>
<g id="group_32">
<path id="vector_29" d="M27.166,33.8961l0.841,0.0784l-0.786,0.2861z" fill="black"/>
</g>
<g id="group_33">
<path id="vector_30" d="M27.021,33.1569l0.817,-0.0269l-0.705,0.3802z" fill="black"/>
</g>
</g>
<g id="group_34">
<path id="vector_31" d="M20.427,35.8745c0.208,0.1636 0.416,0.3218 0.642,0.457c0.216,0.1455 0.445,0.2746 0.679,0.3879c0.469,0.225 0.963,0.399 1.474,0.4692c0.51,0.0841 1.036,0.053 1.54,-0.0775c0.515,-0.1083 0.98,-0.3564 1.463,-0.5956c-0.203,0.1655 -0.407,0.3402 -0.636,0.4834c-0.24,0.126 -0.476,0.2681 -0.746,0.346c-0.258,0.1126 -0.543,0.1387 -0.823,0.1886c-0.284,0.0081 -0.571,0.0188 -0.852,-0.03c-0.561,-0.0852 -1.095,-0.2857 -1.557,-0.5748c-0.46,-0.2873 -0.875,-0.6356 -1.184,-1.0542z" fill="black"/>
</g>
</g>
<g id="group_35">
<path id="vector_32" opacity="0.49" d="M18.661,36.8041c-0.092,0.5338 -0.689,1.4912 -2.018,1.3249c-0.918,-0.1148 -1.516,-1.0903 -1.424,-1.6241c0,0 0.885,-0.1705 1.815,-0.1182c0.647,0.0364 1.627,0.4174 1.627,0.4174z" fill="#8B2A0C"/>
<g id="group_36">
<path id="vector_33" d="M14.622,36.0216c0.343,0.2711 0.704,0.5046 1.082,0.6936c0.38,0.1843 0.781,0.3175 1.193,0.3536c0.409,0.0415 0.831,0 1.228,-0.1432c0.208,-0.0488 0.39,-0.1613 0.592,-0.2412c0.192,-0.096 0.372,-0.2154 0.575,-0.3149c-0.147,0.1563 -0.299,0.3153 -0.47,0.4559c-0.188,0.1194 -0.361,0.2711 -0.581,0.3502c-0.412,0.2108 -0.91,0.283 -1.385,0.2396c-0.477,-0.0491 -0.929,-0.2204 -1.307,-0.4696c-0.377,-0.2493 -0.703,-0.5592 -0.927,-0.924z" fill="#3B130E"/>
</g>
</g>
<g id="group_37">
<path id="vector_34" d="M10.579,28.3864c0.086,-0.3932 0.327,-0.7542 0.651,-1.0323c0.319,-0.2868 0.723,-0.4877 1.145,-0.6186c0.429,-0.1126 0.873,-0.1571 1.305,-0.1168c0.216,0.0127 0.426,0.0669 0.633,0.1079c0.203,0.0734 0.404,0.1325 0.593,0.2251l0.004,0.0019c0.01,0.0046 0.013,0.015 0.008,0.023c-0.003,0.0066 -0.011,0.01 -0.019,0.0089l-0.605,-0.0765c-0.203,-0.0046 -0.406,-0.0253 -0.609,-0.0168c-0.406,0.0096 -0.81,0.066 -1.196,0.1755c-0.767,0.22 -1.479,0.6797 -1.876,1.3337c-0.005,0.0084 -0.017,0.0115 -0.025,0.0065c-0.008,-0.0038 -0.011,-0.0115 -0.009,-0.0184z" fill="#2E2E2E"/>
</g>
<g id="group_38">
<path id="vector_35" d="M27.696,30.6217c-0.232,-0.3221 -0.504,-0.5841 -0.778,-0.8221c-0.28,-0.2324 -0.578,-0.4336 -0.901,-0.601c-0.164,-0.0818 -0.327,-0.1656 -0.504,-0.2285c-0.167,-0.0845 -0.353,-0.1271 -0.532,-0.2001l-1.154,-0.3587l-0.006,-0.0019c-0.009,-0.0031 -0.014,-0.0127 -0.012,-0.0215c0.003,-0.0073 0.011,-0.0119 0.019,-0.0115l0.613,0.0334c0.202,0.0319 0.407,0.0484 0.607,0.0933c0.401,0.0829 0.79,0.212 1.154,0.3925c0.709,0.3813 1.298,0.9842 1.53,1.7185c0.003,0.0088 -0.003,0.018 -0.012,0.0207c-0.008,0.0019 -0.016,-0.0008 -0.02,-0.0069z" fill="#2E2E2E"/>
</g>
</g>
</g>
</g>
</g>
</g>
</g>
<path id="text" d="M64.068,34.148c1.272,0 2.184,-0.228 2.736,-0.684c0.576,-0.48 0.864,-1.044 0.864,-1.692c0,-0.6 -0.228,-1.08 -0.684,-1.44c-0.432,-0.384 -1.08,-0.72 -1.944,-1.008l-1.908,-0.612c-1.296,-0.432 -2.436,-0.912 -3.42,-1.44c-0.984,-0.528 -1.752,-1.2 -2.304,-2.016c-0.552,-0.84 -0.828,-1.908 -0.828,-3.204c0,-1.992 0.756,-3.576 2.268,-4.752c1.512,-1.176 3.612,-1.764 6.3,-1.764c1.368,0 2.58,0.132 3.636,0.396c1.08,0.264 1.92,0.66 2.52,1.188c0.624,0.504 0.936,1.128 0.936,1.872c0,0.528 -0.132,0.996 -0.396,1.404c-0.264,0.408 -0.576,0.744 -0.936,1.008c-0.552,-0.36 -1.296,-0.684 -2.232,-0.972c-0.912,-0.288 -1.908,-0.432 -2.988,-0.432c-1.152,0 -2.028,0.192 -2.628,0.576c-0.576,0.384 -0.864,0.876 -0.864,1.476c0,0.48 0.192,0.876 0.576,1.188c0.408,0.288 0.996,0.552 1.764,0.792l1.98,0.648c2.184,0.672 3.864,1.56 5.04,2.664c1.176,1.104 1.764,2.592 1.764,4.464c0,2.016 -0.78,3.66 -2.34,4.932c-1.56,1.248 -3.816,1.872 -6.768,1.872c-1.464,0 -2.772,-0.168 -3.924,-0.504c-1.152,-0.312 -2.064,-0.756 -2.736,-1.332c-0.672,-0.6 -1.008,-1.296 -1.008,-2.088c0,-0.624 0.18,-1.152 0.54,-1.584c0.36,-0.432 0.768,-0.768 1.224,-1.008c0.648,0.528 1.452,1.008 2.412,1.44c0.984,0.408 2.1,0.612 3.348,0.612zM76.018,22.808h5.472v15.156c-0.24,0.048 -0.6,0.108 -1.08,0.18c-0.456,0.072 -0.936,0.108 -1.44,0.108c-1.08,0 -1.848,-0.192 -2.304,-0.576c-0.432,-0.384 -0.648,-1.044 -0.648,-1.98zM81.49,29.648h-5.472v-13.536c0.264,-0.048 0.636,-0.108 1.116,-0.18c0.48,-0.072 0.96,-0.108 1.44,-0.108c1.032,0 1.776,0.18 2.232,0.54c0.456,0.36 0.684,1.032 0.684,2.016zM99.957,32.564c-0.288,0.192 -0.648,0.372 -1.08,0.54c-0.432,0.144 -0.936,0.216 -1.512,0.216c-0.744,0 -1.368,-0.096 -1.872,-0.288c-0.48,-0.192 -0.804,-0.516 -0.972,-0.972c-0.816,-2.28 -1.512,-4.188 -2.088,-5.724c-0.552,-1.536 -0.984,-2.856 -1.296,-3.96h-0.18c-0.072,1.512 -0.132,2.904 -0.18,4.176c-0.048,1.272 -0.096,2.496 -0.144,3.672c-0.024,1.176 -0.06,2.388 -0.108,3.636c-0.048,1.224 -0.108,2.568 -0.18,4.032c-0.288,0.072 -0.648,0.144 -1.08,0.216c-0.432,0.096 -0.864,0.144 -1.296,0.144c-0.912,0 -1.62,-0.144 -2.124,-0.432c-0.504,-0.312 -0.756,-0.852 -0.756,-1.62c0,-0.528 0.024,-1.308 0.072,-2.34c0.048,-1.056 0.108,-2.256 0.18,-3.6c0.096,-1.368 0.192,-2.808 0.288,-4.32c0.096,-1.512 0.192,-3 0.288,-4.464c0.12,-1.488 0.216,-2.856 0.288,-4.104c0.192,-0.288 0.576,-0.576 1.152,-0.864c0.576,-0.312 1.368,-0.468 2.376,-0.468c1.08,0 1.944,0.18 2.592,0.54c0.648,0.336 1.116,0.888 1.404,1.656c0.36,0.888 0.744,1.908 1.152,3.06c0.408,1.128 0.816,2.28 1.224,3.456c0.408,1.152 0.78,2.208 1.116,3.168h0.18c0.696,-2.136 1.392,-4.212 2.088,-6.228c0.696,-2.016 1.308,-3.708 1.836,-5.076c0.312,-0.168 0.72,-0.3 1.224,-0.396c0.528,-0.12 1.08,-0.18 1.656,-0.18c1.032,0 1.86,0.156 2.484,0.468c0.648,0.288 1.032,0.732 1.152,1.332c0.096,0.456 0.192,1.176 0.288,2.16c0.12,0.984 0.24,2.124 0.36,3.42c0.12,1.272 0.24,2.616 0.36,4.032c0.12,1.392 0.228,2.748 0.324,4.068c0.12,1.32 0.216,2.52 0.288,3.6c0.072,1.056 0.12,1.896 0.144,2.52c-0.36,0.216 -0.744,0.372 -1.152,0.468c-0.384,0.096 -0.876,0.144 -1.476,0.144c-0.744,0 -1.392,-0.132 -1.944,-0.396c-0.552,-0.288 -0.852,-0.828 -0.9,-1.62c-0.096,-1.896 -0.18,-3.696 -0.252,-5.4c-0.072,-1.704 -0.132,-3.264 -0.18,-4.68c-0.048,-1.416 -0.096,-2.616 -0.144,-3.6h-0.18c-0.312,1.032 -0.756,2.34 -1.332,3.924c-0.552,1.56 -1.248,3.588 -2.088,6.084zM124.435,24.896v3.888h-8.028v-3.888zM121.735,28.784l0.432,-2.988c1.992,0 3.636,0.24 4.932,0.72c1.32,0.48 2.316,1.152 2.988,2.016c0.672,0.864 1.008,1.908 1.008,3.132c0,2.328 -0.864,4.056 -2.592,5.184c-1.728,1.128 -4.188,1.692 -7.38,1.692c-0.576,0 -1.236,-0.024 -1.98,-0.072c-0.72,-0.048 -1.464,-0.132 -2.232,-0.252c-0.744,-0.12 -1.428,-0.288 -2.052,-0.504c-1.248,-0.456 -1.872,-1.26 -1.872,-2.412v-17.208c0,-0.48 0.132,-0.84 0.396,-1.08c0.264,-0.264 0.624,-0.48 1.08,-0.648c0.816,-0.264 1.8,-0.456 2.952,-0.576c1.152,-0.12 2.34,-0.18 3.564,-0.18c2.952,0 5.244,0.516 6.876,1.548c1.632,1.008 2.448,2.568 2.448,4.68c0,1.152 -0.336,2.136 -1.008,2.952c-0.672,0.816 -1.656,1.44 -2.952,1.872c-1.272,0.408 -2.82,0.612 -4.644,0.612l-0.252,-2.376c1.176,0 2.04,-0.228 2.592,-0.684c0.552,-0.456 0.828,-1.104 0.828,-1.944c0,-0.792 -0.324,-1.404 -0.972,-1.836c-0.648,-0.432 -1.608,-0.648 -2.88,-0.648c-0.456,0 -0.948,0.012 -1.476,0.036c-0.504,0.024 -0.912,0.072 -1.224,0.144v14.04c0.384,0.12 0.876,0.204 1.476,0.252c0.6,0.024 1.164,0.036 1.692,0.036c1.224,0 2.196,-0.228 2.916,-0.684c0.744,-0.456 1.116,-1.176 1.116,-2.16c0,-0.912 -0.324,-1.584 -0.972,-2.016c-0.624,-0.432 -1.56,-0.648 -2.808,-0.648zM134.021,22.808h5.472v15.156c-0.24,0.048 -0.6,0.108 -1.08,0.18c-0.456,0.072 -0.936,0.108 -1.44,0.108c-1.08,0 -1.848,-0.192 -2.304,-0.576c-0.432,-0.384 -0.648,-1.044 -0.648,-1.98zM139.493,29.648h-5.472v-13.536c0.264,-0.048 0.636,-0.108 1.116,-0.18c0.48,-0.072 0.96,-0.108 1.44,-0.108c1.032,0 1.776,0.18 2.232,0.54c0.456,0.36 0.684,1.032 0.684,2.016z" fill="#1E1E2F"/>
</g></svg>