<svg width="80" height="69" viewBox="0 0 80 69" fill="none" xmlns="http://www.w3.org/2000/svg">
<path d="M74.8533 46.6374C74.8533 46.6374 79.1591 44.5815 79.2956 39.3212C79.432 34.0609 73.4497 33.911 73.4497 33.911C76.4681 31.4237 75.6414 27.1901 75.6414 27.1901C75.6488 19.4316 69.6059 19.1409 69.6059 19.1409C69.6059 19.1409 71.9041 16.3856 70.8162 12.7927C68.7015 5.80875 61.769 7.65601 61.769 7.65601C61.0121 4.04104 58.2109 1.19825 54.6608 0.640833C54.607 0.632266 54.5537 0.624325 54.4999 0.616371C50.8764 0.088322 47.333 2.06283 45.6479 5.41469L45.4111 5.88585C45.2759 5.44101 45.044 4.98455 44.7656 4.54339C43.3258 2.26232 40.9346 0.806653 38.3188 0.416888C32.1022 -0.508881 29.2 4.28029 29.2 4.28029C26.6387 1.17135 20.8045 2.35837 20.8045 2.35837C7.98201 5.47711 11.2702 18.5798 11.2702 18.5798C11.2702 18.5798 5.2824 14.7788 1.39148 23.6364C-2.49883 32.4945 5.24019 38.5545 5.24019 38.5545C4.06906 39.0342 2.99155 41.3704 2.99155 41.3704C0.235049 50.2762 11.3761 52.7293 11.3761 52.7293C7.51576 61.6002 18.4628 61.2619 18.4628 61.2619C19.6376 66.0345 23.4001 62.1723 23.4001 62.1723C23.2495 68.1387 27.6477 65.3498 27.6477 65.3498C28.7546 68.8687 31.7252 65.0922 31.7252 65.0922L32.3426 64.9704C32.4522 66.4579 33.6661 67.6645 35.2154 67.7269C36.5829 67.7826 37.7608 66.926 38.1787 65.7114C38.9772 67.0208 40.4965 67.9405 42.2789 68.0127C44.932 68.1204 47.1623 66.3129 47.3208 63.9584C47.809 64.6394 48.5928 65.1038 49.5039 65.1411C50.7399 65.1913 51.8107 64.4448 52.2353 63.3698C54.3659 67.8004 58.0004 64.2062 58.0004 64.2062C61.4159 66.5589 62.7639 62.7383 62.7639 62.7383C62.7639 62.7383 65.8636 65.1607 69.1415 60.7032C70.9789 58.2043 69.1017 54.0992 69.1017 54.0992C69.1017 54.0992 72.9088 56.9457 75.6157 53.6024C78.6072 49.906 74.8533 46.6374 74.8533 46.6374Z" fill="#F99D07" stroke="#F99D07" stroke-width="0.596029" stroke-miterlimit="10" stroke-linecap="round"/>
<path d="M35.4163 57.212L35.4628 61.4504L32.59 61.5092C32.59 61.5092 31.4782 67.3954 38.1465 67.7827C43.8608 68.1144 44.7352 61.3213 44.7352 61.3213L41.1698 61.2118V56.999L35.4163 57.212Z" fill="#FDFDFF" stroke="#FDFDFF" stroke-width="0.441652" stroke-miterlimit="10"/>
<path d="M59.5612 42.6141C58.0957 41.7275 56.1757 42.0414 54.6093 43.2394C54.7212 42.4789 54.7922 41.7042 54.8081 40.9143C54.813 40.6665 54.7989 40.4236 54.7947 40.1776C54.5401 40.1758 54.2856 40.1745 54.031 40.1641C51.5187 40.0613 49.9351 38.129 47.6951 36.972C45.8331 36.0101 45.1558 35.8388 43.8048 34.2363C42.5333 32.7292 38.8755 29.4116 38.2318 26.6086C36.5063 29.367 33.7663 32.5145 31.4773 34.1586C27.9516 36.6905 24.7803 39.5816 20.4286 40.0565C20.4274 40.1066 20.4231 40.1562 20.4219 40.2064C20.4109 40.7369 20.4268 41.2619 20.4604 41.7819C19.5279 41.1737 18.4614 40.9314 17.4243 41.186C15.0747 41.7642 13.7708 44.6724 14.5112 47.6829C15.2515 50.6927 17.7566 52.6642 20.1062 52.0859C21.3311 51.7843 22.2679 50.8463 22.7831 49.5938C25.7067 54.7366 31.06 58.2359 37.2491 58.3632C43.486 58.4917 49.0179 55.1649 52.1373 50.0802C52.4181 50.9809 52.9596 51.739 53.7502 52.2175C55.8202 53.47 58.7994 52.3356 60.4037 49.6837C62.0087 47.0318 61.6317 43.8666 59.5612 42.6141Z" fill="#FDFDFF" stroke="#FDFDFF" stroke-width="0.559683" stroke-miterlimit="10"/>
<path d="M21.0925 44.3915C20.4274 43.6261 19.6301 42.9267 18.7276 42.6507C17.8349 42.3595 16.8657 42.849 16.3786 43.6059C15.8891 44.3842 15.8989 45.425 16.0506 46.396C16.2158 47.3793 16.5077 48.3577 16.8791 49.3122C16.3248 48.4483 15.8903 47.4968 15.6401 46.4787C15.3996 45.4801 15.3146 44.3132 15.9142 43.3152C16.2171 42.8264 16.6772 42.4641 17.1967 42.2438C17.726 42.0248 18.3482 42.0273 18.8653 42.2273C19.911 42.6355 20.6042 43.5 21.0925 44.3915Z" fill="#6B7280"/>
<path d="M23.2611 50.2285C22.7875 49.5658 22.5024 48.7906 22.2595 48.0196C22.1456 47.6298 22.0496 47.2358 21.9688 46.8387C21.8899 46.441 21.8342 46.0396 21.792 45.637C21.9774 46.4251 22.1542 47.2113 22.391 47.9804C22.5018 48.3671 22.6309 48.7483 22.7716 49.1253C22.9172 49.4991 23.0653 49.8748 23.2611 50.2285Z" fill="#6B7280"/>
<path d="M54.4189 45.2648C55.0137 44.4407 55.8085 43.6679 56.8952 43.3925C57.433 43.2579 58.051 43.3319 58.5491 43.6152C59.0374 43.8985 59.4492 44.314 59.6896 44.8371C60.1614 45.9018 59.9326 47.0491 59.5703 48.0103C59.1965 48.9893 58.6482 49.8802 57.9911 50.6689C58.4775 49.767 58.8887 48.8327 59.1738 47.8776C59.4443 46.9328 59.5832 45.9006 59.1934 45.0684C58.8037 44.2577 57.903 43.6513 56.9809 43.8306C56.0508 43.9922 55.1734 44.5875 54.4189 45.2648Z" fill="#6B7280"/>
<path d="M51.8154 50.548C51.9972 50.1863 52.1305 49.8051 52.2615 49.4258C52.3875 49.044 52.502 48.6585 52.5974 48.2675C52.8048 47.4898 52.9505 46.6974 53.1053 45.9026C53.079 46.3064 53.0392 46.7103 52.9749 47.1104C52.9101 47.5106 52.8293 47.9083 52.7302 48.3017C52.5179 49.0813 52.2627 49.8676 51.8154 50.548Z" fill="#6B7280"/>
<path d="M56.1438 54.1534L55.1171 52.6549L54.0824 54.0023L54.2855 51.9005L53.1064 51.198L54.5682 51.0958L55.237 49.5686L55.7112 51.1564L57.2097 51.4165L56.049 52.0908L56.1438 54.1534Z" fill="white" stroke="white" stroke-width="0.141955" stroke-miterlimit="10" stroke-linecap="round"/>
<path d="M21.1853 53.9555L19.9291 52.6442L19.1269 54.1415L18.9856 52.0348L17.708 51.5331L19.1337 51.1947L19.5455 49.5793L20.2718 51.068L21.7923 51.0821L20.757 51.9357L21.1853 53.9555Z" fill="white" stroke="white" stroke-width="0.141955" stroke-miterlimit="10" stroke-linecap="round"/>
<path opacity="0.49" d="M33.0971 49.7875C32.8603 52.4234 30.5309 54.368 27.8949 54.1306C25.259 53.8938 23.3144 51.5643 23.5518 48.9284C23.7893 46.2924 26.118 44.3479 28.754 44.5853C31.39 44.8221 33.3345 47.1515 33.0971 49.7875Z" fill="#6B7280" stroke="#6B7280" stroke-width="0.621911" stroke-miterlimit="10"/>
<path opacity="0.49" d="M51.8159 49.557C51.5785 52.1929 49.2497 54.1375 46.6137 53.9001C43.9777 53.6633 42.0332 51.3339 42.2706 48.6979C42.508 46.062 44.8368 44.1174 47.4728 44.3548C50.1081 44.5922 52.0527 46.921 51.8159 49.557Z" fill="#6B7280" stroke="#6B7280" stroke-width="0.621911" stroke-miterlimit="10"/>
<path d="M38.0315 26.5543C37.8889 27.3387 37.5371 28.0717 37.2434 28.8072C36.9803 29.4656 36.8304 30.1588 37.1669 30.827C37.4673 31.4236 38.231 31.8776 38.8857 31.5502C39.3782 31.3043 39.5722 30.5608 39.1659 30.1454C38.6678 29.6369 37.758 30.0658 37.334 30.4611C36.7478 31.0069 36.563 31.8874 36.8524 32.6302C37.0849 33.2262 37.7145 33.772 38.3784 33.4685C38.8838 33.2372 39.0662 32.4332 38.4457 32.2092C37.7366 31.9529 37.0592 32.6681 36.9258 33.3014C36.7416 34.1752 37.359 34.9388 38.0284 35.4093C38.2469 35.5629 38.4543 35.2038 38.2377 35.0514C37.7415 34.7026 37.2458 34.1489 37.3162 33.496C37.3492 33.1931 37.5108 32.8805 37.7714 32.7104C37.8547 32.6559 38.0921 32.5207 38.1814 32.5819C38.2358 32.7214 38.2909 32.8603 38.3454 32.9992C38.2511 33.0873 38.1404 33.1344 38.0137 33.1399C37.274 33.1827 37.0476 32.0911 37.1663 31.5533C37.2991 30.9531 37.8755 30.3516 38.5234 30.3448C38.9285 30.3406 39.1078 30.7303 38.8593 31.0473C38.5901 31.3905 38.048 31.2229 37.7812 30.9745C37.3431 30.567 37.3052 29.897 37.4765 29.3597C37.7659 28.4499 38.2585 27.6122 38.431 26.6638C38.4788 26.4038 38.0792 26.2918 38.0315 26.5543Z" fill="#F99D07"/>
<path d="M30.5698 31.1806C29.9652 31.1059 29.395 31.1323 28.8528 31.1855C28.3101 31.2528 27.79 31.3697 27.2858 31.552C26.781 31.7356 26.294 31.9779 25.8026 32.2526C25.5561 32.3878 25.3217 32.5518 25.0641 32.6938C24.8083 32.8424 24.5783 33.0236 24.2943 33.1661L24.2833 33.1716C24.2705 33.1784 24.2546 33.1729 24.2479 33.16C24.243 33.1496 24.2448 33.138 24.2521 33.13L24.8634 32.482C25.0904 32.2911 25.3009 32.0782 25.5426 31.9044C26.0162 31.5434 26.5405 31.2491 27.098 31.0319C28.225 30.6464 29.5014 30.6293 30.5949 31.131C30.6083 31.1372 30.6138 31.153 30.6077 31.1659C30.6028 31.1769 30.5918 31.1824 30.5802 31.1812L30.5698 31.1806Z" fill="#2E2E2E"/>
<path d="M43.7905 30.8984C44.2195 30.4346 44.8111 30.1275 45.4395 29.9953C46.0698 29.8472 46.7355 29.879 47.3669 30.0222C47.9898 30.1984 48.5785 30.4738 49.0753 30.8623C49.3311 31.0441 49.544 31.2802 49.7637 31.4944C49.9509 31.7483 50.1473 31.9833 50.3009 32.2531L50.304 32.2592C50.3113 32.2721 50.307 32.2886 50.2935 32.2966C50.2831 32.3021 50.2709 32.3008 50.2623 32.2935L49.585 31.7245C49.339 31.5623 49.1084 31.3769 48.8508 31.2343C48.3447 30.9339 47.7983 30.7063 47.2317 30.5582C46.1028 30.2755 44.8454 30.3655 43.8193 30.9455C43.8058 30.9529 43.7893 30.9486 43.782 30.9351C43.7758 30.9247 43.7777 30.9113 43.7856 30.9033L43.7905 30.8984Z" fill="#2E2E2E"/>
<path d="M35.0107 45.7991C35.0982 45.1713 35.3681 44.5558 35.8111 44.0571C36.2467 43.5572 36.9088 43.2005 37.5965 43.1656C37.9349 43.1436 38.2879 43.1766 38.622 43.2916C38.9494 43.4226 39.2504 43.6221 39.4719 43.8846C39.9223 44.4046 40.1119 45.0679 40.1083 45.6994C39.8953 45.1083 39.5998 44.5552 39.1739 44.1758C38.7517 43.7915 38.2041 43.6441 37.6363 43.6979C37.0703 43.7193 36.5453 43.9739 36.1035 44.352C35.663 44.7363 35.3063 45.2423 35.0107 45.7991Z" fill="#6B7280"/>
<g opacity="0.53">
<path d="M40.1434 45.8906C40.1434 45.8906 39.9501 43.664 38.0398 43.5306C35.815 43.3752 35.0459 45.7982 35.0459 45.7982" fill="#6B7280"/>
<path d="M40.1448 45.8908C39.9551 45.2918 39.681 44.7277 39.2698 44.3324C38.8617 43.9328 38.3208 43.7646 37.7511 43.7976C37.1851 43.7982 36.651 44.0326 36.1957 44.3936C35.7411 44.7619 35.3654 45.2545 35.0479 45.7991C35.1586 45.175 35.4511 44.5692 35.913 44.0877C36.3677 43.6049 37.0432 43.2732 37.7315 43.2647C38.0705 43.2561 38.4223 43.3014 38.7515 43.4299C39.074 43.5724 39.3665 43.7842 39.5776 44.0546C40.0071 44.5912 40.1717 45.26 40.1448 45.8908Z" fill="#6B7280"/>
</g>
<path d="M50.6961 41.2967C50.6245 43.8115 48.4615 45.7805 45.8659 45.6942C43.2697 45.608 41.2236 43.4994 41.2958 40.9852C41.3674 38.4704 43.5304 36.5014 46.1259 36.5877C48.7221 36.674 50.7683 38.7819 50.6961 41.2967Z" fill="white"/>
<path d="M47.5104 43.8787C49.3006 43.647 50.5559 41.9447 50.3142 40.0764C50.0725 38.2081 48.4253 36.8813 46.6351 37.1129C44.8448 37.3445 43.5895 39.0468 43.8312 40.9151C44.0729 42.7834 45.7201 44.1103 47.5104 43.8787Z" fill="#280707" stroke="#280707" stroke-width="0.521747" stroke-miterlimit="10"/>
<path d="M41.1475 40.1695C41.4375 39.0773 42.0592 38.0628 42.9568 37.2875C43.8501 36.4903 45.1265 36.1458 46.3239 36.2369C47.503 36.3153 48.6858 36.814 49.5589 37.6571C49.9952 38.0818 50.2944 38.6196 50.5147 39.1623C50.7374 39.71 50.8451 40.2839 50.831 40.875L50.6615 40.7379C50.9889 40.7147 51.3174 40.6981 51.6485 40.6933L51.657 40.7422L50.6909 40.9092L50.6609 40.9148L50.6579 40.8829C50.5502 39.7926 50.0704 38.7193 49.2658 37.9667C48.4594 37.2141 47.3733 36.8115 46.2799 36.7209C45.7329 36.6683 45.1785 36.7099 44.648 36.8537C44.123 37.0116 43.6219 37.2533 43.1801 37.5837C42.307 38.2549 41.629 39.1758 41.1946 40.186L41.1475 40.1695Z" fill="black"/>
<path d="M50.4307 39.7362L51.5449 39.6328L50.6026 40.2361L50.4307 39.7362Z" fill="black"/>
<path d="M50.0088 38.7412L51.06 38.4971L50.2511 39.2111L50.0088 38.7412Z" fill="black"/>
<path d="M42.5576 44.5497C43.2135 44.8618 43.8958 45.0869 44.5799 45.2522C45.2664 45.407 45.9664 45.4773 46.6511 45.407C47.3388 45.3568 48.0051 45.1359 48.6042 44.7859C49.2246 44.4598 49.7392 43.9648 50.266 43.46C50.0672 43.7598 49.872 44.0767 49.6285 44.3521C49.3709 44.6152 49.1175 44.893 48.7951 45.0894C48.502 45.3299 48.1428 45.4602 47.802 45.6223C47.4392 45.7294 47.0745 45.8353 46.6957 45.8634C45.9431 45.9313 45.185 45.8304 44.4832 45.5954C43.7808 45.3635 43.1205 45.0135 42.5576 44.5497Z" fill="black"/>
<path d="M23.6421 40.805C23.3729 43.2366 25.2324 45.4222 27.7949 45.6866C30.3581 45.9509 32.6538 44.1942 32.9231 41.7626C33.1923 39.331 31.3328 37.1454 28.7703 36.8811C26.2071 36.6167 23.9113 38.3734 23.6421 40.805Z" fill="white"/>
<path d="M26.3576 40.1377C25.9225 41.9709 26.9945 43.79 28.7518 44.2024C30.5091 44.6142 32.2866 43.4627 32.7223 41.6295C33.1573 39.7969 32.0853 37.9772 30.328 37.5654C28.5701 37.153 26.7926 38.3045 26.3576 40.1377Z" fill="#280707" stroke="#280707" stroke-width="0.521747" stroke-miterlimit="10"/>
<path d="M33.075 40.8664C32.8529 40.3585 32.5983 39.8696 32.285 39.4291C31.9822 38.9836 31.6462 38.57 31.2546 38.2274C30.8551 37.8939 30.4237 37.6253 29.9654 37.4209C29.4985 37.2343 29.0005 37.137 28.4938 37.126C27.4653 37.0838 26.422 37.2734 25.5856 37.8437C24.7229 38.3748 24.0957 39.289 23.7212 40.2814L23.6588 40.4466L23.5346 40.394C23.2323 40.2661 22.9325 40.1309 22.6357 39.9847L22.6504 39.9369L23.5866 40.2282L23.5505 40.2502C23.8032 39.1648 24.4249 38.1533 25.3378 37.4974C26.2532 36.8463 27.4047 36.5747 28.5171 36.6408C29.0764 36.6677 29.6307 36.7913 30.1447 37.0146C30.6519 37.2508 31.1212 37.5684 31.5165 37.9649C32.2954 38.7676 32.8357 39.7797 33.1245 40.8566L33.075 40.8664Z" fill="black"/>
<path d="M23.7486 39.6285L22.8975 38.9016L23.9872 39.1568L23.7486 39.6285Z" fill="black"/>
<path d="M24.2333 38.6591L23.5303 37.8411L24.5374 38.2271L24.2333 38.6591Z" fill="black"/>
<path d="M31.4755 44.7272C30.8807 45.1488 30.1967 45.4493 29.4789 45.631C28.7612 45.8145 27.9982 45.8598 27.2523 45.7375C26.8766 45.6818 26.5205 45.5502 26.1663 45.4168C25.8377 45.2302 25.4889 45.0742 25.2142 44.8129C24.907 44.5939 24.6745 44.2983 24.4371 44.0175C24.2137 43.7244 24.0424 43.3952 23.8662 43.0813C24.3545 43.6228 24.8324 44.1539 25.4271 44.5247C25.9992 44.9169 26.6478 45.1862 27.33 45.2859C28.008 45.4058 28.711 45.3862 29.4074 45.2822C30.1018 45.1654 30.7988 44.991 31.4755 44.7272Z" fill="black"/>
<path opacity="0.49" d="M42.0614 46.6151C42.256 47.167 41.3443 49.8861 39.0491 50.4344C36.9473 50.9361 34.684 49.6848 34.5635 48.63C34.5635 48.63 36.5178 46.8531 38.6129 46.6138C40.7079 46.3746 42.0614 46.6151 42.0614 46.6151Z" fill="#6B7280"/>
<path d="M33.3076 48.2741C33.75 48.3842 34.1906 48.4809 34.6391 48.5268C35.0833 48.5929 35.5299 48.618 35.9754 48.6265C36.8651 48.6278 37.7511 48.5225 38.5948 48.2723C39.4398 48.0324 40.2542 47.6683 40.9848 47.1648C41.7423 46.6924 42.3762 46.0542 43.0291 45.416C42.7684 45.7856 42.5102 46.1692 42.2073 46.5143C41.8812 46.8368 41.5734 47.1862 41.1929 47.4542C40.4782 48.0501 39.6136 48.4552 38.7209 48.7183C37.8233 48.9722 36.8804 49.0689 35.9576 48.9814C35.038 48.8945 34.1275 48.6791 33.3076 48.2741Z" fill="#3B130E"/>
</svg>
